<svg width="23" height="13" viewBox="0 0 23 13" fill="none" xmlns="http://www.w3.org/2000/svg">
<path d="M16.4725 0.504467C16.38 0.411764 16.2701 0.338216 16.1491 0.288035C16.0282 0.237853 15.8985 0.212023 15.7675 0.212023C15.6365 0.212023 15.5068 0.237853 15.3859 0.288035C15.2649 0.338216 15.155 0.411764 15.0625 0.504467L9.4225 6.14447L10.8325 7.55447L16.4725 1.90447C16.8525 1.52447 16.8525 0.884467 16.4725 0.504467ZM20.7125 0.494467L10.8325 10.3745L7.3525 6.90447C7.16552 6.71749 6.91193 6.61245 6.6475 6.61245C6.38307 6.61245 6.12948 6.71749 5.9425 6.90447C5.75552 7.09144 5.65048 7.34504 5.65048 7.60947C5.65048 7.87389 5.75552 8.12749 5.9425 8.31447L10.1225 12.4945C10.5125 12.8845 11.1425 12.8845 11.5325 12.4945L22.1225 1.91447C22.2152 1.82195 22.2888 1.71206 22.3389 1.59109C22.3891 1.47012 22.4149 1.34044 22.4149 1.20947C22.4149 1.0785 22.3891 0.948816 22.3389 0.827843C22.2888 0.706869 22.2152 0.596981 22.1225 0.504467H22.1125C22.0223 0.410069 21.914 0.334755 21.7941 0.282995C21.6743 0.231235 21.5452 0.204083 21.4146 0.20315C21.284 0.202217 21.1546 0.227523 21.034 0.277565C20.9134 0.327608 20.8041 0.401367 20.7125 0.494467ZM0.2925 8.32447L4.4725 12.5045C4.8625 12.8945 5.4925 12.8945 5.8825 12.5045L6.5825 11.8045L1.7025 6.90447C1.60999 6.81176 1.5001 6.73822 1.37912 6.68803C1.25815 6.63785 1.12847 6.61202 0.9975 6.61202C0.866532 6.61202 0.736849 6.63785 0.615876 6.68803C0.494902 6.73822 0.385014 6.81176 0.2925 6.90447C-0.0975 7.29447 -0.0975 7.93447 0.2925 8.32447Z" fill="#0F4C8D"/>
</svg>
