<svg width="21" height="20" viewBox="0 0 21 20" fill="none" xmlns="http://www.w3.org/2000/svg">
<path fill-rule="evenodd" clip-rule="evenodd" d="M17.4997 2.87227V6.13127C17.8937 6.13127 18.2838 6.20886 18.6477 6.35963C19.0117 6.51039 19.3424 6.73137 19.621 7.00994C19.8996 7.28852 20.1206 7.61924 20.2713 7.98321C20.4221 8.34719 20.4997 8.7373 20.4997 9.13127C20.4997 9.52523 20.4221 9.91534 20.2713 10.2793C20.1206 10.6433 19.8996 10.974 19.621 11.2526C19.3424 11.5312 19.0117 11.7521 18.6477 11.9029C18.2838 12.0537 17.8937 12.1313 17.4997 12.1313V15.1313C17.4997 16.7793 15.6187 17.7203 14.2997 16.7313L12.2397 15.1853C11.1385 14.3596 9.85644 13.8084 8.49969 13.5773V16.4213C8.4998 17.075 8.26358 17.7068 7.83459 18.2001C7.40559 18.6934 6.81274 19.0149 6.1653 19.1056C5.51787 19.1962 4.8595 19.0497 4.31157 18.6931C3.76363 18.3365 3.36306 17.7939 3.18369 17.1653L1.61369 11.6693C1.0487 11.0021 0.681024 10.1905 0.551974 9.32577C0.422923 8.46107 0.53762 7.5775 0.883171 6.7744C1.22872 5.9713 1.79143 5.28051 2.50804 4.77966C3.22465 4.27882 4.06675 3.98778 4.93969 3.93927L7.95769 3.77127C9.43431 3.68909 10.8703 3.2576 12.1477 2.51227L14.4917 1.14427C15.8257 0.367265 17.4997 1.32827 17.4997 2.87227ZM4.13369 13.2093L5.10669 16.6163C5.15351 16.7812 5.25843 16.9236 5.40206 17.0172C5.54569 17.1108 5.71834 17.1492 5.88812 17.1255C6.0579 17.1017 6.21334 17.0173 6.32575 16.8879C6.43816 16.7584 6.49994 16.5927 6.49969 16.4213V13.4113L4.93969 13.3243C4.66821 13.3092 4.39854 13.2707 4.13369 13.2093ZM15.4997 2.87227L13.1547 4.24127C11.7301 5.07171 10.1415 5.58155 8.49969 5.73527V11.5543C10.2867 11.8003 11.9877 12.4973 13.4397 13.5853L15.4997 15.1313V2.87227ZM6.49969 5.85527L5.04969 5.93527C4.37513 5.97251 3.73905 6.26129 3.267 6.74459C2.79495 7.22789 2.52124 7.87059 2.49989 8.54584C2.47854 9.22108 2.71111 9.8798 3.15169 10.3919C3.59226 10.9041 4.20883 11.2325 4.87969 11.3123L5.04969 11.3273L6.49969 11.4073V5.85527ZM17.4997 8.13127V10.1313C17.7546 10.131 17.9997 10.0334 18.1851 9.85842C18.3704 9.68345 18.4819 9.44431 18.4969 9.18987C18.5118 8.93543 18.429 8.68489 18.2654 8.48943C18.1018 8.29398 17.8698 8.16837 17.6167 8.13827L17.4997 8.13127Z" fill="#0F4C8D"/>
</svg>
