<svg width="19" height="11" viewBox="0 0 19 11" fill="none" xmlns="http://www.w3.org/2000/svg">
<path d="M18.5999 2.2248L10.1999 10.6498C10.0999 10.7498 9.99157 10.8205 9.8749 10.8618C9.75824 10.9038 9.63324 10.9248 9.4999 10.9248C9.36657 10.9248 9.24157 10.9038 9.1249 10.8618C9.00824 10.8205 8.8999 10.7498 8.7999 10.6498L0.374902 2.2248C0.141569 1.99147 0.0249023 1.69981 0.0249023 1.3498C0.0249023 0.999804 0.149902 0.699805 0.399902 0.449805C0.649902 0.199805 0.941569 0.0748053 1.2749 0.0748053C1.60824 0.0748053 1.8999 0.199805 2.1499 0.449805L9.4999 7.7998L16.8499 0.449805C17.0832 0.216472 17.3706 0.0998049 17.7119 0.0998049C18.0539 0.0998049 18.3499 0.224805 18.5999 0.474805C18.8499 0.724805 18.9749 1.01647 18.9749 1.3498C18.9749 1.68314 18.8499 1.9748 18.5999 2.2248Z" fill="#0F4C8D"/>
</svg>
