<svg width="20" height="14" viewBox="0 0 20 14" fill="none" xmlns="http://www.w3.org/2000/svg">
<path d="M5 10.5C3.61667 10.5 2.43767 10.0123 1.463 9.037C0.487667 8.06233 0 6.88333 0 5.5C0 4.11667 0.487667 2.93733 1.463 1.962C2.43767 0.987333 3.61667 0.5 5 0.5H8C8.28333 0.5 8.521 0.595667 8.713 0.787C8.90433 0.979 9 1.21667 9 1.5C9 1.78333 8.90433 2.02067 8.713 2.212C8.521 2.404 8.28333 2.5 8 2.5H5C4.16667 2.5 3.45833 2.79167 2.875 3.375C2.29167 3.95833 2 4.66667 2 5.5C2 6.33333 2.29167 7.04167 2.875 7.625C3.45833 8.20833 4.16667 8.5 5 8.5H8C8.28333 8.5 8.521 8.59567 8.713 8.787C8.90433 8.979 9 9.21667 9 9.5C9 9.78333 8.90433 10.0207 8.713 10.212C8.521 10.404 8.28333 10.5 8 10.5H5ZM7 6.5C6.71667 6.5 6.47933 6.404 6.288 6.212C6.096 6.02067 6 5.78333 6 5.5C6 5.21667 6.096 4.979 6.288 4.787C6.47933 4.59567 6.71667 4.5 7 4.5H13C13.2833 4.5 13.521 4.59567 13.713 4.787C13.9043 4.979 14 5.21667 14 5.5C14 5.78333 13.9043 6.02067 13.713 6.212C13.521 6.404 13.2833 6.5 13 6.5H7ZM20 5.5H18C18 4.66667 17.7083 3.95833 17.125 3.375C16.5417 2.79167 15.8333 2.5 15 2.5H12C11.7167 2.5 11.4793 2.404 11.288 2.212C11.096 2.02067 11 1.78333 11 1.5C11 1.21667 11.096 0.979 11.288 0.787C11.4793 0.595667 11.7167 0.5 12 0.5H15C16.3833 0.5 17.5627 0.987333 18.538 1.962C19.5127 2.93733 20 4.11667 20 5.5ZM16 13.5C15.7167 13.5 15.4793 13.404 15.288 13.212C15.096 13.0207 15 12.7833 15 12.5V10.5H13C12.7167 10.5 12.4793 10.404 12.288 10.212C12.096 10.0207 12 9.78333 12 9.5C12 9.21667 12.096 8.979 12.288 8.787C12.4793 8.59567 12.7167 8.5 13 8.5H15V6.5C15 6.21667 15.096 5.979 15.288 5.787C15.4793 5.59567 15.7167 5.5 16 5.5C16.2833 5.5 16.5207 5.59567 16.712 5.787C16.904 5.979 17 6.21667 17 6.5V8.5H19C19.2833 8.5 19.5207 8.59567 19.712 8.787C19.904 8.979 20 9.21667 20 9.5C20 9.78333 19.904 10.0207 19.712 10.212C19.5207 10.404 19.2833 10.5 19 10.5H17V12.5C17 12.7833 16.904 13.0207 16.712 13.212C16.5207 13.404 16.2833 13.5 16 13.5Z" fill="white"/>
</svg>
