<svg width="64" height="64" viewBox="0 0 64 64" fill="none" xmlns="http://www.w3.org/2000/svg">
<path d="M6.4 64C4.64 64 3.13387 63.3739 1.8816 62.1216C0.6272 60.8672 0 59.36 0 57.6V19.2C0 17.44 0.6272 15.9339 1.8816 14.6816C3.13387 13.4272 4.64 12.8 6.4 12.8H16.48L22.4 6.4H41.6V12.8H25.2L19.36 19.2H6.4V57.6H57.6V22.4H64V57.6C64 59.36 63.3739 60.8672 62.1216 62.1216C60.8672 63.3739 59.36 64 57.6 64H6.4ZM59.68 19.2C59.68 15.04 58.24 11.52 55.36 8.64C52.48 5.76 48.96 4.32 44.8 4.32V0C50.1333 0 54.6667 1.86667 58.4 5.6C62.1333 9.33333 64 13.8667 64 19.2H59.68ZM51.2 19.2C51.2 17.44 50.5739 15.9339 49.3216 14.6816C48.0672 13.4272 46.56 12.8 44.8 12.8V8.48C47.7333 8.48 50.2261 9.52 52.2784 11.6C54.3328 13.68 55.4133 16.2133 55.52 19.2H51.2ZM32 52.8C36 52.8 39.4005 51.4005 42.2016 48.6016C45.0005 45.8005 46.4 42.4 46.4 38.4C46.4 34.4 45.0005 30.9995 42.2016 28.1984C39.4005 25.3995 36 24 32 24C28 24 24.5995 25.3995 21.7984 28.1984C18.9995 30.9995 17.6 34.4 17.6 38.4C17.6 42.4 18.9995 45.8005 21.7984 48.6016C24.5995 51.4005 28 52.8 32 52.8ZM32 46.4C29.76 46.4 27.8667 45.6267 26.32 44.08C24.7733 42.5333 24 40.64 24 38.4C24 36.16 24.7733 34.2667 26.32 32.72C27.8667 31.1733 29.76 30.4 32 30.4C34.24 30.4 36.1333 31.1733 37.68 32.72C39.2267 34.2667 40 36.16 40 38.4C40 40.64 39.2267 42.5333 37.68 44.08C36.1333 45.6267 34.24 46.4 32 46.4Z" fill="white" fill-opacity="0.3"/>
</svg>
