<svg width="34" height="34" viewBox="0 0 34 34" fill="none" xmlns="http://www.w3.org/2000/svg">
<path d="M3.4 34C2.465 34 1.66487 33.6674 0.9996 33.0021C0.3332 32.3357 0 31.535 0 30.6V10.2C0 9.265 0.3332 8.46487 0.9996 7.7996C1.66487 7.1332 2.465 6.8 3.4 6.8H8.755L11.9 3.4H22.1V6.8H13.3875L10.285 10.2H3.4V30.6H30.6V11.9H34V30.6C34 31.535 33.6674 32.3357 33.0021 33.0021C32.3357 33.6674 31.535 34 30.6 34H3.4ZM31.705 10.2C31.705 7.99 30.94 6.12 29.41 4.59C27.88 3.06 26.01 2.295 23.8 2.295V0C26.6333 0 29.0417 0.991667 31.025 2.975C33.0083 4.95833 34 7.36667 34 10.2H31.705ZM27.2 10.2C27.2 9.265 26.8674 8.46487 26.2021 7.7996C25.5357 7.1332 24.735 6.8 23.8 6.8V4.505C25.3583 4.505 26.6826 5.0575 27.7729 6.1625C28.8643 7.2675 29.4383 8.61333 29.495 10.2H27.2ZM17 28.05C19.125 28.05 20.9315 27.3065 22.4196 25.8196C23.9065 24.3315 24.65 22.525 24.65 20.4C24.65 18.275 23.9065 16.4685 22.4196 14.9804C20.9315 13.4935 19.125 12.75 17 12.75C14.875 12.75 13.0685 13.4935 11.5804 14.9804C10.0935 16.4685 9.35 18.275 9.35 20.4C9.35 22.525 10.0935 24.3315 11.5804 25.8196C13.0685 27.3065 14.875 28.05 17 28.05ZM17 24.65C15.81 24.65 14.8042 24.2392 13.9825 23.4175C13.1608 22.5958 12.75 21.59 12.75 20.4C12.75 19.21 13.1608 18.2042 13.9825 17.3825C14.8042 16.5608 15.81 16.15 17 16.15C18.19 16.15 19.1958 16.5608 20.0175 17.3825C20.8392 18.2042 21.25 19.21 21.25 20.4C21.25 21.59 20.8392 22.5958 20.0175 23.4175C19.1958 24.2392 18.19 24.65 17 24.65Z" fill="#0F4C8D"/>
</svg>
