<svg width="19" height="15" viewBox="0 0 19 15" fill="none" xmlns="http://www.w3.org/2000/svg">
<path d="M12.635 10.5937C12.4608 10.7656 12.2392 10.8516 11.97 10.8516C11.7008 10.8516 11.4792 10.7656 11.305 10.5937L9.5 8.8125L7.67125 10.6172C7.49708 10.7891 7.28333 10.875 7.03 10.875C6.77667 10.875 6.555 10.7812 6.365 10.5937C6.19083 10.4219 6.10375 10.2031 6.10375 9.9375C6.10375 9.67188 6.19083 9.45312 6.365 9.28125L8.17 7.5L6.34125 5.69531C6.16708 5.52344 6.08 5.3125 6.08 5.0625C6.08 4.8125 6.175 4.59375 6.365 4.40625C6.53917 4.23437 6.76083 4.14844 7.03 4.14844C7.29917 4.14844 7.52083 4.23437 7.695 4.40625L9.5 6.1875L11.3287 4.38281C11.5029 4.21094 11.7167 4.125 11.97 4.125C12.2233 4.125 12.445 4.21875 12.635 4.40625C12.8092 4.57812 12.8962 4.79687 12.8962 5.0625C12.8962 5.32812 12.8092 5.54688 12.635 5.71875L10.83 7.5L12.6587 9.30469C12.8329 9.47656 12.92 9.6875 12.92 9.9375C12.92 10.1875 12.825 10.4062 12.635 10.5937ZM17.1 15C17.6225 15 18.0696 14.8166 18.4414 14.4497C18.8138 14.0822 19 13.6406 19 13.125V1.875C19 1.35938 18.8138 0.918125 18.4414 0.55125C18.0696 0.18375 17.6225 0 17.1 0H1.9C1.3775 0 0.930048 0.18375 0.55765 0.55125C0.185883 0.918125 0 1.35938 0 1.875V13.125C0 13.6406 0.185883 14.0822 0.55765 14.4497C0.930048 14.8166 1.3775 15 1.9 15H17.1Z" fill="#9DB6D0"/>
</svg>
