<svg width="24" height="28" viewBox="0 0 24 28" fill="none" xmlns="http://www.w3.org/2000/svg">
<path d="M8.04 19.5785C8.26 19.8961 8.54 20.0549 8.88 20.0549C9.22 20.0549 9.5 19.8961 9.72 19.5785L12 16.2865L14.31 19.6218C14.53 19.9394 14.8 20.0983 15.12 20.0983C15.44 20.0983 15.72 19.925 15.96 19.5785C16.18 19.2608 16.29 18.8566 16.29 18.3657C16.29 17.8747 16.18 17.4705 15.96 17.1528L13.68 13.8609L15.99 10.5256C16.21 10.208 16.32 9.81812 16.32 9.35609C16.32 8.89406 16.2 8.48978 15.96 8.14326C15.74 7.82562 15.46 7.66679 15.12 7.66679C14.78 7.66679 14.5 7.82562 14.28 8.14326L12 11.4352L9.69 8.09995C9.47 7.7823 9.2 7.62348 8.88 7.62348C8.56 7.62348 8.28 7.79674 8.04 8.14326C7.82 8.46091 7.71 8.86518 7.71 9.35609C7.71 9.84699 7.82 10.2513 8.04 10.5689L10.32 13.8609L8.01 17.1961C7.79 17.5138 7.68 17.9036 7.68 18.3657C7.68 18.8277 7.8 19.232 8.04 19.5785ZM2.4 27.7217C1.74 27.7217 1.1752 27.3827 0.7056 26.7047C0.2352 26.0255 0 25.2095 0 24.2565V3.46522C0 2.51228 0.2352 1.6968 0.7056 1.01877C1.1752 0.339591 1.74 0 2.4 0H21.6C22.26 0 22.8252 0.339591 23.2956 1.01877C23.7652 1.6968 24 2.51228 24 3.46522V24.2565C24 25.2095 23.7652 26.0255 23.2956 26.7047C22.8252 27.3827 22.26 27.7217 21.6 27.7217H2.4Z" fill="white"/>
</svg>
