<svg width="15" height="16" viewBox="0 0 15 16" fill="none" xmlns="http://www.w3.org/2000/svg">
<path fill-rule="evenodd" clip-rule="evenodd" d="M2.3298 11.7165C2.3298 11.4406 2.40243 11.1808 2.79854 11.1808H7.58649C8.22017 11.1808 8.22017 12.1183 7.58649 12.1183H2.79854C2.54741 12.1183 2.3298 11.9551 2.3298 11.7165ZM10.4325 12.654C10.0641 12.654 9.99527 12.4403 9.80684 12.2082C9.69972 12.0762 9.39454 11.7327 9.39454 11.5491C9.39454 11.1914 9.87179 10.6283 10.466 11.5156C10.7709 11.3114 11.3994 10.6451 11.7048 10.6451C12.1668 10.6451 12.3854 11.1949 11.935 11.5449L11.6046 11.8172C11.5288 11.8762 11.4631 11.928 11.3805 11.9949C11.2241 12.1215 11.0857 12.2347 10.9347 12.3527C10.8225 12.4404 10.6077 12.654 10.4325 12.654ZM7.61998 8.30135H2.76505C2.15426 8.30135 2.17692 7.36384 2.83203 7.36384H7.553C8.21679 7.36384 8.21836 8.30135 7.61995 8.30135H7.61998ZM10.466 8.83706C10.0051 8.83706 9.97473 8.59724 9.56612 8.09627C9.12734 7.55831 9.62706 7.22104 9.88988 7.23753C10.1255 7.25231 10.2207 7.40015 10.3285 7.53478C10.4006 7.62477 10.4008 7.5801 10.4325 7.69865C10.5618 7.66414 10.6482 7.56673 10.7532 7.48362C10.9719 7.31049 11.477 6.82812 11.7048 6.82812C11.948 6.82812 12.1735 7.00414 12.1735 7.33035C12.1735 7.60368 12.0078 7.68213 11.8492 7.80966C11.6309 7.98523 10.6681 8.83706 10.4659 8.83706H10.466ZM4.33874 3.8817C4.33874 3.57645 4.46235 3.34599 4.80748 3.34599H9.6959C10.3264 3.34599 10.3264 4.2835 9.6959 4.2835H4.80748C4.6688 4.2835 4.5667 4.24107 4.4861 4.16963C4.42037 4.11136 4.33874 3.99274 4.33874 3.8817ZM0.0195312 2.81027V13.1897C0.0195312 14.1474 0.525712 14.8993 1.25799 15.266C1.48205 15.3782 1.79495 15.5 2.12891 15.5H12.3744C13.442 15.5 14.4838 14.495 14.4838 13.1897V2.81027C14.4838 1.87099 13.9862 1.10607 13.2678 0.745055C13.0365 0.628811 12.7381 0.5 12.4079 0.5H2.09542C1.45879 0.5 0.68544 1.00695 0.389187 1.50584C0.316908 1.62754 0.241673 1.7427 0.191183 1.87704C0.0916182 2.14173 0.0195312 2.45369 0.0195312 2.8103V2.81027Z" fill="#0F4C8D"/>
</svg>
