<svg width="22" height="22" viewBox="0 0 22 22" fill="none" xmlns="http://www.w3.org/2000/svg">
<path d="M21.1249 17.918L21.1501 17.8802V17.8348V6.55534C21.1501 6.07353 20.9587 5.61145 20.618 5.27076C20.2773 4.93007 19.8152 4.73867 19.3334 4.73867C18.8516 4.73867 18.3895 4.93007 18.0488 5.27076C17.7081 5.61145 17.5167 6.07353 17.5167 6.55534V17.8348V17.8802L17.5419 17.918L19.2086 20.418L19.3334 20.6052L19.4582 20.418L21.1249 17.918ZM19.0466 6.26857C19.1227 6.19251 19.2259 6.14978 19.3334 6.14978C19.441 6.14978 19.5441 6.19251 19.6202 6.26857C19.6962 6.34462 19.739 6.44778 19.739 6.55534V17.4527L19.3334 18.061L18.9279 17.4527V6.55534C18.9279 6.44778 18.9706 6.34462 19.0466 6.26857Z" fill="#0F4C8D" stroke="#0F4C8D" stroke-width="0.3"/>
<path d="M20.4444 8.92778H20.5944V8.77778V7.66667V7.51667H20.4444H18.2222H18.0722V7.66667V8.77778V8.92778H18.2222H20.4444ZM2.54261 2.54261C2.72286 2.36237 2.96732 2.26111 3.22222 2.26111H14.3333C14.5882 2.26111 14.8327 2.36237 15.0129 2.54261C15.1932 2.72286 15.2944 2.96732 15.2944 3.22222V18.7778C15.2944 19.0327 15.1932 19.2771 15.0129 19.4574C14.8327 19.6376 14.5882 19.7389 14.3333 19.7389H3.22222C2.96732 19.7389 2.72286 19.6376 2.54261 19.4574C2.36237 19.2771 2.26111 19.0327 2.26111 18.7778V3.22222C2.26111 2.96732 2.36237 2.72286 2.54261 2.54261ZM1.54481 1.54481C1.09993 1.98969 0.85 2.59307 0.85 3.22222V18.7778C0.85 19.4069 1.09993 20.0103 1.54481 20.4552C1.98969 20.9001 2.59307 21.15 3.22222 21.15H14.3333C14.9625 21.15 15.5659 20.9001 16.0107 20.4552C16.4556 20.0103 16.7056 19.4069 16.7056 18.7778V3.22222C16.7056 2.59307 16.4556 1.98969 16.0107 1.54481C15.5659 1.09993 14.9625 0.85 14.3333 0.85H3.22222C2.59307 0.85 1.98969 1.09993 1.54481 1.54481Z" fill="#0F4C8D" stroke="#0F4C8D" stroke-width="0.3"/>
<path d="M7.60991 5.50106L7.60988 5.50103C7.47756 5.36876 7.29814 5.29445 7.11105 5.29445C6.92396 5.29445 6.74453 5.36876 6.61222 5.50103L6.6122 5.50105L4.88883 7.22443L4.27743 6.61303C4.21254 6.5461 4.13502 6.4927 4.04937 6.4559C3.96329 6.41893 3.8707 6.39946 3.77702 6.39865C3.68334 6.39783 3.59043 6.41568 3.50372 6.45116C3.41701 6.48664 3.33823 6.53903 3.27198 6.60527C3.20574 6.67152 3.15335 6.7503 3.11787 6.83701C3.0824 6.92372 3.06454 7.01662 3.06536 7.11031C3.06617 7.20399 3.08564 7.29657 3.12261 7.38265C3.15941 7.46831 3.21282 7.54583 3.27974 7.61072L4.78276 9.11373L4.88883 9.2198L4.99489 9.11373L7.60989 6.49874L7.60991 6.49872C7.74218 6.36641 7.81648 6.18698 7.81648 5.99989C7.81648 5.8128 7.74218 5.63338 7.60991 5.50106ZM8.83437 5.50099C8.70205 5.63331 8.62771 5.81277 8.62771 5.99989C8.62771 6.18702 8.70205 6.36648 8.83437 6.49879C8.96668 6.63111 9.14614 6.70545 9.33327 6.70545H13.7777C13.9648 6.70545 14.1443 6.63111 14.2766 6.49879C14.4089 6.36648 14.4833 6.18702 14.4833 5.99989C14.4833 5.81277 14.4089 5.63331 14.2766 5.50099C14.1443 5.36867 13.9648 5.29434 13.7777 5.29434H9.33327C9.14614 5.29434 8.96668 5.36867 8.83437 5.50099ZM8.83437 7.72321C8.70205 7.85553 8.62771 8.03499 8.62771 8.22211C8.62771 8.40924 8.70205 8.5887 8.83437 8.72102C8.96668 8.85333 9.14615 8.92767 9.33327 8.92767H13.7777C13.9648 8.92767 14.1443 8.85333 14.2766 8.72102C14.4089 8.5887 14.4833 8.40924 14.4833 8.22211C14.4833 8.03499 14.4089 7.85553 14.2766 7.72321C14.1443 7.59089 13.9648 7.51656 13.7777 7.51656H9.33327C9.14615 7.51656 8.96668 7.59089 8.83437 7.72321ZM8.83437 12.7232C8.70205 12.8555 8.62771 13.035 8.62771 13.2221C8.62771 13.4092 8.70205 13.5887 8.83437 13.721C8.96668 13.8533 9.14614 13.9277 9.33327 13.9277H13.7777C13.9648 13.9277 14.1443 13.8533 14.2766 13.721C14.4089 13.5887 14.4833 13.4092 14.4833 13.2221C14.4833 13.035 14.4089 12.8555 14.2766 12.7232C14.1443 12.5909 13.9648 12.5166 13.7777 12.5166H9.33327C9.14615 12.5166 8.96668 12.5909 8.83437 12.7232ZM8.83437 14.9454C8.70205 15.0777 8.62771 15.2572 8.62771 15.4443C8.62771 15.6315 8.70205 15.8109 8.83437 15.9432C8.96668 16.0756 9.14614 16.1499 9.33327 16.1499H13.7777C13.9648 16.1499 14.1443 16.0756 14.2766 15.9432C14.4089 15.8109 14.4833 15.6315 14.4833 15.4443C14.4833 15.2572 14.4089 15.0777 14.2766 14.9454C14.1443 14.8131 13.9648 14.7388 13.7777 14.7388H9.33327C9.14614 14.7388 8.96668 14.8131 8.83437 14.9454ZM5.84994 14.7388H4.48327V13.3721H5.84994V14.7388ZM6.55549 11.961H3.77771C3.59059 11.961 3.41113 12.0353 3.27881 12.1677C3.14649 12.3 3.07216 12.4794 3.07216 12.6666V15.4443C3.07216 15.6315 3.14649 15.8109 3.27881 15.9432C3.41113 16.0756 3.59059 16.1499 3.77771 16.1499H6.55549C6.74262 16.1499 6.92208 16.0756 7.0544 15.9432C7.18671 15.8109 7.26105 15.6315 7.26105 15.4443V12.6666C7.26105 12.4794 7.18671 12.3 7.0544 12.1677C6.92208 12.0353 6.74262 11.961 6.55549 11.961Z" fill="#0F4C8D" stroke="#0F4C8D" stroke-width="0.3"/>
</svg>
