<?xml version="1.0" encoding="UTF-8"?>
<!DOCTYPE svg PUBLIC "-//W3C//DTD SVG 1.1//EN" "http://www.w3.org/Graphics/SVG/1.1/DTD/svg11.dtd">
<!-- Creator: CorelDRAW -->
<svg xmlns="http://www.w3.org/2000/svg" xml:space="preserve" width="8.5in" height="11in" version="1.1" style="shape-rendering:geometricPrecision; text-rendering:geometricPrecision; image-rendering:optimizeQuality; fill-rule:evenodd; clip-rule:evenodd"
viewBox="0 0 8500 11000"
 xmlns:xlink="http://www.w3.org/1999/xlink"
 xmlns:xodm="http://www.corel.com/coreldraw/odm/2003">
 <defs>
  <style type="text/css">
   <![CDATA[
    .fil0 {fill:#DF280E}
    .fil1 {fill:#FDDD02}
   ]]>
  </style>
 </defs>
 <g id="Layer_x0020_1">
  <metadata id="CorelCorpID_0Corel-Layer"/>
  <g id="_2480276504064">
   <polygon class="fil0" points="1124.73,7541.84 7375.27,7541.84 7375.27,3458.16 1124.73,3458.16 "/>
   <path class="fil1" d="M1893.89 4232.8l-440.41 3.48 351.42 274.31 -142 419.24 379.07 -241.23c28.12,-0.47 330,227.95 379.16,241.68l-138.83 -404.52 346.64 -288.45 -439.92 -1.77 -148.8 -434.97 -146.32 432.24z"/>
   <path class="fil1" d="M2983.22 3720.39l-127.22 -31.69 72.73 117.19c-19.15,31.86 -59.68,84.76 -83.37,115.65l137.34 -33.17 93.12 105.06 -1.67 -144.08 129.88 -44.8 -125.36 -55.86 -4.86 -132.21 -90.6 103.92z"/>
   <path class="fil1" d="M3373.07 4789.44l-134.98 8.5 104.23 85.34c-1.95,43.53 -30.91,94.74 -39.8,138.96l122.42 -72.12 115.2 73.12 -43.19 -141.78 107.11 -83.72 -129.19 -6.85 -53.01 -128.15 -48.78 126.69z"/>
   <polygon class="fil1" points="3007.44,5198.26 2873.5,5159.44 2945.33,5277.04 2858.54,5390.28 2998.36,5364.67 3081.84,5475.46 3088.26,5333.17 3215.63,5291.65 3097.81,5235.59 3097.5,5097.48 "/>
   <polygon class="fil1" points="3344.52,4182.81 3237.76,4261.33 3367.5,4282.92 3398.21,4415.8 3464.32,4296.97 3605.76,4298.17 3502.55,4199.89 3553.86,4075.76 3428.93,4127.21 3324.17,4049.56 "/>
  </g>
 </g>
</svg>
