<svg width="14" height="11" viewBox="0 0 14 11" fill="none" xmlns="http://www.w3.org/2000/svg">
<path d="M9.31 7.76875C9.18167 7.89479 9.01833 7.95781 8.82 7.95781C8.62167 7.95781 8.45833 7.89479 8.33 7.76875L7 6.4625L5.6525 7.78594C5.52417 7.91198 5.36667 7.975 5.18 7.975C4.99333 7.975 4.83 7.90625 4.69 7.76875C4.56167 7.64271 4.4975 7.48229 4.4975 7.2875C4.4975 7.09271 4.56167 6.93229 4.69 6.80625L6.02 5.5L4.6725 4.17656C4.54417 4.05052 4.48 3.89583 4.48 3.7125C4.48 3.52917 4.55 3.36875 4.69 3.23125C4.81833 3.10521 4.98167 3.04219 5.18 3.04219C5.37833 3.04219 5.54167 3.10521 5.67 3.23125L7 4.5375L8.3475 3.21406C8.47583 3.08802 8.63333 3.025 8.82 3.025C9.00667 3.025 9.17 3.09375 9.31 3.23125C9.43833 3.35729 9.5025 3.51771 9.5025 3.7125C9.5025 3.90729 9.43833 4.06771 9.31 4.19375L7.98 5.5L9.3275 6.82344C9.45583 6.94948 9.52 7.10417 9.52 7.2875C9.52 7.47083 9.45 7.63125 9.31 7.76875ZM12.6 11C12.985 11 13.3145 10.8655 13.5884 10.5964C13.8628 10.3269 14 10.0031 14 9.625V1.375C14 0.996875 13.8628 0.673292 13.5884 0.40425C13.3145 0.13475 12.985 0 12.6 0H1.4C1.015 0 0.6853 0.13475 0.4109 0.40425C0.136967 0.673292 0 0.996875 0 1.375V9.625C0 10.0031 0.136967 10.3269 0.4109 10.5964C0.6853 10.8655 1.015 11 1.4 11H12.6Z" fill="white"/>
</svg>
