<svg width="20" height="19" viewBox="0 0 20 19" fill="none" xmlns="http://www.w3.org/2000/svg">
<path d="M19.5456 17.7369L18.324 16.5212C18.2109 16.4063 18.0756 16.3149 17.9269 16.2524C17.7782 16.1895 17.618 16.1573 17.4564 16.1564H8.55125C8.22714 16.1564 7.91641 16.0282 7.6874 15.8003C7.45839 15.5724 7.32959 15.2632 7.32959 14.9406V8.50984C7.32959 8.18729 7.45839 7.87806 7.6874 7.65015C7.91641 7.42225 8.22714 7.29407 8.55125 7.29407H18.324C18.6481 7.29407 18.9588 7.42225 19.1878 7.65015C19.4168 7.87806 19.5456 8.18729 19.5456 8.50984V17.7369Z" fill="#0F4C8D"/>
<path d="M4.88656 8.50983V10.8076H2.57763C2.41697 10.8062 2.25768 10.837 2.10856 10.8977C1.95989 10.9583 1.82464 11.0475 1.71011 11.1601L0 12.8739V1.21577C0 0.893223 0.128804 0.583991 0.357813 0.356087C0.586821 0.128182 0.897551 0 1.22166 0H13.4377C13.7613 0 14.072 0.128182 14.301 0.356087C14.53 0.583991 14.6588 0.893223 14.6588 1.21577V4.8626H8.55105C7.57921 4.8626 6.64702 5.24719 5.96004 5.93086C5.27257 6.61502 4.8866 7.54267 4.8866 8.50987L4.88656 8.50983Z" fill="#0F4C8D"/>
<path d="M20.0001 18.1255L18.6875 16.8193C18.566 16.6959 18.4207 16.5976 18.2609 16.5305C18.1012 16.4629 17.9291 16.4283 17.7555 16.4273H8.18756C7.83932 16.4273 7.5055 16.2896 7.25944 16.0447C7.01338 15.7998 6.875 15.4676 6.875 15.1211V8.21175C6.875 7.86519 7.01343 7.53298 7.25944 7.28811C7.5055 7.04328 7.83932 6.90552 8.18756 6.90552H18.6875C19.0358 6.90552 19.3696 7.04328 19.6157 7.28811C19.8617 7.53298 20.0001 7.86519 20.0001 8.21175V18.1255L20.0001 18.1255Z" fill="#0F4C8D"/>
<path d="M4.88656 8.50983V10.8076H2.57763C2.41697 10.8062 2.25768 10.837 2.10856 10.8977C1.95989 10.9583 1.82464 11.0475 1.71011 11.1601L0 12.8739V1.21577C0 0.893223 0.128804 0.583991 0.357813 0.356087C0.586821 0.128182 0.897551 0 1.22166 0H13.4377C13.7613 0 14.072 0.128182 14.301 0.356087C14.53 0.583991 14.6588 0.893223 14.6588 1.21577V4.8626H8.55105C7.57921 4.8626 6.64702 5.24719 5.96004 5.93086C5.27257 6.61502 4.8866 7.54267 4.8866 8.50987L4.88656 8.50983Z" fill="#0F4C8D"/>
</svg>
