<svg width="20" height="21" viewBox="0 0 20 21" fill="none" xmlns="http://www.w3.org/2000/svg">
<path d="M17 6.49988H16V3.49988C16 2.70423 15.6839 1.94117 15.1213 1.37856C14.5587 0.815949 13.7956 0.499878 13 0.499878H3C2.20435 0.499878 1.44129 0.815949 0.87868 1.37856C0.316071 1.94117 0 2.70423 0 3.49988V15.4999C0.000985482 15.6973 0.0603878 15.89 0.170721 16.0537C0.281054 16.2175 0.437381 16.3449 0.62 16.4199C0.738679 16.4759 0.868823 16.5033 1 16.4999C1.13161 16.5006 1.26207 16.4754 1.38391 16.4256C1.50574 16.3759 1.61656 16.3026 1.71 16.2099L4.52 13.3899H6V14.8299C6 15.6255 6.31607 16.3886 6.87868 16.9512C7.44129 17.5138 8.20435 17.8299 9 17.8299H15.92L18.29 20.2099C18.3834 20.3026 18.4943 20.3759 18.6161 20.4256C18.7379 20.4754 18.8684 20.5006 19 20.4999C19.1312 20.5033 19.2613 20.4759 19.38 20.4199C19.5626 20.3449 19.7189 20.2175 19.8293 20.0537C19.9396 19.89 19.999 19.6973 20 19.4999V9.49988C20 8.70423 19.6839 7.94117 19.1213 7.37856C18.5587 6.81595 17.7956 6.49988 17 6.49988ZM6 9.49988V11.3899H4.11C3.97839 11.3891 3.84793 11.4143 3.72609 11.4641C3.60426 11.5139 3.49344 11.5872 3.4 11.6799L2 13.0899V3.49988C2 3.23466 2.10536 2.98031 2.29289 2.79277C2.48043 2.60523 2.73478 2.49988 3 2.49988H13C13.2652 2.49988 13.5196 2.60523 13.7071 2.79277C13.8946 2.98031 14 3.23466 14 3.49988V6.49988H9C8.20435 6.49988 7.44129 6.81595 6.87868 7.37856C6.31607 7.94117 6 8.70423 6 9.49988ZM18 17.0899L17 16.0899C16.9074 15.9954 16.7969 15.9202 16.6751 15.8687C16.5532 15.8172 16.4223 15.7904 16.29 15.7899H9C8.73478 15.7899 8.48043 15.6845 8.29289 15.497C8.10536 15.3094 8 15.0551 8 14.7899V9.49988C8 9.23466 8.10536 8.98031 8.29289 8.79277C8.48043 8.60524 8.73478 8.49988 9 8.49988H17C17.2652 8.49988 17.5196 8.60524 17.7071 8.79277C17.8946 8.98031 18 9.23466 18 9.49988V17.0899Z" fill="#9DB6D0"/>
</svg>
