<svg width="18" height="18" viewBox="0 0 18 18" fill="none" xmlns="http://www.w3.org/2000/svg">
<path fill-rule="evenodd" clip-rule="evenodd" d="M9.48526 4.90091C9.53055 5.09539 9.59795 5.29742 9.64598 5.50362L3.41797 7.15103C3.4243 7.43516 4.31121 10.3154 4.34211 10.6869L9.82321 9.25695C9.98543 9.21621 10.0451 9.19113 10.1999 9.15151C10.3075 9.12393 10.5114 9.08701 10.6103 9.03956C10.6523 9.12709 10.7609 9.52106 10.771 9.64227C11.7963 9.40339 16.9654 7.97753 17.2401 7.9547L15.9543 3.21338L10.3242 4.69525C10.1217 4.75539 9.69011 4.8839 9.48518 4.90095L9.48526 4.90091Z" fill="white"/>
<path fill-rule="evenodd" clip-rule="evenodd" d="M8.35547 15.3478V17.4372C8.35547 17.6881 8.6671 17.9997 8.91798 17.9997H17.4363C17.6872 17.9997 17.9988 17.688 17.9988 17.4372V15.3076C17.9988 14.7767 17.4394 14.1423 16.7934 14.1423H9.56089C8.94082 14.1423 8.35547 14.7277 8.35547 15.3478Z" fill="white"/>
<path fill-rule="evenodd" clip-rule="evenodd" d="M11.1328 10.8476C11.1366 11.0186 11.3751 11.8101 11.4373 12.0298C11.5399 12.3928 11.5874 12.8566 12.1775 12.8566C12.4564 12.8566 14.9111 12.1632 15.2549 12.0767L17.5444 11.4732C18.2578 11.2306 17.9611 10.5167 17.8076 9.99904L17.6019 9.16003C17.3095 9.18438 11.4255 10.8233 11.1329 10.8476L11.1328 10.8476Z" fill="white"/>
<path fill-rule="evenodd" clip-rule="evenodd" d="M8.71875 1.96768C8.71875 2.13815 9.08204 3.53149 9.16074 3.69545L12.3749 2.85135C12.9184 2.70745 13.4443 2.56317 13.9983 2.42549L15.2111 2.11142C15.3564 2.07002 15.4758 2.02064 15.6298 2.00784L15.3001 0.810711C14.9733 -0.391506 14.5469 -0.00340757 13.0346 0.376975L9.90993 1.19001C9.53565 1.29938 8.71875 1.35679 8.71875 1.96768Z" fill="white"/>
<path fill-rule="evenodd" clip-rule="evenodd" d="M0 8.47691C0 8.85232 0.297555 9.78349 0.410088 10.1964C0.515175 10.582 0.630061 11.4905 1.20542 11.4905L3.13411 11.0083C3.06733 10.7216 2.96991 10.4164 2.89326 10.1241C2.67309 9.28498 2.35528 8.26863 2.16976 7.47241C2.06907 7.52071 1.71778 7.60516 1.57562 7.64169C1.373 7.69377 1.15901 7.74358 0.93838 7.80808C0.7316 7.86853 0.470116 7.90268 0.320895 7.99422C0.19212 8.07323 0 8.27284 0 8.47695V8.47691Z" fill="white"/>
</svg>
