<svg width="267" height="268" viewBox="0 0 267 268" fill="none" xmlns="http://www.w3.org/2000/svg">
<path fill-rule="evenodd" clip-rule="evenodd" d="M0 35.617V255.391C0 256.296 0.508385 258.252 0.823333 258.926L1.25761 259.945C1.73821 260.871 2.27002 261.803 2.98166 262.58L3.67858 263.336C4.60653 264.329 5.9061 265.266 7.19532 265.813C7.23619 265.831 7.28577 265.846 7.32773 265.862L8.59842 266.408C8.88177 266.491 8.94497 266.454 9.22886 266.504C10.0811 266.653 10.4876 267.015 11.6242 267.015H231.398L236.454 265.351L238.846 263.565C238.942 263.478 238.971 263.459 239.133 263.308L240.679 261.402C241.652 259.859 241.818 259.042 242.404 257.496C242.584 257.018 242.66 256.892 242.66 256.299V132.063C242.66 130.745 241.871 128.753 241.245 127.666C240.215 125.876 238.821 124.229 237.064 123.128L235.164 122.123C232.569 121.148 230.469 121.087 227.709 121.471C226.908 121.583 227.132 121.486 226.518 121.733L225.498 122.166C224.304 122.737 223.343 123.263 222.39 124.144C222.214 124.308 222.08 124.416 221.902 124.564L218.94 128.868C218.697 129.423 218.651 129.214 218.527 129.908C218.362 130.828 217.957 131.438 217.957 132.426V242.313H24.7017V49.0573H134.225L138.023 48.1327C138.061 48.1147 138.107 48.0918 138.146 48.0744L140.947 46.5165C140.977 46.4931 141.018 46.4593 141.048 46.4359L143.953 43.1654C144.123 42.8788 144.105 42.9365 144.232 42.7175L145.19 40.5881C146.069 38.5066 146.145 35.0558 145.277 32.9198L143.886 29.9512C143.597 29.4908 143.889 29.9054 143.597 29.5142L143.184 29.0189C142.529 28.2506 141.952 27.5117 141.093 26.9325C139.754 26.0291 138.56 25.3125 137.011 24.839C136.361 24.6401 135.821 24.3557 134.952 24.3557C123.227 24.3557 11.2172 24.0811 9.76177 24.4908C4.55204 25.9577 2.5076 28.8156 0.925228 32.1825L0 35.617ZM159.654 121.165H146.576C146.151 121.165 145.85 120.864 145.85 120.439V107.361C145.85 105.837 146.91 105.302 147.712 104.501L220.909 31.3031C221.749 30.4601 221.932 30.5484 222.135 29.9866H222.499C222.722 30.6029 223.741 31.3205 224.269 31.8485C224.92 32.498 225.436 33.0151 226.086 33.6646L236.509 44.1288C237.004 44.6121 236.35 44.2715 237.029 44.5173C236.8 45.3755 235.445 46.3732 234.804 47.0145L162.606 119.213C161.785 120.034 161.211 121.165 159.654 121.165H159.654ZM121.148 101.549C121.148 107.745 120.832 131.458 121.38 135.827C121.404 136.023 121.426 136.194 121.475 136.458L122.487 139.079C122.506 139.116 122.526 139.165 122.544 139.203L124.219 141.706C125.129 142.664 126.228 143.707 127.429 144.308L128.796 144.938C128.842 144.954 128.893 144.961 128.94 144.975L130.896 145.562C131.772 145.681 132.723 145.866 133.861 145.866C139.844 145.866 164.217 146.199 168.272 145.585C169.432 145.41 170.577 144.979 171.609 144.382C171.861 144.237 171.793 144.269 172.06 144.106C173.376 143.303 174.48 142.337 175.561 141.25L180.828 135.983C180.854 135.956 180.893 135.918 180.919 135.892L190.545 126.265C190.679 126.131 190.775 126.035 190.909 125.901L191.273 125.539C191.3 125.512 191.338 125.475 191.364 125.449L193.906 122.905C193.932 122.878 193.971 122.84 193.997 122.814C194.023 122.787 194.062 122.749 194.088 122.723L195.997 120.818C196.023 120.791 196.062 120.753 196.088 120.727C196.114 120.7 196.152 120.662 196.178 120.635L200.082 116.729C200.108 116.703 200.146 116.664 200.173 116.638L204.532 112.279C204.558 112.252 204.597 112.214 204.623 112.188L205.17 111.645C205.541 111.267 205.62 111.137 205.952 110.792L209.711 107.104C209.737 107.077 209.775 107.039 209.801 107.012L212.07 104.741C212.097 104.714 212.135 104.676 212.161 104.65C212.188 104.623 212.226 104.585 212.252 104.559L213.797 103.015C213.935 102.877 214.017 102.799 214.162 102.654L214.343 102.471C214.484 102.324 214.434 102.377 214.605 102.188L221.243 95.5678C221.414 95.3973 221.495 95.3161 221.697 95.1139L223.243 93.5719C223.269 93.5452 223.308 93.5076 223.334 93.4809L230.325 86.4861C230.458 86.3531 230.555 86.2561 230.688 86.1226L234.866 81.9449C234.892 81.9188 234.931 81.8806 234.957 81.8539C235.129 81.6812 235.148 81.6632 235.32 81.4905L236.319 80.4917C236.345 80.4655 236.384 80.4274 236.41 80.4007C236.436 80.3745 236.475 80.3364 236.501 80.3097C236.527 80.2836 236.566 80.2454 236.592 80.2192L237.394 79.3861C237.546 79.2161 237.553 79.1965 237.739 79.0047L253.211 63.5995C253.248 63.5619 253.355 63.4551 253.392 63.418L260.182 56.5856C260.417 56.3251 260.272 56.4695 260.533 56.2091L261.477 55.3372C261.504 55.3111 261.541 55.2724 261.568 55.2462L263.113 53.7036C263.139 53.6769 263.178 53.6394 263.204 53.6127C264.193 52.5828 265.058 51.3731 265.699 50.1139L266.404 48.458C266.938 46.098 267 46.2751 267 43.6046C267 42.7469 266.24 40.3701 265.764 39.392L265.49 38.9387C265.47 38.9043 265.441 38.8607 265.421 38.8259L255.723 28.3628C255.696 28.3367 255.658 28.2991 255.631 28.2724L253.666 26.2416C253.64 26.2154 253.602 26.1767 253.576 26.15L249.306 21.8835C249.123 21.6988 249.144 21.7135 248.944 21.5184C248.707 21.2852 248.819 21.392 248.57 21.1664C248.364 20.9801 248.417 21.0395 248.186 20.8231L246.823 19.462C246.685 19.3241 246.602 19.2457 246.458 19.1002C246.432 19.074 246.393 19.0364 246.367 19.0097C246.341 18.983 246.303 18.9449 246.277 18.9182L240.77 13.3456C240.743 13.3194 240.705 13.2818 240.678 13.2551L239.677 12.258C239.332 11.9337 239.274 11.9109 238.919 11.5627L237.832 10.4707C237.806 10.4446 237.768 10.4064 237.741 10.3803C237.703 10.3427 237.596 10.2364 237.559 10.1988C237.463 10.1035 237.424 10.0697 237.285 9.92799L235.955 8.53307C235.929 8.50692 235.891 8.46878 235.864 8.44208L233.473 6.11102C233.447 6.08487 233.408 6.04672 233.382 6.02002L232.837 5.47512C232.811 5.44897 232.772 5.41083 232.746 5.38413L232.11 4.74879C230.852 3.42742 229.532 2.38286 227.934 1.47725L223.043 0.0109283C222.04 0.0109283 220.943 -0.0811459 220.032 0.269221L217.67 0.994464C216.431 1.53936 215.302 2.16871 214.254 3.02746C214.163 3.10157 213.86 3.38491 213.779 3.46011L212.676 4.53682C212.65 4.56297 212.611 4.60112 212.585 4.62728C212.4 4.81091 212.415 4.78965 212.22 4.98908C211.855 5.36124 211.763 5.49965 211.436 5.83967L210.89 6.38347C210.863 6.40962 210.825 6.44776 210.799 6.47446L201.083 16.1926C201.055 16.2183 201.017 16.2558 200.99 16.2815L198.871 18.3401C198.845 18.3662 198.806 18.4038 198.779 18.4305C198.753 18.4567 198.714 18.4943 198.688 18.5204L197.723 19.5535C197.506 19.7748 197.448 19.826 197.267 20.0058C197.241 20.032 197.203 20.0701 197.176 20.0968L192.817 24.4559C192.79 24.4821 192.752 24.5202 192.726 24.5469C192.699 24.5731 192.661 24.6112 192.635 24.6379C192.609 24.6641 192.571 24.7022 192.544 24.7289C192.407 24.8663 192.327 24.9502 192.182 25.094L189.88 27.3319C189.842 27.3689 189.734 27.4752 189.697 27.5123L187.822 29.4515C187.796 29.4777 187.758 29.5164 187.732 29.5431C187.705 29.5692 187.668 29.6079 187.642 29.6346L182.919 34.3561C182.892 34.3823 182.853 34.4193 182.826 34.4449C182.799 34.4705 182.759 34.507 182.732 34.5321C182.523 34.7245 182.503 34.7261 182.253 34.9615L178.831 38.4417C178.579 38.6777 178.562 38.676 178.351 38.8695L173.351 43.8585C173.325 43.8847 173.287 43.9234 173.26 43.9501C173.223 43.9877 173.116 44.095 173.079 44.1321L172.898 44.3135C172.872 44.3396 172.834 44.3783 172.807 44.4045L161.486 55.7879C161.46 55.8146 161.423 55.8527 161.396 55.8794L160.849 56.4221C160.823 56.4483 160.785 56.487 160.758 56.5131L160.306 56.9692C159.934 57.3343 159.795 57.4264 159.455 57.7533L155.007 62.2051C154.98 62.2307 154.942 62.2677 154.915 62.2939L139.657 77.5504C139.631 77.5765 139.592 77.6141 139.566 77.6408L135.025 82.1814C134.66 82.5536 134.568 82.692 134.241 83.032L133.514 83.7573C133.377 83.8946 133.297 83.9785 133.152 84.1223C133.126 84.1485 133.089 84.1872 133.061 84.2133C133.035 84.2395 132.997 84.2776 132.97 84.3032L131.667 85.5434C131.641 85.5696 131.603 85.6077 131.576 85.6344L124.794 92.4745C124.757 92.5121 124.649 92.6183 124.612 92.6559L123.022 94.6982C123 94.7314 122.971 94.7755 122.95 94.8088L121.81 97.3006C121.518 98.0078 121.597 97.6613 121.453 98.5784C121.316 99.4491 121.148 100.408 121.148 101.543V101.549Z" fill="#9DB6D0"/>
</svg>
