<svg width="530" height="548" viewBox="0 0 530 548" fill="none" xmlns="http://www.w3.org/2000/svg">
<path d="M0 548H530V0H0V548Z" fill="#F1F5FA"/>
<path d="M453.488 362.489C447.101 347.468 434.836 334.932 420.099 328.765C404.755 322.34 387.132 324.677 370.965 322.527C356.927 320.655 346.798 314.175 338.413 302.653C330.381 291.614 323.181 279.388 310.048 274.28C299.67 270.247 287.873 271.365 277.558 275.571C258.553 283.317 244.199 299.79 232.111 316.203C221.074 331.188 212.071 347.595 191.655 348.129C182.417 348.373 173.378 346.041 164.346 343.709C153.407 340.884 142.477 338.059 131.211 339.81C104.026 344.03 81.3873 367.429 76.6432 395.284C72.1976 421.391 83.3535 446.713 102.521 461.593H431.974C456.126 435.1 468.803 398.504 453.488 362.49V362.489Z" fill="#F3F6FA"/>
<path d="M155.666 461.592H156.572C162.866 454.437 167.797 445.757 170.931 436.123C176.003 420.53 175.789 404.164 170.328 390.042C167.569 382.907 163.583 376.255 159.729 369.82C155.82 363.3 151.778 356.554 149.035 349.323C147.902 346.337 147.064 343.125 146.559 339.851C146.333 339.82 146.104 339.796 145.877 339.769C146.384 343.158 147.245 346.482 148.419 349.575C151.184 356.86 155.241 363.633 159.166 370.182C163.005 376.591 166.975 383.216 169.713 390.296C175.116 404.267 175.325 420.466 170.302 435.906C167.129 445.657 162.096 454.42 155.666 461.591V461.592Z" fill="white"/>
<path d="M430.38 431.883C437.172 433.379 443.712 434.721 450.037 435.566C450.146 435.349 450.251 435.13 450.359 434.913C443.982 434.075 437.378 432.724 430.521 431.214C420.08 428.913 408.78 426.425 397.572 426.425C390.632 426.425 383.727 427.379 377.088 429.923C374.569 430.888 372.145 432.11 369.837 433.568C363.839 430.924 357.811 428.039 351.841 424.873C356.174 421.497 360.552 418.191 364.978 414.996C397.833 391.276 428.151 377.828 457.448 374.011C457.386 373.789 457.325 373.567 457.267 373.345C427.895 377.192 397.508 390.676 364.599 414.434C360.08 417.698 355.609 421.076 351.187 424.523C344.469 420.936 337.836 416.993 331.412 412.642C319.766 404.75 305.908 393.486 293.809 378.521C340.701 373.079 388.439 366.226 427.426 339.287C428.907 338.262 430.548 337.056 432.245 335.688C432.057 335.548 431.869 335.414 431.678 335.278C430.053 336.581 428.481 337.732 427.057 338.717C388.083 365.65 340.253 372.452 293.304 377.891C284.752 367.197 277.111 354.634 271.801 340.093C263.532 317.442 263.969 295.214 273.002 279.108C273.394 278.41 273.808 277.719 274.234 277.037C273.858 277.218 273.484 277.403 273.111 277.588C272.878 277.977 272.65 278.369 272.427 278.763C263.295 295.05 262.842 317.49 271.182 340.337C276.463 354.799 284.034 367.309 292.516 377.979C289.798 378.294 287.079 378.606 284.37 378.914C274.592 380.029 264.481 381.185 254.664 382.492C251.08 382.969 247.437 383.526 243.811 384.221C236.039 367.257 227.499 350.711 216.462 336.518C216.305 336.682 216.143 336.838 215.984 337C226.928 351.084 235.412 367.51 243.138 384.353C227.323 387.471 211.965 393.335 203.766 406.98C196.108 419.723 196.114 437.339 203.787 459.336C204.051 460.098 204.326 460.848 204.602 461.594H205.312C205.009 460.778 204.707 459.956 204.409 459.103C196.81 437.314 196.783 419.899 204.329 407.341C212.432 393.858 227.704 388.074 243.432 384.991C246.176 390.995 248.827 397.044 251.462 403.059L251.749 403.714C260.898 424.598 270.361 444.75 282.753 461.593H283.579C271.074 444.719 261.559 424.445 252.352 403.431L252.065 402.777C249.453 396.814 246.824 390.813 244.104 384.863C247.661 384.183 251.234 383.638 254.749 383.172C264.561 381.866 274.667 380.712 284.442 379.597C287.296 379.271 290.158 378.945 293.02 378.613C305.236 393.814 319.268 405.235 331.05 413.216C337.403 417.521 343.963 421.425 350.602 424.984C339.332 433.796 328.369 443.068 317.668 452.124C313.96 455.259 310.211 458.426 306.431 461.594H307.484C311.048 458.602 314.585 455.613 318.086 452.653C328.864 443.537 339.904 434.196 351.254 425.332C357.193 428.491 363.187 431.371 369.152 434.01C360.992 439.375 354.341 447.686 350.321 457.774C349.817 459.037 349.378 460.311 348.97 461.594H349.669C350.053 460.399 350.463 459.213 350.933 458.035C354.966 447.919 361.669 439.616 369.892 434.337C386.569 441.66 402.953 447.096 417.036 451.404L417.563 451.565C423.499 453.382 429.564 455.239 434.933 458.227C435.085 458.049 435.233 457.873 435.381 457.695C429.93 454.634 423.77 452.749 417.751 450.911L417.22 450.749C403.285 446.483 387.085 441.112 370.589 433.898C372.739 432.578 374.99 431.46 377.32 430.567C394.506 423.982 413.567 428.18 430.381 431.885L430.38 431.883Z" fill="white"/>
<path d="M104.182 387.514C107.109 399.895 105.803 413.27 100.6 424.208C97.1927 431.371 92.2712 437.853 86.2109 443.424C86.331 443.619 86.4553 443.811 86.5764 444.002C92.7354 438.36 97.7355 431.782 101.194 424.509C106.464 413.432 107.788 399.888 104.825 387.349C102.51 377.553 97.8577 369.257 91.4278 363.253C91.2844 363.426 91.142 363.602 91.0007 363.776C97.3234 369.689 101.902 377.86 104.181 387.513L104.182 387.514Z" fill="white"/>
<path d="M254.123 230.631C259.894 236.729 262.481 247.002 259.298 256.473C256.218 265.645 249.463 273.241 241.348 278.125C234.819 282.054 226.301 284.221 219.88 280.106C215.081 277.032 212.594 271 212.454 265.165C212.316 259.329 214.213 253.642 216.559 248.332C219.866 240.848 224.316 233.591 230.945 229.04C240.084 222.766 248.574 224.771 254.122 230.631H254.123Z" fill="#F9CD34" fill-opacity="0.588235"/>
<path d="M449.539 168.349C446.443 157.711 440.999 147.942 433.21 139.01C425.403 130.083 414.756 122.708 401.266 116.877C387.779 111.046 370.64 108.132 349.852 108.132C333.271 108.132 316.372 110.444 299.155 115.069C281.918 119.709 266.972 126.31 254.293 134.89L270.796 181.738L261.951 189.147L274.779 193.045C287.441 186.192 298.978 181.216 309.388 178.117C319.781 175.034 330.826 173.494 342.537 173.494C354.231 173.494 363.084 176.409 369.1 182.239C375.111 188.087 378.114 195.106 378.114 203.349C378.114 213.301 375.022 222.131 368.862 229.855C362.673 237.578 355.851 245.386 348.378 253.277C343.187 258.757 338.141 264.419 333.271 270.25C328.4 276.097 324.083 282.347 320.355 289.049C316.607 295.732 313.61 302.939 311.339 310.662C309.055 318.387 307.929 327.047 307.929 336.648C307.929 339.748 307.993 343.433 308.167 347.723C308.197 348.512 308.236 349.285 308.281 350.046H296.154L309.388 359.299H373.732C373.403 357.239 373.244 354.841 373.244 352.095C373.244 349.347 373.244 347.287 373.244 345.912C373.244 340.08 374.386 334.335 376.655 328.672C378.924 323.009 381.778 317.613 385.192 312.454C388.603 307.31 392.411 302.417 396.649 297.795C400.868 293.154 404.933 288.781 408.835 284.66C414.023 279.18 419.388 273.349 424.913 267.168C430.433 260.985 435.321 254.484 439.541 247.615C443.765 240.746 447.255 233.29 450.014 225.214C452.774 217.155 454.173 208.326 454.173 198.709C454.173 189.108 452.616 178.989 449.542 168.35L449.539 168.349Z" fill="#E49B31"/>
<path d="M328.911 170.224C317.339 170.224 306.424 171.715 296.152 174.699C285.865 177.698 274.461 182.515 261.949 189.146L241.703 132.865C254.233 124.561 269.006 118.173 286.037 113.683C303.052 109.209 319.754 106.97 336.141 106.97C356.687 106.97 373.621 109.791 386.953 115.435C400.28 121.075 410.805 128.21 418.521 136.854C426.221 145.495 431.6 154.949 434.656 165.244C437.699 175.542 439.238 185.336 439.238 194.627C439.238 203.935 437.854 212.48 435.13 220.279C432.399 228.095 428.949 235.31 424.779 241.958C420.607 248.607 415.775 254.898 410.321 260.882C404.862 266.864 399.562 272.508 394.431 277.81C390.573 281.799 386.559 286.03 382.39 290.523C378.203 294.998 374.438 299.733 371.064 304.71C367.694 309.702 364.871 314.925 362.632 320.405C360.386 325.884 359.257 331.447 359.257 337.088C359.257 338.421 359.257 340.415 359.257 343.072C359.257 345.732 359.414 348.051 359.745 350.046H296.153C295.493 346.722 295.101 342.993 294.945 338.843C294.773 334.691 294.709 331.123 294.709 328.124C294.709 318.833 295.825 310.45 298.083 302.974C300.326 295.498 303.288 288.528 306.99 282.057C310.676 275.571 314.94 269.524 319.756 263.865C324.571 258.222 329.558 252.741 334.686 247.439C342.072 239.802 348.816 232.246 354.932 224.77C361.016 217.295 364.075 208.75 364.075 199.118C364.075 191.141 361.108 184.347 355.166 178.688C349.223 173.045 340.472 170.224 328.912 170.224H328.911Z" fill="#F9CD34"/>
<path d="M378.136 423.879C378.136 435.875 374.382 445.131 366.872 451.659C359.36 458.202 350.872 461.46 341.393 461.46C331.901 461.46 323.413 458.202 315.903 451.659C308.404 445.131 304.648 435.874 304.648 423.879C304.648 411.899 308.404 402.643 315.903 396.1C327.465 386.012 344.569 383.763 358.107 390.843C370.117 397.128 378.137 409.886 378.137 423.879H378.136Z" fill="#E49B31"/>
<path d="M365.55 423.879C365.55 435.875 361.795 445.131 354.285 451.66C346.773 458.203 338.284 461.46 328.806 461.46C319.313 461.46 310.826 458.203 303.315 451.66C295.816 445.131 292.061 435.874 292.061 423.879C292.061 411.9 295.816 402.644 303.315 396.101C310.826 389.572 319.313 386.3 328.806 386.3C338.284 386.3 346.773 389.572 354.285 396.101C361.795 402.644 365.55 411.9 365.55 423.879Z" fill="#F9CD34"/>
<path d="M173.962 248.463C176.124 251.729 175.316 256.188 172.156 258.423C168.998 260.657 164.685 259.821 162.524 256.556C160.363 253.29 161.17 248.831 164.33 246.597C167.488 244.362 171.801 245.198 173.962 248.464V248.463Z" fill="#9DB6D0"/>
<path d="M178.366 267.288C177.969 269.476 175.92 270.914 173.789 270.501C171.658 270.088 170.252 267.981 170.649 265.793C171.045 263.605 173.095 262.166 175.225 262.579C177.356 262.992 178.762 265.101 178.366 267.288Z" fill="#9DB6D0"/>
<path d="M177.961 221.63C175.185 236.944 160.927 247.032 146.117 244.162C131.306 241.292 121.549 226.55 124.326 211.236C127.101 195.922 141.359 185.834 156.17 188.705C170.982 191.575 180.738 206.317 177.961 221.631V221.63Z" fill="#9DB6D0"/>
<path d="M144.104 216.434C144.104 218.397 142.564 219.988 140.666 219.988C138.768 219.988 137.229 218.397 137.229 216.434C137.229 214.47 138.768 212.878 140.666 212.878C142.564 212.878 144.104 214.47 144.104 216.434Z" fill="white"/>
<path d="M154.581 216.434C154.581 218.397 153.042 219.988 151.144 219.988C149.244 219.988 147.705 218.397 147.705 216.434C147.705 214.47 149.244 212.878 151.144 212.878C153.042 212.878 154.581 214.47 154.581 216.434Z" fill="white"/>
<path d="M165.058 216.434C165.058 218.397 163.519 219.988 161.619 219.988C159.721 219.988 158.182 218.397 158.182 216.434C158.182 214.47 159.721 212.878 161.619 212.878C163.517 212.878 165.058 214.47 165.058 216.434Z" fill="white"/>
<path d="M131.598 447.338L134.147 457.5C134.812 460.15 137.291 461.942 140.032 461.748C148.391 461.161 165.76 459.043 175.727 451.447L172.893 436.802C159.187 435.999 146.371 436.788 135.272 440.652C132.493 441.619 130.886 444.499 131.598 447.337V447.338Z" fill="#102048"/>
<path d="M147.572 455.427C147.426 455.427 147.293 455.328 147.253 455.177L143.83 442.505C143.782 442.321 143.885 442.132 144.061 442.083C144.238 442.031 144.42 442.138 144.469 442.321L147.892 454.994C147.94 455.175 147.837 455.364 147.661 455.416C147.631 455.423 147.602 455.427 147.573 455.427H147.572Z" fill="white"/>
<path d="M154.968 453.715C154.824 453.715 154.691 453.616 154.65 453.465L151.227 440.793C151.178 440.609 151.281 440.42 151.458 440.371C151.635 440.318 151.817 440.426 151.866 440.609L155.289 453.282C155.338 453.463 155.235 453.652 155.059 453.704C155.029 453.711 154.999 453.715 154.969 453.715H154.968Z" fill="white"/>
<path d="M163.561 392.407L131.707 402.183L155.364 435.696L189.325 438.488L236.169 418.009L218.368 390.313L163.561 392.407Z" fill="#F9CD34"/>
<path d="M202.833 397.063C272.786 375.652 284.03 439.577 174.882 451.214C171.026 446.728 166.522 438.944 164.732 432.44L222.371 404.9L202.833 397.063Z" fill="#F9CD34"/>
<path d="M205.803 442.875C202.531 441.793 199.396 439.654 199.396 439.654L188.154 443.3L190.731 455.946L202.41 458.398C205.968 451.672 206.176 446.145 205.803 442.876V442.875Z" fill="#F9B384"/>
<path d="M164.982 432.882L164.482 431.994C176.506 424.768 207.308 407.408 233.549 402.29L233.733 403.301C207.642 408.389 176.962 425.683 164.982 432.882Z" fill="#E49B31"/>
<path d="M163.562 392.407C98.4493 379.609 81.5847 444.308 190.732 455.944C194.587 451.46 197.609 446.157 199.398 439.652C182.632 428.054 163.886 417.028 143.342 406.525L163.563 392.406L163.562 392.407Z" fill="#F9CD34"/>
<path d="M199.131 440.086C196.033 438.048 192.806 435.894 189.389 433.612C172.236 422.161 152.795 409.184 136.277 401.784L136.673 400.841C153.265 408.275 172.743 421.276 189.927 432.748C193.343 435.031 196.57 437.185 199.664 439.221L199.131 440.086Z" fill="#E49B31"/>
<path d="M115.788 424.487L114.918 423.991C117.362 419.415 121.277 416.33 126.554 414.82L126.82 415.808C121.74 417.264 118.131 420.102 115.788 424.486V424.487Z" fill="#E49B31"/>
<path d="M251.689 420.594C249.347 416.21 245.738 413.371 240.658 411.913L240.924 410.925C246.201 412.437 250.116 415.522 252.56 420.098L251.69 420.595L251.689 420.594Z" fill="#E49B31"/>
<path d="M184.634 455.377L183.908 454.675C189.117 448.908 192.316 442.816 193.689 436.061L194.661 436.271C193.25 443.217 189.971 449.467 184.634 455.377Z" fill="#E49B31"/>
<path d="M238.279 439.11C229.936 433.78 213.764 442.989 209.704 443.453C208.52 443.59 207.151 443.321 205.805 442.874C206.177 446.142 205.97 451.669 202.412 458.396L204.395 458.813C204.395 458.813 218.11 464.014 232.658 460.985C246.086 458.193 244.837 443.299 238.28 439.11H238.279Z" fill="#102048"/>
<path d="M226.907 456.542C226.874 456.542 226.84 456.536 226.807 456.525C226.632 456.468 226.536 456.276 226.591 456.096C227.582 452.851 228.014 446.467 225.143 442.18C225.039 442.024 225.076 441.813 225.228 441.703C225.378 441.596 225.584 441.634 225.689 441.791C228.695 446.279 228.253 452.929 227.223 456.302C227.178 456.447 227.048 456.543 226.906 456.543L226.907 456.542Z" fill="white"/>
<path d="M220.363 457.825C220.33 457.825 220.296 457.819 220.264 457.808C220.089 457.753 219.993 457.559 220.047 457.381C221.038 454.134 221.47 447.753 218.6 443.465C218.496 443.309 218.533 443.095 218.684 442.988C218.834 442.882 219.041 442.919 219.145 443.076C222.151 447.564 221.71 454.214 220.679 457.587C220.634 457.732 220.504 457.826 220.363 457.826V457.825Z" fill="white"/>
<path d="M152.042 308.985C152.042 308.985 168.44 294.567 167.834 291.827C167.399 289.868 162.755 292.74 162.755 292.74C162.755 292.74 169.27 284.75 168.938 283.777C168.347 282.046 163.841 285.276 163.841 285.276C163.841 285.276 166.886 280.744 165.43 280.008C163.973 279.267 160.799 282.063 160.799 282.063C160.799 282.063 162.654 279.544 161.783 278.884C160.912 278.224 157.152 280.939 157.152 280.939C157.152 280.939 158.502 277.766 155.636 278.968C152.77 280.171 132.678 299.236 132.678 299.236L152.042 308.985Z" fill="#F9B384"/>
<path d="M158.751 291.884C158.672 291.884 158.592 291.854 158.528 291.794C155.713 289.136 154.473 288.489 151.366 287.5C151.192 287.445 151.093 287.253 151.148 287.073C151.202 286.892 151.387 286.791 151.562 286.849C154.78 287.872 156.065 288.539 158.976 291.289C159.11 291.417 159.12 291.633 158.997 291.773C158.932 291.846 158.842 291.885 158.752 291.885L158.751 291.884Z" fill="#E28B6D"/>
<path d="M153.81 299.704L153.764 299.701C153.583 299.674 153.455 299.501 153.482 299.314C153.804 296.931 154.53 295.439 155.701 294.757C156.703 294.176 158.005 294.237 159.573 294.935C159.741 295.012 159.818 295.212 159.745 295.384C159.673 295.559 159.477 295.639 159.31 295.566C157.943 294.954 156.837 294.883 156.026 295.355C155.062 295.916 154.426 297.281 154.137 299.408C154.114 299.58 153.973 299.703 153.81 299.703V299.704Z" fill="#E28B6D"/>
<path d="M153.036 285.292C152.948 285.292 152.861 285.253 152.795 285.182C152.67 285.046 152.676 284.828 152.809 284.7L156.923 280.689C157.057 280.56 157.265 280.565 157.392 280.702C157.517 280.842 157.511 281.058 157.378 281.187L153.263 285.196C153.199 285.259 153.117 285.292 153.035 285.292H153.036Z" fill="#E28B6D"/>
<path d="M156.847 286.662C156.764 286.662 156.681 286.63 156.617 286.567C156.486 286.435 156.481 286.219 156.608 286.083L160.559 281.824C160.687 281.687 160.896 281.681 161.028 281.813C161.16 281.945 161.164 282.161 161.037 282.299L157.086 286.556C157.02 286.627 156.934 286.662 156.847 286.662Z" fill="#E28B6D"/>
<path d="M160.738 289.059C160.657 289.059 160.576 289.026 160.512 288.965C160.378 288.837 160.37 288.62 160.496 288.481L163.596 285.042C163.722 284.905 163.931 284.897 164.065 285.026C164.199 285.154 164.206 285.371 164.081 285.508L160.98 288.949C160.915 289.02 160.827 289.059 160.738 289.059Z" fill="#E28B6D"/>
<path d="M213.987 405.422L154.032 407.82L147.406 351.308C147.406 351.308 167.479 331.621 175.201 324.373L188.237 323.682C228.684 342.69 222.062 366.432 213.987 405.422Z" fill="#0F4C8D"/>
<path d="M188.236 323.682C188.236 323.682 234.511 327.773 249.099 360.555C263.374 392.629 204.712 404.052 204.712 404.052L188.236 323.682Z" fill="#0F4C8D"/>
<path d="M135.342 330.705L154.464 306.644L136.583 295.438C129.124 300.802 114.699 312.949 102.475 326.705C99.7764 329.74 97.6689 333.286 96.6077 337.191C95.7016 340.522 95.538 343.814 96.0468 347.035C97.3736 355.436 103.764 361.919 112.293 362.951C119.578 363.833 147.406 361.582 169.931 354.731L176.556 328.293C173.151 326.295 147.851 325.948 135.342 330.704V330.705Z" fill="#0F4C8D"/>
<path d="M213.767 338.966C210.726 338.966 206.318 338.262 204.71 334.469C203.647 331.967 204.395 329.213 205.562 327.249C205.727 327.298 205.892 327.347 206.058 327.397C204.919 329.249 204.157 331.89 205.164 334.264C206.661 337.793 210.84 338.453 213.753 338.453C214.778 338.453 215.647 338.37 216.186 338.302C219.636 337.872 223.135 337.047 226.526 336.238C226.735 336.365 226.945 336.491 227.154 336.616C227.055 336.64 226.954 336.666 226.855 336.688C223.383 337.515 219.794 338.369 216.246 338.811C215.694 338.88 214.812 338.965 213.767 338.965V338.966Z" fill="#D8E1FB"/>
<path d="M236.945 391.582C234.6 388.513 233.37 385.025 233.52 381.699C233.739 376.817 237.342 372.511 241.554 372.098C241.813 372.074 242.071 372.063 242.328 372.063C244.448 372.063 246.479 372.875 248.45 373.66C249.238 373.975 250.039 374.293 250.85 374.564C250.812 374.731 250.769 374.896 250.727 375.063C249.895 374.786 249.076 374.463 248.271 374.139C246.259 373.336 244.347 372.575 242.337 372.575C242.094 372.575 241.848 372.586 241.602 372.61C237.627 372.999 234.225 377.085 234.017 381.721C233.874 384.94 235.075 388.327 237.368 391.305C237.228 391.398 237.086 391.492 236.946 391.582H236.945Z" fill="#D8E1FB"/>
<path d="M109.082 362.275C108.909 362.222 108.743 362.158 108.572 362.099C111.165 359.017 114.94 356.688 119.337 355.51C121.006 355.063 122.624 354.845 124.146 354.845C127.126 354.845 129.739 355.688 131.651 357.321C133.075 358.541 134.06 360.121 134.768 361.815C134.597 361.835 134.425 361.855 134.255 361.875C133.579 360.299 132.65 358.843 131.336 357.719C129.513 356.159 127.012 355.358 124.149 355.358C122.67 355.358 121.092 355.574 119.463 356.01C115.238 357.139 111.605 359.35 109.082 362.276V362.275Z" fill="#D8E1FB"/>
<path d="M105.535 323.343C105.751 323.113 105.966 322.879 106.183 322.65C111.289 321.282 116.261 319.389 120.856 316.652C122.653 315.583 124.678 314.221 126.087 312.245C127.546 310.196 128.036 307.768 127.397 305.757C127.146 304.966 126.698 304.272 126.138 303.722C126.265 303.615 126.394 303.505 126.52 303.399C127.118 303.999 127.599 304.744 127.868 305.597C128.558 307.767 128.041 310.367 126.486 312.554C125.025 314.606 122.945 316.004 121.104 317.1C116.231 320.002 110.95 321.954 105.535 323.344V323.343Z" fill="#D8E1FB"/>
<path d="M192.471 311.117L192.462 311.993L192.328 325.619L192.312 327.096C192.286 329.405 191.37 331.499 189.892 333.02C188.423 334.529 186.398 335.478 184.156 335.495C179.637 335.52 175.941 331.768 175.9 327.088L175.74 310.248L192.471 311.117Z" fill="#F9B384"/>
<path d="M192.462 311.994L192.327 325.62C185.003 322.538 181.988 314.34 181.988 314.34L192.462 311.994Z" fill="#102048"/>
<path d="M195.36 288.216C197.985 291.473 205.649 309.928 197.88 316.223C189.137 323.31 175.831 311.664 175.831 311.664L174.047 290.169L185.596 287.021L195.36 288.216Z" fill="#F9B384"/>
<path d="M168.166 287.031C168.166 287.031 142.549 300.846 163.436 340.667C166.119 345.78 172.061 348.013 177.144 345.517C182.597 342.839 184.662 335.952 181.7 330.513C178.283 324.238 174.985 316.158 176.393 310.144L168.164 287.031H168.166Z" fill="#102048"/>
<path d="M177.513 293.57C177.513 297.53 174.41 300.735 170.583 300.735C166.757 300.735 163.654 297.528 163.654 293.57C163.654 289.614 166.757 286.408 170.583 286.408C174.41 286.408 177.513 289.614 177.513 293.57Z" fill="#FBC343"/>
<path d="M179.108 302.179C178.359 297.709 177.904 294.644 182.273 292.34C182.273 292.34 197.671 295.236 200.612 289.23C203.551 283.221 199.072 273.742 189.692 280.328C165.684 275.479 162.465 298.711 169.743 306.454L176.927 305.314C178.373 305.085 179.357 303.67 179.107 302.18L179.108 302.179Z" fill="#102048"/>
<path d="M192.054 302.192C192.054 302.775 191.596 303.25 191.03 303.25C190.465 303.25 190.006 302.776 190.006 302.192C190.006 301.609 190.465 301.134 191.03 301.134C191.595 301.134 192.054 301.608 192.054 302.192Z" fill="#102048"/>
<path d="M198.984 298.663C198.984 299.249 198.526 299.724 197.96 299.724C197.394 299.724 196.936 299.25 196.936 298.663C196.936 298.079 197.394 297.605 197.96 297.605C198.525 297.605 198.984 298.078 198.984 298.663Z" fill="#102048"/>
<path d="M197.252 305.45C197.18 305.45 197.109 305.423 197.052 305.368C196.936 305.253 196.931 305.064 197.042 304.943C197.453 304.496 197.902 303.869 197.713 303.414C197.516 302.941 196.686 302.737 196.307 302.737C195.49 302.737 195.098 301.234 195.028 300.932C194.99 300.773 195.086 300.61 195.241 300.569C195.396 300.531 195.553 300.63 195.591 300.791C195.74 301.427 196.078 302.137 196.307 302.137C196.697 302.137 197.893 302.326 198.245 303.176C198.497 303.784 198.233 304.516 197.461 305.357C197.404 305.42 197.327 305.45 197.251 305.45H197.252Z" fill="#102048"/>
<path d="M197.302 309.467C197.247 309.467 197.189 309.451 197.141 309.415C195.214 308.07 193.267 309.199 193.247 309.21C193.109 309.293 192.932 309.243 192.851 309.1C192.771 308.955 192.819 308.774 192.957 308.689C193.05 308.635 195.24 307.366 197.465 308.919C197.597 309.012 197.632 309.198 197.543 309.335C197.487 309.421 197.395 309.467 197.302 309.467Z" fill="#102048"/>
<path d="M190.583 297.608C191.165 298.74 190.15 298.97 188.962 299.622C187.772 300.274 186.555 300.515 186.277 299.973C185.999 299.434 186.737 298.466 187.927 297.811C189.116 297.158 190.132 296.731 190.583 297.607V297.608Z" fill="#102048"/>
<path d="M194.918 295.561C195.174 296.571 195.904 296.131 196.965 295.843C198.026 295.556 198.883 295.005 198.761 294.522C198.639 294.04 197.68 293.882 196.619 294.168C195.557 294.456 194.719 294.777 194.918 295.56V295.561Z" fill="#102048"/>
<path d="M186.306 310.253C184.638 310.253 183.287 308.856 183.287 307.132C183.287 305.406 184.638 304.011 186.306 304.011C187.974 304.011 189.324 305.406 189.324 307.132C189.324 308.856 187.973 310.253 186.306 310.253Z" fill="#F39176"/>
<path d="M177.34 303.797C179.371 305.416 179.899 308.228 178.52 310.078C177.14 311.924 174.375 312.108 172.345 310.489C170.314 308.87 169.786 306.055 171.165 304.208C172.544 302.359 175.308 302.175 177.34 303.797Z" fill="#F9B384"/>
<path d="M176.639 308.709C176.479 308.709 176.349 308.575 176.349 308.41C176.349 307.525 175.932 306.709 175.234 306.221C174.636 305.808 173.924 305.708 173.329 305.961C173.181 306.021 173.012 305.95 172.951 305.796C172.891 305.643 172.962 305.467 173.111 305.404C173.885 305.079 174.8 305.198 175.558 305.724C176.417 306.321 176.931 307.325 176.931 308.409C176.931 308.574 176.801 308.708 176.641 308.708L176.639 308.709Z" fill="#102048"/>
<path d="M125.125 342.634L124.639 342.169L135.099 330.472L135.586 330.938L125.125 342.634Z" fill="#102048"/>
<path d="M208.784 380.748L208.592 380.093C216.206 377.694 223.595 374.821 230.292 366.163L230.809 366.59C223.995 375.402 216.503 378.315 208.785 380.748H208.784Z" fill="#102048"/>
<path d="M213.414 354.222H148.643C146.313 354.222 144.426 356.334 144.426 358.938V406.754C144.426 409.359 146.315 411.472 148.643 411.472H213.414C215.743 411.472 217.631 409.359 217.631 406.754V358.938C217.631 356.335 215.742 354.222 213.414 354.222Z" fill="#9DB6D0"/>
<path d="M184.448 378.455H177.609C176.632 378.455 175.838 379.293 175.838 380.323V385.37C175.838 386.4 176.632 387.239 177.609 387.239H184.448C185.424 387.239 186.217 386.401 186.217 385.37V380.323C186.217 379.293 185.424 378.455 184.448 378.455ZM184.448 379.824C184.693 379.824 184.893 380.046 184.893 380.323V385.37C184.893 385.644 184.693 385.868 184.448 385.868H177.609C177.363 385.868 177.164 385.644 177.164 385.37V380.323C177.164 380.046 177.363 379.824 177.609 379.824H184.448Z" fill="#1F3C88"/>
<path d="M74.2676 462.277H464.791V460.907H74.2676V462.277Z" fill="#102048"/>
</svg>
