<svg width="613" height="409" viewBox="0 0 613 409" fill="none" xmlns="http://www.w3.org/2000/svg">
<path d="M0 408.667H613V0H0V408.667Z" fill="#F1F5FA"/>
<path d="M395.414 350.566L275.819 350.342L391.31 350.05L396.157 350.126C395.91 350.274 395.661 350.422 395.414 350.566ZM229.421 350.253L205.034 350.208C195.281 340.911 187.73 329.533 183.777 316.616C181.283 308.468 180.514 299.784 181.324 291.252C187.953 312.564 203.138 332.199 224.658 347.087C226.201 348.156 227.803 349.22 229.421 350.252V350.253ZM229.93 349.806C228.263 348.746 226.616 347.652 225.028 346.555C203.134 331.403 187.837 311.328 181.503 289.589C183.934 269.238 195.353 250.008 213.77 241.263C225.196 235.84 237.6 234.702 250.317 234.702C254.91 234.702 259.548 234.85 264.191 234.998C268.836 235.147 273.487 235.296 278.116 235.296C282.937 235.296 287.738 235.135 292.472 234.645C292.621 234.628 292.771 234.612 292.919 234.598L295.578 240.248L296.558 242.34C298.696 246.88 303.097 249.576 307.574 249.576C309.188 249.576 310.815 249.225 312.348 248.485C319.873 244.845 324.156 237.064 324.011 228.821C325.811 229.125 327.615 229.38 329.428 229.584C333.988 230.093 338.639 230.258 343.294 230.258C347.838 230.258 352.389 230.099 356.862 229.944C361.268 229.791 365.712 229.635 370.146 229.635C382.353 229.635 394.476 230.808 405.449 236.419C430.024 248.981 442.953 284.041 434.269 314.57C434.089 315.201 433.901 315.827 433.701 316.446C426.752 326.265 417.914 334.904 408.159 342.152C410.012 338.61 411.183 334.295 411.258 329.195C411.336 324.11 410.32 318.243 407.803 311.586L395.54 281.486L362.681 293.689L374.354 320.264L374.379 320.333L374.381 320.335L315.902 326.878L304.676 323.251C303.073 322.733 301.42 322.479 299.779 322.479C296.222 322.479 292.715 323.672 289.861 325.952C280.073 333.769 264.16 348.178 268.284 349.338C268.847 349.497 269.424 349.617 270.014 349.708L229.932 349.808L229.93 349.806ZM275.801 349.69C281.154 349.038 287 346.955 292.435 345.59C293.974 345.204 295.545 345.012 297.108 345.012C300.112 345.012 303.096 345.719 305.809 347.108L310.676 349.601L275.801 349.689V349.69ZM434.903 314.703C443.645 283.9 430.57 248.528 405.746 235.838C394.654 230.167 382.45 228.982 370.17 228.982C365.719 228.982 361.259 229.138 356.84 229.291C352.377 229.449 347.839 229.605 343.306 229.605C338.668 229.605 334.035 229.44 329.502 228.937C327.656 228.731 325.822 228.469 323.991 228.156C323.978 227.903 323.964 227.652 323.944 227.398C335.002 223.849 345.952 219.741 357.115 216.581C367.538 213.632 378.647 211.598 389.51 211.598C401.126 211.598 412.456 213.925 422.355 219.947C444.381 233.348 453.176 262.845 447.03 287.883C444.661 297.532 440.441 306.512 434.904 314.704L434.903 314.703Z" fill="#F9F9FF"/>
<path d="M229.742 350.458L229.661 350.407C229.58 350.356 229.501 350.306 229.421 350.254L275.819 350.342L229.742 350.459V350.458ZM401.535 350.025C401.813 349.814 402.087 349.596 402.357 349.371L408.846 349.354C422.247 338.649 429.785 328.704 433.701 316.444C434.111 315.868 434.511 315.287 434.904 314.703C434.899 314.718 434.896 314.732 434.892 314.747C431.11 328.049 423.417 338.572 409.163 349.934L409.073 350.004H408.96L401.535 350.025ZM181.324 291.253C180.67 289.148 180.098 287.025 179.612 284.889C173.257 256.953 183.366 227.023 203.651 213.723C212.581 207.864 223.275 204.934 235.621 204.934C245.129 204.934 255.615 206.671 267.036 210.149C269.173 210.8 271.312 211.492 273.446 212.212C273.603 212.496 273.762 212.78 273.922 213.062C271.567 212.258 269.205 211.489 266.846 210.771C255.489 207.312 245.065 205.583 235.626 205.583C223.404 205.583 212.829 208.478 204.008 214.265C183.943 227.422 173.95 257.064 180.246 284.745C180.616 286.368 181.036 287.982 181.503 289.588C181.437 290.141 181.376 290.696 181.324 291.252V291.253Z" fill="#BDBEFF"/>
<path d="M275.82 350.341L229.422 350.253C227.803 349.221 226.201 348.157 224.658 347.088C203.138 332.199 187.953 312.564 181.324 291.252C181.377 290.697 181.436 290.142 181.503 289.589C187.837 311.328 203.134 331.404 225.028 346.555C226.616 347.652 228.262 348.745 229.93 349.806L270.012 349.705C270.875 349.834 271.764 349.894 272.675 349.894C273.692 349.894 274.736 349.82 275.801 349.69L310.676 349.602L311.453 350L387.48 349.99L390.21 350.033L391.311 350.049L275.82 350.341ZM433.701 316.445C433.902 315.825 434.09 315.201 434.269 314.569C442.952 284.04 430.023 248.979 405.449 236.417C394.477 230.807 382.354 229.634 370.146 229.634C365.712 229.634 361.268 229.789 356.862 229.942C352.389 230.098 347.839 230.257 343.294 230.257C338.639 230.257 333.988 230.091 329.428 229.582C327.615 229.38 325.811 229.124 324.011 228.82C324.009 228.599 324.001 228.377 323.991 228.156C325.822 228.469 327.656 228.731 329.502 228.936C334.036 229.439 338.668 229.605 343.306 229.605C347.838 229.605 352.376 229.447 356.84 229.291C361.26 229.138 365.721 228.982 370.17 228.982C382.45 228.982 394.655 230.167 405.747 235.837C430.571 248.528 443.645 283.9 434.903 314.703C434.511 315.288 434.109 315.868 433.7 316.444L433.701 316.445Z" fill="#BBBBFF"/>
<path d="M475.9 318.889C471.734 318.889 468.341 321.937 468.341 325.687C468.341 329.434 471.734 332.484 475.9 332.484C480.07 332.484 483.463 329.435 483.463 325.687C483.463 321.937 480.07 318.889 475.9 318.889ZM475.9 336.523C469.502 336.523 464.301 331.661 464.301 325.687C464.301 319.711 469.504 314.85 475.9 314.85C482.297 314.85 487.504 319.711 487.504 325.687C487.504 331.661 482.298 336.523 475.9 336.523Z" fill="#0F4C8D"/>
<path d="M471.813 349.937H446.424L442.087 305.891H476.151L471.813 349.937Z" fill="white"/>
<path d="M446.817 349.504H471.42L475.674 306.325H442.562L446.816 349.504H446.817ZM472.206 350.373H446.031L441.606 305.456H476.631L472.206 350.373Z" fill="#0F4C8D"/>
<path d="M467.398 346.278H450.841L448.012 318.664H470.226L467.398 346.278Z" fill="#EBEBFF"/>
<path d="M68.5727 90.6522H63.8674V89.7847H68.5727V90.6522ZM77.9823 90.6522H73.2769V89.7847H77.9823V90.6522ZM87.3929 90.6522H82.6876V89.7847H87.3929V90.6522ZM96.8036 90.6522H92.0993V89.7847H96.8036V90.6522ZM106.214 90.6522H101.509V89.7847H106.214V90.6522ZM115.624 90.6522H110.92V89.7847H115.624V90.6522ZM125.034 90.6522H120.329V89.7847H125.034V90.6522ZM134.445 90.6522H129.74V89.7847H134.445V90.6522ZM143.855 90.6522H139.149V89.7847H143.855V90.6522ZM153.155 90.859C152.532 90.7215 151.889 90.6522 151.245 90.6522H148.56V89.7847H151.245C151.952 89.7847 152.657 89.8607 153.341 90.0105L153.155 90.859ZM55.2192 92.6477L54.6703 91.9747C55.9481 90.9317 57.4774 90.2274 59.095 89.9378L59.2482 90.793C57.7759 91.0569 56.3829 91.6975 55.2192 92.6477ZM159.602 96.5403C159.1 95.1328 158.237 93.8628 157.11 92.8679L157.683 92.2173C158.921 93.3084 159.867 94.7024 160.419 96.2485L159.602 96.5403ZM51.9515 100.679H51.084V99.5251C51.084 98.272 51.3188 97.0511 51.7816 95.8986L52.5865 96.2217C52.1639 97.2725 51.9504 98.3837 51.9504 99.5262V100.68L51.9515 100.679ZM160.983 105.743H160.116V101.038H160.983V105.743ZM51.9515 110.089H51.084V105.385H51.9515V110.089ZM160.983 115.154H160.116V110.448H160.983V115.154ZM51.9515 119.501H51.084V114.796H51.9515V119.501ZM160.983 124.564H160.116V119.859H160.983V124.564ZM51.9515 128.912H51.084V124.207H51.9515V128.912ZM160.983 133.975H160.116V129.27H160.983V133.975ZM51.9515 138.323H51.084V133.617H51.9515V138.323ZM160.983 143.386H160.116V138.681H160.983V143.386ZM51.9515 147.733H51.084V143.028H51.9515V147.733ZM160.983 152.796H160.116V148.091H160.983V152.796ZM51.9515 157.144H51.084V152.438H51.9515V157.144ZM160.983 162.208H160.116V157.503H160.983V162.208ZM51.2137 166.618C51.1265 166.093 51.0829 165.556 51.084 165.023V161.85H51.9515V165.023C51.9515 165.509 51.9906 165.998 52.07 166.477L51.2137 166.618ZM158.641 171.36L157.982 170.795C158.96 169.653 159.636 168.276 159.936 166.812L160.787 166.986C160.458 168.595 159.716 170.107 158.641 171.36ZM57.0705 174.014C55.5557 173.38 54.2131 172.363 53.1879 171.072L53.8687 170.532C54.8022 171.709 56.0252 172.636 57.4047 173.213L57.0705 174.014ZM66.5526 174.763H61.8473V173.896H66.5526V174.763ZM75.9633 174.763H71.258V173.896H75.9633V174.763ZM85.3739 174.763H80.6686V173.896H85.3739V174.763ZM94.7835 174.763H90.0782V173.896H94.7835V174.763ZM104.194 174.763H99.4899V173.896H104.194V174.763ZM113.605 174.763H108.899V173.896H113.605V174.763ZM123.015 174.763H118.31V173.896H123.015V174.763ZM132.425 174.763H127.72V173.896H132.425V174.763ZM141.836 174.763H137.13V173.896H141.836V174.763ZM151.246 174.763H146.541V173.896H151.246C152.314 173.896 153.357 173.708 154.347 173.339L154.65 174.153C153.564 174.559 152.418 174.764 151.246 174.764V174.763Z" fill="#9192FF"/>
<path d="M179.69 196.346H78.9525C73.2266 196.346 68.585 191.704 68.585 185.977V113.012C68.585 107.286 73.2266 102.644 78.9525 102.644H179.69C185.416 102.644 190.058 107.286 190.058 113.012V185.977C190.058 191.703 185.416 196.346 179.69 196.346Z" fill="#9DB6D0"/>
<path d="M79.2861 187.313H91.1406V130.46H79.2861V187.313Z" fill="white"/>
<path d="M101.341 187.313H113.195V140.466H101.341V187.313Z" fill="white"/>
<path d="M123.394 187.313H135.248V149.215H123.394V187.313Z" fill="white"/>
<path d="M145.446 187.313H157.302V155.388H145.446V187.313Z" fill="white"/>
<path d="M167.501 187.313H179.355V173.593H167.501V187.313Z" fill="white"/>
<path d="M99.9141 120.658H158.728V115.56H99.9141V120.658Z" fill="white"/>
<path d="M294.821 85.1563C288.687 87.9947 280.524 92.5637 282.076 100.685C283.6 108.652 293.214 107.214 298.827 105.31C302.986 103.899 307 102.003 310.7 99.6334C313.101 98.094 316.478 95.4344 315.659 92.1366C314.953 89.3049 311.668 88.4765 309.142 88.9952C305.478 89.7476 301.296 91.9789 298.427 94.331C295.821 96.4663 293.792 99.7899 294.303 103.278C294.769 106.465 297.401 108.737 300.326 109.736C303.976 110.982 308.924 110.726 312.594 109.613C314.824 108.936 316.883 106.918 315.426 104.504C313.7 101.647 310.116 102.338 307.631 103.595C304.276 105.293 300.306 107.511 298.648 111.072C297.387 113.776 297.588 117.128 300.038 119.086C302.439 121.005 305.903 121.011 308.809 120.79C311.216 120.606 315.148 120.104 315.53 117.067C315.915 114.005 312.151 112.615 309.758 113.517C306.054 114.918 303.732 119.485 302.608 123.024C301.282 127.203 301.305 131.675 302.594 135.856C302.759 136.388 303.597 136.161 303.432 135.626C301.754 130.187 302.336 124.211 305.207 119.269C306.582 116.901 309.294 113.158 312.531 114.205C314.259 114.764 315.485 116.81 313.953 118.352C312.876 119.435 311.062 119.699 309.614 119.853C307.516 120.078 305.262 120.167 303.198 119.637C299.641 118.722 297.871 115.504 299.195 111.992C300.276 109.128 302.922 107.329 305.441 105.826C307.835 104.397 312.611 101.405 314.675 104.941C316.983 108.903 309.471 109.322 307.406 109.479C304.376 109.708 301.168 109.599 298.516 107.931C295.712 106.164 294.456 103.115 295.476 99.9162C296.502 96.7 299.173 94.5569 302.025 92.9795C304.25 91.7498 306.86 90.3166 309.37 89.8326C311.14 89.4905 313.376 89.77 314.43 91.4513C315.693 93.4625 314.188 95.6569 312.73 97.0297C308.649 100.872 302.484 103.3 297.213 104.922C291.721 106.611 282.709 106.977 282.788 98.8933C282.857 91.9018 289.771 88.4463 295.256 85.9064C295.762 85.6717 295.321 84.9238 294.818 85.1574L294.821 85.1563Z" fill="#1B1B43"/>
<path d="M231.777 126.087C233.182 129.045 234.462 132.048 235.708 135.063L237.529 139.601L239.277 144.167L236.67 143.4L241.046 139.967C242.508 138.824 243.997 137.722 245.472 136.599L247.254 135.238L248.078 137.3C248.671 138.783 249.221 140.284 249.794 141.776C250.362 143.269 250.89 144.781 251.436 146.282C251.954 147.798 252.493 149.303 252.979 150.831C253.482 152.351 253.954 153.885 254.393 155.431L253.137 155.944C252.369 154.532 251.629 153.109 250.922 151.672C250.199 150.241 249.528 148.79 248.835 147.346C248.175 145.891 247.491 144.444 246.85 142.98C246.213 141.514 245.554 140.057 244.937 138.583L247.543 139.285C246.079 140.424 244.633 141.583 243.158 142.705L238.72 146.058L236.836 147.483L236.115 145.29L234.584 140.649L233.126 135.98C232.186 132.857 231.281 129.721 230.5 126.541L231.779 126.086L231.777 126.087Z" fill="#F9CD34"/>
<path d="M355.518 135.655C354.74 138.836 353.834 141.972 352.893 145.095L351.438 149.763L349.905 154.406L349.182 156.597L347.3 155.173L342.862 151.818C341.386 150.697 339.94 149.538 338.476 148.398L341.082 147.696C340.465 149.171 339.805 150.626 339.17 152.093C338.528 153.557 337.844 155.003 337.184 156.46C336.492 157.902 335.821 159.354 335.096 160.785C334.392 162.223 333.652 163.646 332.881 165.058L331.627 164.545C332.066 162.998 332.537 161.465 333.041 159.944C333.527 158.416 334.067 156.911 334.584 155.397C335.132 153.895 335.658 152.384 336.227 150.89C336.798 149.399 337.35 147.897 337.943 146.413L338.766 144.352L340.548 145.711C342.024 146.836 343.513 147.938 344.974 149.08L349.35 152.514L346.743 153.28L348.491 148.715L350.311 144.176C351.555 141.161 352.836 138.158 354.242 135.201L355.52 135.656L355.518 135.655Z" fill="#F9CD34"/>
<path d="M393.579 178.042C393.579 182.77 397.412 186.601 402.139 186.601H533.528C538.255 186.601 542.086 182.769 542.086 178.042V100.387H393.579V178.042Z" fill="white"/>
<path d="M533.527 186.167H402.138C397.658 186.167 394.014 182.521 394.014 178.041V118.13C399.678 118.599 404.949 122.852 406.372 128.396C407.126 128.163 407.913 128.051 408.699 128.051C411.061 128.051 413.435 129.065 414.988 130.856C417.057 133.242 417.557 136.877 416.203 139.733C422.513 140.729 426.679 148.555 423.976 154.344C425.234 154.01 426.534 153.847 427.833 153.847C430.968 153.847 434.106 154.794 436.675 156.587C440.315 159.124 442.755 163.312 443.169 167.73C444.828 161.939 450.627 157.63 456.636 157.63C456.812 157.63 456.983 157.634 457.158 157.64C463.35 157.898 469.051 162.779 470.258 168.858C475.014 161.629 481.725 156.752 489.316 154.014C489.751 154.472 490.182 154.941 490.604 155.423L491.879 153.548C492.075 153.926 492.272 154.314 492.46 154.712L494.207 152.573C497.792 151.736 501.515 151.327 505.276 151.327C518.313 151.327 531.805 156.237 541.655 165.223V178.041C541.655 182.521 538.007 186.167 533.528 186.167H533.527Z" fill="#E3E3FF"/>
<path d="M393.579 138.359C398.476 137.582 403.715 138.408 407.594 141.448C411.951 144.862 413.98 151.39 411.342 156.256C415.093 155.921 418.955 157.942 420.818 161.215C422.677 164.488 422.444 168.84 420.237 171.893C424.031 169.993 428.674 169.869 432.564 171.566C436.455 173.262 439.526 176.745 440.717 180.82C446.133 176.277 455.325 177.392 459.501 183.101C468.496 174.538 482.245 169.819 493.656 174.725C499.203 177.112 503.66 181.508 506.975 186.601H402.14C397.414 186.601 393.58 182.769 393.58 178.042V138.36L393.579 138.359Z" fill="white"/>
<path d="M484.525 118.861C481.471 117.587 478.307 117.431 475.696 118.196C474.063 116.16 471.56 114.853 468.747 114.853C463.825 114.853 459.834 118.843 459.834 123.763C459.834 125.044 460.11 126.259 460.594 127.359C458.86 128.535 457.719 130.523 457.719 132.776C457.719 135.938 459.962 138.575 462.942 139.184C462.891 139.574 462.853 139.97 462.853 140.375C462.853 145.296 466.844 149.286 471.762 149.286C475.978 149.286 479.5 146.358 480.428 142.427C481.364 142.947 482.443 143.245 483.592 143.245C487.202 143.245 490.132 140.317 490.132 136.704C490.132 135.871 489.968 135.078 489.685 134.345C490.612 133.594 491.343 132.657 491.803 131.544C493.696 127.001 490.437 121.322 484.524 118.858L484.525 118.861Z" fill="#FFF2E0"/>
<path d="M448.054 114.027C446.516 113.385 444.924 113.307 443.608 113.694C442.789 112.667 441.528 112.01 440.11 112.01C437.632 112.01 435.622 114.019 435.622 116.496C435.622 117.141 435.761 117.753 436.007 118.307C435.133 118.9 434.557 119.9 434.557 121.036C434.557 122.628 435.689 123.955 437.185 124.262C437.16 124.459 437.143 124.658 437.143 124.862C437.143 127.34 439.153 129.349 441.632 129.349C443.755 129.349 445.526 127.874 445.994 125.896C446.466 126.156 447.009 126.307 447.586 126.307C449.404 126.307 450.878 124.833 450.878 123.014C450.878 122.593 450.799 122.194 450.652 121.825C451.116 121.448 451.488 120.975 451.722 120.416C452.675 118.128 451.033 115.269 448.053 114.028L448.054 114.027Z" fill="#FFF2E0"/>
<path d="M422.043 111.362C422.268 112.179 422.151 113.074 421.474 113.913C419.877 115.886 417.057 115.008 416.348 112.78C416.07 111.912 415.941 110.958 416.229 110.093C417.251 107.031 421.328 108.816 422.043 111.362Z" fill="#D1D1FF"/>
<path d="M448.685 145.274C448.827 145.794 448.752 146.362 448.325 146.895C447.31 148.147 445.517 147.59 445.071 146.176C444.891 145.624 444.807 145.019 444.991 144.469C445.643 142.525 448.234 143.658 448.685 145.274Z" fill="#D1D1FF"/>
<path d="M510.636 120.975C510.778 121.493 510.703 122.062 510.273 122.594C509.262 123.847 507.469 123.29 507.017 121.875C506.842 121.323 506.759 120.717 506.942 120.169C507.59 118.225 510.18 119.358 510.636 120.975Z" fill="#D1D1FF"/>
<path d="M394.014 100.821V178.042C394.014 182.523 397.66 186.168 402.138 186.168H533.527C538.007 186.168 541.654 182.523 541.654 178.042V100.821H394.014ZM533.527 187.035H402.138C397.181 187.035 393.146 183 393.146 178.042V99.9531H542.52V178.042C542.52 183.001 538.487 187.035 533.527 187.035Z" fill="#9192FF"/>
<path d="M533.527 66.9668H402.138C397.411 66.9668 393.578 70.799 393.578 75.5267V100.387H542.085V75.5267C542.085 70.799 538.253 66.9668 533.527 66.9668Z" fill="white"/>
<path d="M394.014 99.953H541.654V75.5265C541.654 71.0459 538.007 67.4003 533.527 67.4003H402.138C397.659 67.4003 394.014 71.0459 394.014 75.5265V99.953ZM542.52 100.821H393.146V75.5265C393.146 70.5674 397.181 66.5339 402.138 66.5339H533.527C538.487 66.5339 542.52 70.5674 542.52 75.5265V100.821Z" fill="#9192FF"/>
<path d="M419.954 83.6764C419.954 87.1118 417.169 89.8965 413.735 89.8965C410.298 89.8965 407.514 87.1118 407.514 83.6764C407.514 80.2411 410.298 77.4563 413.735 77.4563C417.17 77.4563 419.954 80.2411 419.954 83.6764Z" fill="#D1D1FF"/>
<path d="M504.72 89.1731H435.577C432.54 89.1731 430.078 86.7115 430.078 83.6763C430.078 80.6411 432.54 78.1794 435.577 78.1794H504.72C507.758 78.1794 510.22 80.6411 510.22 83.6763C510.22 86.7115 507.758 89.1731 504.72 89.1731Z" fill="white"/>
<path d="M435.578 78.6131C432.786 78.6131 430.514 80.8848 430.514 83.6762C430.514 86.4676 432.786 88.7393 435.578 88.7393H504.721C507.513 88.7393 509.785 86.4676 509.785 83.6762C509.785 80.8848 507.513 78.6131 504.721 78.6131H435.578ZM504.721 89.6078H435.578C432.306 89.6078 429.648 86.9472 429.648 83.6762C429.648 80.4063 432.306 77.7456 435.578 77.7456H504.721C507.993 77.7456 510.651 80.4063 510.651 83.6762C510.651 86.9472 507.993 89.6078 504.721 89.6078Z" fill="#9192FF"/>
<path d="M500.382 141.005C500.382 141.005 487.918 129.274 475.453 129.029L484.496 135.14L467.631 131.962L483.272 139.783L464.944 141.005C474.764 142.746 483.439 147.256 490.605 155.425L500.382 141.005Z" fill="#F9CD34"/>
<path d="M492.185 153.096L498.047 144.445C498.853 145.548 499.309 146.305 499.309 146.305L494.207 152.573C493.526 152.732 492.853 152.905 492.185 153.096Z" fill="white"/>
<path d="M492.46 154.713C492.272 154.315 492.076 153.928 491.879 153.549L492.184 153.096C492.853 152.907 493.526 152.733 494.206 152.573L492.459 154.712L492.46 154.713Z" fill="#F4F4FF"/>
<path d="M491.879 153.551C489.068 148.257 485.202 144.872 480.539 142.953L490.388 143.896L483.009 137.354L491.575 141.006L487.488 136.196C492.131 137.141 496.113 141.793 498.048 144.445L492.186 153.096L491.88 153.55L491.879 153.551Z" fill="#9DB6D0"/>
<path d="M545.42 168.14C538.755 156.475 542.904 141.037 536.49 137.077L523.758 152.842L545.42 168.139V168.14Z" fill="#0F4C8D"/>
<path d="M536.49 137.077L534.844 136.9C533.089 136.713 531.338 137.284 530.035 138.471L519.271 148.256L523.759 152.843L536.491 137.078L536.49 137.077Z" fill="#C5C5FF"/>
<path d="M526.577 191.472C513.771 187.412 499.551 194.72 494.331 189.284L507.063 173.518L526.577 191.47V191.472Z" fill="#0F4C8D"/>
<path d="M494.331 189.285L493.814 187.711C493.258 186.035 493.45 184.203 494.331 182.677L501.631 170.094L507.063 173.52L494.331 189.286V189.285Z" fill="#C5C5FF"/>
<path d="M558.648 198.175L554.015 185.178L544.964 196.384L558.648 198.175Z" fill="#1B1B43"/>
<path d="M495.056 160.551C504.399 180.528 521.598 196.143 544.969 196.379L554.015 185.178C548.867 162.379 529.979 148.851 508.481 143.925L495.056 160.551Z" fill="#C5C5FF"/>
<path d="M508.481 143.925L503.516 136.606L486.853 157.244L495.055 160.551L508.481 143.925Z" fill="#0F4C8D"/>
<path d="M490.191 142.893C490.848 142.083 492.029 141.957 492.841 142.611L509.819 156.322C510.629 156.976 510.754 158.162 510.103 158.972C509.447 159.781 508.26 159.907 507.453 159.253L490.475 145.542C489.665 144.888 489.54 143.702 490.191 142.893Z" fill="#1B1B43"/>
<path d="M531.317 186.258C527.92 183.515 527.394 178.541 530.135 175.144C532.877 171.749 537.854 171.219 541.251 173.962C544.644 176.704 545.175 181.68 542.434 185.075C539.693 188.47 534.716 189 531.318 186.258H531.317Z" fill="white"/>
<path d="M533.247 183.866C531.174 182.192 530.853 179.152 532.528 177.077C534.204 175.002 537.241 174.679 539.314 176.354C541.391 178.03 541.713 181.069 540.037 183.143C538.362 185.218 535.323 185.541 533.247 183.865V183.866Z" fill="#1B1B43"/>
<path d="M538.261 180.294C537.881 179.987 537.822 179.432 538.131 179.052C538.436 178.673 538.992 178.612 539.369 178.92C539.749 179.226 539.811 179.782 539.502 180.162C539.197 180.542 538.641 180.601 538.261 180.295V180.294Z" fill="white"/>
<path d="M332.657 225.318L302.498 223.488L263.145 233.887C249.344 237.53 238.138 247.6 233.052 260.93L208.465 325.322L256.781 282.508L270.09 349.918L360.357 349.627L360.066 256.035L332.657 225.319V225.318Z" fill="#0F4C8D"/>
<path d="M308.595 260.262C303.13 260.262 298.026 258.134 294.649 254.372L295.296 253.792C298.909 257.818 304.619 259.883 310.565 259.299C316.938 258.68 322.507 255.117 325.845 249.52L326.591 249.966C323.108 255.801 317.3 259.518 310.648 260.163C309.959 260.229 309.273 260.262 308.594 260.262H308.595Z" fill="#C5C5FF"/>
<path d="M312.347 248.483C306.567 251.278 299.467 248.518 296.559 242.339L295.579 240.247L285.631 219.112L279.549 206.171L308.946 191.964L321.747 219.163C327.007 230.352 322.813 243.424 312.347 248.483Z" fill="#FFBC96"/>
<path d="M311.75 213.654C309.163 226.257 302.696 234.892 295.579 240.248L285.632 219.113L311.75 213.654Z" fill="#1B1B43"/>
<path d="M315.197 197.883C315.197 213.103 306.615 223.534 295.732 228.912C284.531 234.448 272.834 213.183 267.248 198.967C261.449 184.213 277.411 173.147 290.776 173.147C304.14 173.147 315.196 182.664 315.196 197.883H315.197Z" fill="#FFBC96"/>
<path d="M315.801 189.205C314.5 173.582 311.324 158.813 296.851 162.588C291.354 154.921 268.354 155.066 262.713 173.292C259.074 185.05 247.38 190.795 247.38 190.795C261.411 198.173 274.345 195.41 292.368 181.682C298.009 189.928 314.066 190.506 314.066 190.506L315.801 189.204V189.205Z" fill="#1B1B43"/>
<path d="M320.296 196.555C319.662 201.488 316.023 205.086 312.167 204.59C308.31 204.096 305.698 199.696 306.33 194.763C306.963 189.829 310.602 186.232 314.458 186.726C318.314 187.221 320.927 191.62 320.296 196.554V196.555Z" fill="#FFBC96"/>
<path d="M314.715 191.931C313.782 192.703 313.474 193.747 313.483 194.863C313.491 195.416 313.577 195.977 313.738 196.51C313.908 197.043 314.137 197.548 314.521 197.99L314.263 198.429C313.548 198.194 313.015 197.592 312.686 196.957C312.351 196.312 312.188 195.592 312.188 194.867C312.193 194.145 312.355 193.395 312.76 192.754C313.15 192.111 313.802 191.614 314.503 191.469L314.715 191.932V191.931Z" fill="#1B1B43"/>
<path d="M292.503 201.206C292.593 202.561 291.686 203.725 290.476 203.806C289.267 203.886 288.214 202.852 288.124 201.497C288.035 200.142 288.941 198.978 290.149 198.898C291.358 198.817 292.413 199.852 292.503 201.206Z" fill="#1B1B43"/>
<path d="M280.656 205.039C281.102 206.187 280.63 207.44 279.604 207.838C278.578 208.235 277.387 207.623 276.941 206.475C276.498 205.324 276.968 204.072 277.994 203.675C279.019 203.278 280.211 203.888 280.656 205.039Z" fill="#1B1B43"/>
<path d="M296.263 195.004C296.308 195.692 292.653 195.47 291.084 195.802C289.741 196.085 287.7 197.391 286.781 196.088C285.949 194.912 288.036 193.578 290.62 193.407C293.207 193.235 296.218 194.316 296.263 195.004Z" fill="#1B1B43"/>
<path d="M272.706 202.567C273.116 203.13 274.983 201.192 276.055 200.694C276.971 200.27 278.918 200.312 278.597 198.841C278.31 197.514 276.319 197.473 274.791 198.586C273.265 199.699 272.295 202.004 272.706 202.567Z" fill="#1B1B43"/>
<path d="M287.338 218.057C288.175 217.049 289.369 216.398 290.581 215.989C291.803 215.588 293.062 215.413 294.33 215.507L294.424 216.006C293.272 216.553 292.105 216.857 290.981 217.221C289.847 217.572 288.782 217.989 287.644 218.463L287.338 218.057Z" fill="#1B1B43"/>
<path d="M284.049 207.155C284.112 208.099 283.973 209.107 283.485 210.026C283.25 210.485 282.911 210.9 282.569 211.245C282.231 211.591 281.888 211.879 281.809 212.085C281.782 212.191 281.735 212.273 281.76 212.428C281.753 212.522 281.78 212.529 281.774 212.542C281.779 212.565 281.816 212.597 281.838 212.638C281.997 212.821 282.381 213.006 282.764 213.147C283.553 213.426 284.445 213.617 285.326 213.826L285.314 214.334C284.366 214.463 283.423 214.457 282.446 214.245C281.958 214.124 281.453 213.983 280.938 213.536C280.82 213.403 280.691 213.26 280.609 213.074C280.525 212.873 280.473 212.663 280.475 212.524C280.428 212.224 280.492 211.842 280.638 211.527C280.976 210.908 281.399 210.634 281.709 210.343C282.035 210.062 282.297 209.773 282.534 209.449C283.004 208.797 283.299 207.975 283.542 207.104L284.049 207.154V207.155Z" fill="#D28572"/>
<path d="M302.173 210.449C299.275 210.449 296.834 208.199 296.639 205.265C296.437 202.205 298.752 199.561 301.811 199.359C301.936 199.351 302.06 199.346 302.183 199.346C305.082 199.346 307.522 201.596 307.716 204.529C307.92 207.588 305.605 210.234 302.546 210.436C302.42 210.444 302.297 210.449 302.173 210.449Z" fill="#FFA988"/>
<path d="M382.937 256.763C374.361 238.728 356.663 226.786 336.728 225.569L332.657 225.318L362.68 293.684L395.542 281.486L382.937 256.763Z" fill="#0F4C8D"/>
<path d="M278.046 212.207C277.721 207.215 278.59 195.498 275.552 196.801C272.514 198.102 271.756 215.025 271.756 215.025C271.756 215.025 271.321 186.819 268.065 188.12C264.81 189.422 264.81 209.819 257.651 231.518L217.436 316.446C212.599 326.663 218.693 338.7 229.79 340.848C237.931 342.423 246.042 338.005 249.138 330.313C259.555 304.432 278.685 248.582 280.541 237.703C282.062 228.806 281.669 224.959 281.081 222.673C280.112 218.893 278.301 216.102 278.047 212.209L278.046 212.207Z" fill="#FFBC96"/>
<path d="M257.903 229.638C259.133 226.293 259.938 222.795 260.686 219.3C261.426 215.8 262.045 212.275 262.683 208.75L264.568 198.165C264.902 196.401 265.245 194.639 265.657 192.884C265.865 192.006 266.089 191.13 266.366 190.259C266.509 189.824 266.662 189.389 266.861 188.955C266.959 188.738 267.076 188.523 267.221 188.306C267.379 188.101 267.547 187.842 267.969 187.71L267.937 187.719C268.061 187.694 268.196 187.68 268.325 187.677C268.445 187.696 268.564 187.742 268.68 187.787C268.862 187.897 269.038 188.036 269.134 188.174C269.371 188.452 269.502 188.736 269.633 189.019C269.882 189.586 270.061 190.156 270.211 190.727C270.515 191.872 270.728 193.021 270.914 194.174C271.275 196.478 271.524 198.791 271.716 201.106C272.092 205.737 272.292 210.378 272.249 215.029L271.261 215.007C271.37 212.381 271.568 209.774 271.864 207.167C272.18 204.561 272.545 201.954 273.363 199.4C273.588 198.765 273.833 198.131 274.212 197.524C274.41 197.226 274.633 196.924 274.964 196.679C275.277 196.415 275.766 196.289 276.211 196.35C276.314 196.374 276.415 196.413 276.515 196.446C276.619 196.491 276.702 196.49 276.833 196.605C276.895 196.653 276.952 196.705 277.005 196.758C277.052 196.81 277.068 196.849 277.099 196.896C277.153 196.985 277.221 197.083 277.252 197.165C277.406 197.508 277.505 197.839 277.589 198.169C277.759 198.829 277.856 199.484 277.953 200.139C278.292 202.762 278.383 205.385 278.36 208.009C278.352 209.332 278.269 210.614 278.383 211.885C278.484 213.16 278.718 214.425 279.047 215.667C279.38 216.911 279.798 218.135 280.258 219.349C280.728 220.551 281.199 221.823 281.461 223.119C282.021 225.714 282.083 228.382 281.841 230.998C281.6 233.615 281.089 236.196 280.405 238.724L280.029 238.626C280.661 236.104 281.118 233.538 281.31 230.954C281.499 228.375 281.386 225.768 280.8 223.268C280.516 222.009 280.082 220.824 279.592 219.602C279.12 218.378 278.683 217.134 278.336 215.858C277.988 214.581 277.739 213.273 277.622 211.948C277.495 210.617 277.573 209.287 277.571 208.001C277.577 205.409 277.47 202.805 277.123 200.254C277.028 199.62 276.927 198.983 276.765 198.38C276.688 198.08 276.593 197.785 276.479 197.533C276.452 197.463 276.417 197.432 276.392 197.379C276.359 197.311 276.336 197.306 276.336 197.306C276.36 197.289 276.266 197.273 276.222 197.256C276.169 197.24 276.115 197.214 276.063 197.2C275.678 197.138 275.261 197.478 274.951 197.994C274.64 198.499 274.412 199.088 274.205 199.683C273.443 202.109 273.089 204.701 272.794 207.272C272.517 209.849 272.337 212.452 272.247 215.039L271.26 215.016C271.304 210.406 271.152 205.782 270.799 201.181C270.621 198.88 270.388 196.583 270.043 194.31C269.869 193.175 269.665 192.045 269.379 190.949C269.24 190.4 269.07 189.862 268.858 189.368C268.752 189.125 268.628 188.879 268.487 188.718C268.421 188.614 268.348 188.584 268.297 188.537C268.274 188.539 268.258 188.524 268.24 188.515C268.225 188.527 268.215 188.528 268.194 188.518L268.164 188.527C268.147 188.525 268.006 188.63 267.907 188.784C267.803 188.941 267.702 189.116 267.616 189.309C267.438 189.689 267.29 190.099 267.152 190.515C266.88 191.349 266.656 192.208 266.444 193.073C266.028 194.803 265.674 196.556 265.333 198.311L263.386 208.88C262.744 212.407 262.041 215.926 261.246 219.423C260.433 222.918 259.569 226.413 258.265 229.778L257.902 229.638H257.903Z" fill="#D28572"/>
<path d="M411.257 329.193C411.108 339.192 406.752 346.178 401.292 350.206L390.209 350.032L387.466 349.987H387.405L374.377 320.33L374.352 320.26L362.679 293.685L395.538 281.482L407.801 311.582C410.319 318.239 411.334 324.106 411.256 329.191L411.257 329.193Z" fill="#FFBC96"/>
<path d="M402.16 317.226L315.9 326.876L304.674 323.249C299.595 321.608 294.029 322.617 289.859 325.951C280.071 333.769 264.158 348.177 268.282 349.337C275.227 351.291 284.295 347.636 292.435 345.592C296.931 344.464 301.682 344.998 305.809 347.11L311.454 350.001L397.388 349.988L402.162 317.226H402.16Z" fill="#FFBC96"/>
<path d="M270.338 347.811C272.665 346.45 275.029 345.157 277.4 343.879C279.764 342.589 282.171 341.379 284.553 340.127C285.728 339.51 286.986 338.876 288.298 338.421C289.612 337.972 290.969 337.643 292.346 337.49C293.724 337.337 295.111 337.32 296.484 337.442C297.851 337.593 299.208 337.859 300.499 338.303L300.366 338.795C299.061 338.54 297.745 338.365 296.427 338.352C295.111 338.309 293.797 338.398 292.506 338.616C291.216 338.835 289.947 339.159 288.728 339.62C287.493 340.05 286.358 340.666 285.14 341.276C282.724 342.47 280.332 343.703 277.898 344.86C275.472 346.03 273.04 347.179 270.569 348.264L270.339 347.811H270.338Z" fill="#D28572"/>
<path d="M271.592 343.501C273.159 342.017 274.798 340.623 276.469 339.269C278.137 337.907 279.855 336.607 281.613 335.359C283.382 334.125 285.172 332.915 287.076 331.867C288.987 330.866 290.932 329.771 293.215 329.558L293.258 330.064C292.271 330.324 291.309 330.708 290.391 331.242C289.453 331.711 288.554 332.284 287.656 332.846C285.862 333.981 284.111 335.201 282.361 336.418C280.607 337.637 278.885 338.906 277.138 340.143C275.401 341.393 273.672 342.66 271.917 343.894L271.592 343.502V343.501Z" fill="#D28572"/>
<path d="M374.26 320.913L374.228 319.612L385.8 319.321L385.832 320.624L374.26 320.913Z" fill="#D28572"/>
<path d="M362.292 293.876L353.892 276.769L354.67 276.385L363.07 293.494L362.292 293.876Z" fill="#EBEBFF"/>
<path d="M401.293 350.207L391.311 350.05L390.21 350.033L390.202 349.988H397.388L400.348 329.661C402.257 328.915 404.33 328.509 406.501 328.509C408.15 328.509 409.748 328.742 411.258 329.193C411.109 339.193 406.753 346.178 401.293 350.206V350.207Z" fill="#FFA988"/>
<path d="M390.201 349.988C389.792 348.539 389.576 347.013 389.576 345.432C389.576 338.256 394.037 332.127 400.346 329.663C400.348 329.661 400.348 329.661 400.348 329.661L397.388 349.988H390.202H390.201Z" fill="#FFA988"/>
<path d="M224.381 349.937H273.852V339.522H224.381V349.937Z" fill="#1B1B43"/>
<path d="M241.159 349.937H162.611L140.046 271.389H218.594L241.159 349.937Z" fill="#EBEBFF"/>
<path d="M162.298 350.027L139.613 271.065H163.914V271.716H140.479L162.924 349.847L162.298 350.027Z" fill="#1B1B43"/>
<path d="M232.747 321.222L218.349 271.716H182.141V271.065H218.837L233.372 321.04L232.747 321.222Z" fill="#1B1B43"/>
<path d="M242.463 79.8463C242.463 83.4415 239.547 86.3549 235.953 86.3549C232.359 86.3549 229.444 83.4404 229.444 79.8463C229.444 76.2511 232.358 73.3367 235.953 73.3367C239.547 73.3367 242.463 76.2511 242.463 79.8463Z" fill="#EBEBFF"/>
<path d="M106.341 235.206C106.341 239.839 102.584 243.596 97.9505 243.596C93.3168 243.596 89.5605 239.839 89.5605 235.206C89.5605 230.572 93.3168 226.816 97.9505 226.816C102.584 226.816 106.341 230.571 106.341 235.206Z" fill="#EBEBFF"/>
<path d="M515.426 251.696C515.426 255.292 512.509 258.207 508.915 258.207C505.321 258.207 502.404 255.292 502.404 251.696C502.404 248.102 505.321 245.189 508.915 245.189C512.509 245.189 515.426 248.102 515.426 251.696Z" fill="#EBEBFF"/>
<path d="M496.927 235.584L496.614 234.774C497.672 234.364 498.787 234.123 499.928 234.056L499.973 234.924C498.929 234.984 497.901 235.206 496.927 235.584ZM505.944 236.455C505.059 235.895 504.093 235.48 503.082 235.221L503.296 234.381C504.399 234.663 505.448 235.113 506.409 235.721L505.945 236.455H505.944ZM492.133 239.459L491.411 238.982C492.034 238.032 492.799 237.188 493.684 236.474L494.227 237.148C493.412 237.806 492.71 238.584 492.133 239.459ZM509.91 241.171C509.517 240.204 508.974 239.308 508.296 238.505L508.96 237.947C509.696 238.82 510.285 239.792 510.716 240.843L509.908 241.171H509.91ZM489.618 245.432C489.614 245.291 489.61 245.145 489.61 245.003C489.61 244.004 489.744 243.018 490.007 242.068L490.843 242.298C490.601 243.172 490.48 244.082 490.48 245.001C490.48 245.132 490.485 245.265 490.488 245.398L489.618 245.433V245.432ZM511.013 248.347L510.181 248.082C510.503 247.089 510.662 246.051 510.662 245.001C510.662 244.734 510.654 244.468 510.633 244.209L511.498 244.139C511.519 244.425 511.532 244.713 511.532 245.001C511.532 246.144 511.356 247.269 511.014 248.348L511.013 248.347ZM491.909 251.717C491.211 250.818 490.659 249.821 490.271 248.754L491.086 248.456C491.445 249.438 491.951 250.356 492.594 251.186L491.909 251.717ZM507.119 253.79L506.602 253.096C507.441 252.469 508.177 251.719 508.787 250.869L509.489 251.374C508.828 252.298 508.035 253.111 507.12 253.791L507.119 253.79ZM497.434 255.505C496.342 255.178 495.315 254.688 494.375 254.042L494.868 253.326C495.733 253.919 496.677 254.373 497.68 254.672L497.434 255.504V255.505ZM500.79 255.959L500.773 255.09C501.826 255.069 502.853 254.888 503.844 254.55L504.123 255.372C503.049 255.738 501.93 255.936 500.788 255.958L500.79 255.959Z" fill="#9192FF"/>
<path d="M354.857 90.2607C352.705 90.2607 350.953 92.0125 350.953 94.1667C350.953 96.3198 352.705 98.0727 354.857 98.0727C357.011 98.0727 358.765 96.3198 358.765 94.1667C358.765 92.0136 357.011 90.2607 354.857 90.2607ZM354.857 98.9391C352.226 98.9391 350.084 96.7983 350.084 94.1656C350.084 91.534 352.225 89.3921 354.857 89.3921C357.491 89.3921 359.633 91.5329 359.633 94.1656C359.633 96.7972 357.491 98.9391 354.857 98.9391Z" fill="#9192FF"/>
<path d="M93.3223 350.566H520.922V349.265H93.3223V350.566Z" fill="#1B1B43"/>
<path d="M323.229 141.705C322.803 143.446 322.308 145.163 321.792 146.872L320.995 149.428L320.157 151.969L319.761 153.168L318.73 152.389L316.301 150.553C315.494 149.939 314.701 149.304 313.901 148.681L315.327 148.297C314.99 149.104 314.629 149.901 314.28 150.703C313.929 151.505 313.554 152.296 313.193 153.094C312.814 153.883 312.448 154.678 312.051 155.461C311.665 156.248 311.26 157.028 310.838 157.8L310.151 157.518C310.392 156.672 310.649 155.832 310.925 155.001C311.191 154.165 311.486 153.341 311.77 152.511C312.07 151.689 312.358 150.862 312.67 150.044C312.983 149.228 313.284 148.406 313.609 147.593L314.06 146.465L315.034 147.21C315.842 147.825 316.658 148.429 317.457 149.055L319.853 150.934L318.426 151.354L319.383 148.854L320.379 146.37C321.06 144.72 321.762 143.077 322.531 141.458L323.23 141.708L323.229 141.705Z" fill="#F9CD34"/>
<path d="M260.371 141.705C260.797 143.446 261.292 145.163 261.808 146.872L262.605 149.428L263.443 151.969L263.839 153.168L264.87 152.389L267.299 150.553C268.106 149.939 268.899 149.304 269.699 148.681L268.273 148.297C268.61 149.104 268.971 149.901 269.32 150.703C269.671 151.505 270.046 152.296 270.407 153.094C270.786 153.883 271.152 154.678 271.549 155.461C271.935 156.248 272.34 157.028 272.762 157.8L273.449 157.518C273.208 156.672 272.951 155.832 272.675 155.001C272.409 154.165 272.114 153.341 271.83 152.511C271.53 151.689 271.242 150.862 270.93 150.044C270.617 149.228 270.316 148.406 269.991 147.593L269.54 146.465L268.566 147.21C267.758 147.825 266.942 148.429 266.143 149.055L263.747 150.934L265.174 151.354L264.217 148.854L263.221 146.37C262.54 144.72 261.838 143.077 261.069 141.458L260.37 141.708L260.371 141.705Z" fill="#F9CD34"/>
</svg>
