<svg width="21" height="19" viewBox="0 0 21 19" fill="none" xmlns="http://www.w3.org/2000/svg">
<path d="M6.25 14.7083C5.67708 14.7083 5.18681 14.5045 4.77917 14.0969C4.37083 13.6885 4.16667 13.1979 4.16667 12.625V6.375C4.16667 6.07986 4.26632 5.83229 4.46563 5.63229C4.66563 5.43299 4.91319 5.33333 5.20833 5.33333C5.50347 5.33333 5.75104 5.43299 5.95104 5.63229C6.15035 5.83229 6.25 6.07986 6.25 6.375V12.625H14.5833C14.8785 12.625 15.1257 12.7247 15.325 12.924C15.525 13.124 15.625 13.3715 15.625 13.6667C15.625 13.9618 15.525 14.209 15.325 14.4083C15.1257 14.6083 14.8785 14.7083 14.5833 14.7083H6.25ZM10.4167 10.5417C9.84375 10.5417 9.35347 10.3375 8.94583 9.92917C8.5375 9.52153 8.33333 9.03125 8.33333 8.45833V2.20833C8.33333 1.63542 8.5375 1.14479 8.94583 0.736458C9.35347 0.328819 9.84375 0.125 10.4167 0.125H18.75C19.3229 0.125 19.8135 0.328819 20.2219 0.736458C20.6295 1.14479 20.8333 1.63542 20.8333 2.20833V8.45833C20.8333 9.03125 20.6295 9.52153 20.2219 9.92917C19.8135 10.3375 19.3229 10.5417 18.75 10.5417H10.4167ZM10.4167 8.45833H18.75V4.29167H10.4167V8.45833ZM2.08333 18.875C1.51042 18.875 1.02014 18.6712 0.6125 18.2635C0.204167 17.8552 0 17.3646 0 16.7917V10.5417C0 10.2465 0.1 9.99896 0.3 9.79896C0.499306 9.59965 0.746528 9.5 1.04167 9.5C1.33681 9.5 1.58438 9.59965 1.78438 9.79896C1.98368 9.99896 2.08333 10.2465 2.08333 10.5417V16.7917H10.4167C10.7118 16.7917 10.9594 16.8917 11.1594 17.0917C11.3587 17.291 11.4583 17.5382 11.4583 17.8333C11.4583 18.1285 11.3587 18.3757 11.1594 18.575C10.9594 18.775 10.7118 18.875 10.4167 18.875H2.08333Z" fill="#9DB6D0"/>
</svg>
