<svg width="21" height="19" viewBox="0 0 21 19" fill="none" xmlns="http://www.w3.org/2000/svg">
<path d="M6.25 14.5833C5.67708 14.5833 5.18681 14.3795 4.77917 13.9719C4.37083 13.5635 4.16667 13.0729 4.16667 12.5V6.25C4.16667 5.95486 4.26632 5.70729 4.46563 5.50729C4.66563 5.30799 4.91319 5.20833 5.20833 5.20833C5.50347 5.20833 5.75104 5.30799 5.95104 5.50729C6.15035 5.70729 6.25 5.95486 6.25 6.25V12.5H14.5833C14.8785 12.5 15.1257 12.5997 15.325 12.799C15.525 12.999 15.625 13.2465 15.625 13.5417C15.625 13.8368 15.525 14.084 15.325 14.2833C15.1257 14.4833 14.8785 14.5833 14.5833 14.5833H6.25ZM10.4167 10.4167C9.84375 10.4167 9.35347 10.2125 8.94583 9.80417C8.5375 9.39653 8.33333 8.90625 8.33333 8.33333V2.08333C8.33333 1.51042 8.5375 1.01979 8.94583 0.611458C9.35347 0.203819 9.84375 0 10.4167 0H18.75C19.3229 0 19.8135 0.203819 20.2219 0.611458C20.6295 1.01979 20.8333 1.51042 20.8333 2.08333V8.33333C20.8333 8.90625 20.6295 9.39653 20.2219 9.80417C19.8135 10.2125 19.3229 10.4167 18.75 10.4167H10.4167ZM10.4167 8.33333H18.75V4.16667H10.4167V8.33333ZM2.08333 18.75C1.51042 18.75 1.02014 18.5462 0.6125 18.1385C0.204167 17.7302 0 17.2396 0 16.6667V10.4167C0 10.1215 0.1 9.87396 0.3 9.67396C0.499306 9.47465 0.746528 9.375 1.04167 9.375C1.33681 9.375 1.58438 9.47465 1.78438 9.67396C1.98368 9.87396 2.08333 10.1215 2.08333 10.4167V16.6667H10.4167C10.7118 16.6667 10.9594 16.7667 11.1594 16.9667C11.3587 17.166 11.4583 17.4132 11.4583 17.7083C11.4583 18.0035 11.3587 18.2507 11.1594 18.45C10.9594 18.65 10.7118 18.75 10.4167 18.75H2.08333Z" fill="#0F4C8D"/>
</svg>
