<svg width="78" height="62" viewBox="0 0 78 62" fill="none" xmlns="http://www.w3.org/2000/svg">
<path d="M7.8 62C5.655 62 3.8194 61.2418 2.2932 59.7254C0.7644 58.2064 0 56.3812 0 54.25V7.75C0 5.61875 0.7644 3.79492 2.2932 2.2785C3.8194 0.759499 5.655 0 7.8 0H27.9825C29.0225 0 30.0144 0.19375 30.9582 0.58125C31.8994 0.96875 32.7275 1.51771 33.4425 2.22812L39 7.75H70.2C72.345 7.75 74.1819 8.5095 75.7107 10.0285C77.2369 11.5449 78 13.3687 78 15.5V54.25C78 56.3812 77.2369 58.2064 75.7107 59.7254C74.1819 61.2418 72.345 62 70.2 62H7.8Z" fill="#FCD462"/>
</svg>
