<?xml version="1.0" encoding="UTF-8"?>
<!DOCTYPE svg PUBLIC "-//W3C//DTD SVG 1.1//EN" "http://www.w3.org/Graphics/SVG/1.1/DTD/svg11.dtd">
<!-- Creator: CorelDRAW -->
<svg xmlns="http://www.w3.org/2000/svg" xml:space="preserve" width="8.5in" height="11in" version="1.1" style="shape-rendering:geometricPrecision; text-rendering:geometricPrecision; image-rendering:optimizeQuality; fill-rule:evenodd; clip-rule:evenodd"
viewBox="0 0 8500 11000"
 xmlns:xlink="http://www.w3.org/1999/xlink"
 xmlns:xodm="http://www.corel.com/coreldraw/odm/2003">
 <defs>
  <style type="text/css">
   <![CDATA[
    .fil1 {fill:#016C40}
    .fil3 {fill:#020000}
    .fil0 {fill:#CD2027}
    .fil2 {fill:#F9D116}
   ]]>
  </style>
 </defs>
 <g id="Layer_x0020_1">
  <metadata id="CorelCorpID_0Corel-Layer"/>
  <g id="_2479888385792">
   <polygon class="fil0" points="878.88,4865.11 7621.12,4865.53 7621.12,3345.65 878.88,3345.65 "/>
   <polygon class="fil1" points="878.88,7654.35 7621.12,7654.35 7621.12,6435.33 878.88,6435.19 "/>
   <path class="fil2" d="M4309.62 4888.18c17.72,10.46 16.33,25.52 28.5,64l167.61 517.66 608.36 0.21c-32.54,47.02 -425.96,295.57 -487.17,359.14 18.61,120.86 157.7,446.63 175.42,573.75 -70.53,-18.5 -409.74,-322.21 -489.85,-356.12l-497.52 374.04c-18.54,25.73 14.13,8.75 -34.26,16.19l-2901.85 0.48 0 -2.35 6742.24 0.14 0 -1569.8 -6742.24 -0.42 0 13.96 3233.61 0c27.28,0 202.32,-7.5 197.13,9.11z"/>
   <path class="fil2" d="M878.88 6437.54l2901.85 -0.48c48.39,-7.43 15.72,9.55 34.26,-16.19l182.91 -591.68c-28.5,-30.42 -87.18,-66.59 -124.7,-94.08 -58.79,-43.07 -339.54,-232.28 -361.96,-265.29l608.06 -0.76c34.59,-79.13 65.84,-197.28 94.06,-287.94 26.85,-86.27 62.7,-219.61 96.26,-292.94 5.19,-16.61 -169.86,-9.11 -197.13,-9.11l-3233.61 0 0 1558.47z"/>
   <path class="fil3" d="M3814.99 6420.87l497.52 -374.04c80.11,33.91 419.31,337.62 489.85,356.12 -17.72,-127.12 -156.81,-452.89 -175.42,-573.75 61.21,-63.57 454.63,-312.13 487.17,-359.14l-608.36 -0.21 -167.61 -517.66c-12.17,-38.47 -10.78,-53.53 -28.5,-64 -33.56,73.33 -69.41,206.67 -96.26,292.94 -28.22,90.66 -59.47,208.81 -94.06,287.94l-608.06 0.76c22.42,33.01 303.17,222.22 361.96,265.29 37.52,27.49 96.2,63.66 124.7,94.08l-182.91 591.68z"/>
  </g>
 </g>
</svg>
