<svg width="108" height="108" viewBox="0 0 108 108" fill="none" xmlns="http://www.w3.org/2000/svg">
<path d="M54 80.9999C59.7287 80.9999 65.2227 78.7242 69.2735 74.6734C73.3243 70.6226 75.6 65.1286 75.6 59.3999H32.4C32.4 65.1286 34.6757 70.6226 38.7265 74.6734C42.7773 78.7242 48.2713 80.9999 54 80.9999ZM43.2 43.1999C43.2 44.6321 42.6311 46.0056 41.6184 47.0183C40.6057 48.031 39.2322 48.5999 37.8 48.5999C36.3678 48.5999 34.9943 48.031 33.9816 47.0183C32.9689 46.0056 32.4 44.6321 32.4 43.1999C32.4 41.7678 32.9689 40.3942 33.9816 39.3816C34.9943 38.3689 36.3678 37.7999 37.8 37.7999C39.2322 37.7999 40.6057 38.3689 41.6184 39.3816C42.6311 40.3942 43.2 41.7678 43.2 43.1999V43.1999ZM70.2 48.5999C71.6322 48.5999 73.0057 48.031 74.0184 47.0183C75.0311 46.0056 75.6 44.6321 75.6 43.1999C75.6 41.7678 75.0311 40.3942 74.0184 39.3816C73.0057 38.3689 71.6322 37.7999 70.2 37.7999C68.7678 37.7999 67.3943 38.3689 66.3816 39.3816C65.3689 40.3942 64.8 41.7678 64.8 43.1999C64.8 44.6321 65.3689 46.0056 66.3816 47.0183C67.3943 48.031 68.7678 48.5999 70.2 48.5999V48.5999Z" fill="#66A042"/>
<path fill-rule="evenodd" clip-rule="evenodd" d="M108 54C108 83.8242 83.8242 108 54 108C24.1758 108 0 83.8242 0 54C0 24.1758 24.1758 0 54 0C83.8242 0 108 24.1758 108 54ZM97.2 54C97.2 65.4574 92.6486 76.4454 84.547 84.547C76.4454 92.6486 65.4574 97.2 54 97.2C42.5426 97.2 31.5546 92.6486 23.453 84.547C15.3514 76.4454 10.8 65.4574 10.8 54C10.8 42.5426 15.3514 31.5546 23.453 23.453C31.5546 15.3514 42.5426 10.8 54 10.8C65.4574 10.8 76.4454 15.3514 84.547 23.453C92.6486 31.5546 97.2 42.5426 97.2 54Z" fill="#66A042"/>
</svg>
