<?xml version="1.0" encoding="UTF-8"?>
<!DOCTYPE svg PUBLIC "-//W3C//DTD SVG 1.1//EN" "http://www.w3.org/Graphics/SVG/1.1/DTD/svg11.dtd">
<!-- Creator: CorelDRAW -->
<svg xmlns="http://www.w3.org/2000/svg" xml:space="preserve" width="8.5in" height="11in" version="1.1" style="shape-rendering:geometricPrecision; text-rendering:geometricPrecision; image-rendering:optimizeQuality; fill-rule:evenodd; clip-rule:evenodd"
viewBox="0 0 8500 11000"
 xmlns:xlink="http://www.w3.org/1999/xlink"
 xmlns:xodm="http://www.corel.com/coreldraw/odm/2003">
 <defs>
  <style type="text/css">
   <![CDATA[
    .fil4 {fill:#000088}
    .fil5 {fill:#030389}
    .fil1 {fill:#128807}
    .fil3 {fill:#FDFDFE}
    .fil2 {fill:#FEFEFE}
    .fil0 {fill:#FF9933}
   ]]>
  </style>
 </defs>
 <g id="Layer_x0020_1">
  <metadata id="CorelCorpID_0Corel-Layer"/>
  <g id="_2443991769552">
   <polygon class="fil0" points="-104.54,4511.36 8604.54,4511.36 8604.54,2608.09 -104.54,2608.09 "/>
   <polygon class="fil1" points="-104.54,8391.91 8604.54,8391.91 8604.54,6546.65 -104.54,6546.65 "/>
   <path class="fil2" d="M4269.1 4720.46c451.28,-55.42 853.59,275.99 903.18,719.43 50.19,448.77 -273.44,845.82 -713.69,898.66 -453.05,54.37 -855.97,-274.76 -905.45,-720.47 -50.18,-452 275.07,-843.48 715.96,-897.61zm-4373.65 1826.19l8709.09 0 0 -2035.29 -8709.09 0 0 2035.29z"/>
   <path class="fil3" d="M4252.09 5294.17c13.47,31.72 27.01,96.67 59.59,103 1.74,-39.97 -26.39,-83.84 -40.67,-122.44 -15.74,-42.56 -21.72,-90.27 -30.84,-135.07 -13.46,-66.16 -48.86,-201.14 -49.26,-260.92 26.7,119.9 98.45,253.41 122.95,376.23 6.44,32.3 1.89,120.11 30.99,132.75 17.75,-24.29 -0.37,-79.7 -3.68,-112.51 -6.85,-67.74 6.13,-349.89 21.33,-391.69 15.26,39.34 16.07,210.31 19.54,265.93 6.07,97.4 -13.78,220.98 -1.86,238.25 27.89,-11.62 24.49,-92.24 30.05,-123.99 6.21,-35.53 24.53,-85.53 36.81,-120.57 25.63,-73.15 45.09,-175.8 81.31,-234.16 -1.06,62.36 -34.51,189.94 -48.44,257.91 -17.94,87.54 -67.21,206.81 -66.52,230.16 23.39,-3.44 8.97,15.63 26.15,-20.11 35.75,-74.39 50.15,-115.42 100.34,-191.28 29.77,-44.99 105.09,-175.62 139.92,-203.65 -14.35,53.5 -83.94,175.37 -112.17,231.64l-95.75 153.81c-22.02,28.45 -30.3,25.05 -19.9,51.79 29.72,-6.8 63.61,-70.89 88.44,-99.22 42.92,-49 252.76,-230.28 300.92,-266.93 -86.82,66.86 -179.04,225.87 -268.37,299.06 -27.33,22.4 -88.6,57.75 -98.89,87.33 20.26,11.99 31.74,-4.16 55.44,-22.27 16.43,-12.56 35.49,-28.34 52.39,-39.79 70.01,-47.45 305.55,-163.67 374.85,-188.6 -43.83,6.27 -267.79,186.87 -341.51,222.28 -34.34,16.49 -105.16,31.04 -120.84,64.04 26.54,10.94 74.68,-17.3 104.68,-29.28 73.96,-29.54 296.38,-77.07 364.48,-78.93 -3.26,2.91 -3.37,5.26 -14.2,10.96 -4.05,2.13 -7.34,2.94 -12.12,4.82 -82.9,32.66 -236.43,86.7 -316.92,99.74 -21.99,3.56 -44.12,7.28 -66.23,10.26 -67.55,9.11 -44.74,11.24 -48.63,24.15 39.44,5.7 82.5,-5.76 123.33,-9.34 105.03,-9.2 262.31,10.61 369.04,18.35 -36.63,19.93 -192.4,18.53 -245.83,22.08 -89.32,5.94 -222.09,-9.4 -246.49,-6.19 3.55,12.3 -18.85,8.83 18.55,20.69 25.59,8.11 102.02,11.18 218.2,49.34 65.64,21.56 137.78,37.97 201.1,66.15 19.13,8.51 15.44,9.73 20.19,13.95 -59,-1.5 -187.25,-35.14 -251.93,-49.06 -60.62,-13.05 -200.57,-66.33 -217.21,-59.62 11.91,27.78 24.37,22.85 56.24,36.35 140.64,59.59 265.21,160.89 392.62,244.33 -76.49,-28.95 -173.05,-83.26 -247.86,-121.82 -35.12,-18.1 -89.02,-41.58 -119.07,-64.06 -26.71,-19.99 -73.57,-72.3 -103.46,-60.43 12.34,32.63 70.64,65.44 99.54,89.14 82.32,67.51 193.15,243.93 268.66,298.55 -73.72,-52.25 -135.06,-124.36 -205.26,-178.64 -59.11,-45.7 -173.37,-184.69 -183.28,-187.1 -11.36,26.46 0.63,27.98 22.56,56.46l95.06 154.49c28.14,56.61 94.68,172 109.54,226.09 -53.33,-42.69 -196.77,-284.63 -231.39,-370.75 -12.52,-31.14 -7.3,-39.44 -34.59,-44.24 -1.92,33.46 19.68,71.65 33.05,104.19 30.54,74.35 75.33,284.24 74.4,352.11l-24.08 -51.84c-6.08,-19.18 -12.31,-38.13 -18.53,-57.23 -23.85,-73.27 -58.07,-147.46 -69.77,-224.05 -5.69,-37.21 -1.63,-94.67 -30.26,-114.12 -12.08,33.72 2.83,81.95 6.46,121.16 3.96,42.8 -0.99,91.93 -3.94,135.18 -3.63,53.17 -5.66,225.84 -18.59,262.54 -13.98,-42.27 -28.89,-335.16 -21.28,-405.06 3.53,-32.43 21.35,-89.81 3.55,-113.61 -29.43,12.55 -24.59,106.15 -32.49,138.87 -28.39,117.69 -98.84,255.31 -121.18,369.6 1.11,-58.87 55.31,-332.47 82.57,-401.48 14.17,-35.87 40.22,-79.23 37.7,-116.42 -28.63,5.76 -23.52,19.44 -36.78,50.73 -37.6,88.68 -171.85,318.27 -229.24,364.71 17,-57.21 128.01,-280.33 172.74,-338.06 19.64,-25.35 67.12,-69.72 54.11,-99.35 -19.09,2.15 -70.35,78.8 -87.02,99.57 -32.48,40.49 -266.46,243.06 -300.98,266.13 55.69,-36.52 197.96,-236.23 268.54,-298.29 27.67,-24.32 89.15,-57.08 98.78,-89.09 -39.19,-3.38 -78.61,45 -112.07,67.65 -64.21,43.48 -294.09,156.36 -357.28,178.54 68.39,-41.48 149.22,-98.84 216.52,-144.33 58.05,-39.23 113.15,-72.55 175.88,-98.69 47,-19.59 43.86,-8.08 56.34,-37.74 -29.25,-11.21 -84.58,22.72 -116.46,34.93 -58.04,22.24 -371.87,92.45 -397.96,81.86 114.33,-35.63 259.23,-97.67 373.52,-121.39 42.56,-8.83 101.35,-4.81 133.02,-28.93 -25.04,-16.78 -23.17,-10.89 -59.35,-6.15 -86.3,11.3 -369.89,12.89 -421.12,-18.58 78.91,-4.56 157.35,-9.64 236.27,-14.05 94.54,-5.29 220.76,8.34 240.81,6.09 -3.54,-12.91 19.28,-9.17 -18.53,-21.24l-104.15 -14.56c-37.12,-6.34 -78.06,-22.93 -114.33,-34.68l-220.69 -79.88c70.09,1.03 293.64,49.6 370.2,80.68 29.33,11.91 71.41,38.5 98.84,27.79 -12.25,-26.88 -25.94,-23.87 -56.84,-36.93 -140.74,-59.44 -262.75,-164.26 -392.09,-243.65 68.11,24.11 174.97,83.47 242.31,118.81 38.69,20.31 83.97,40.04 119.38,63.51 29.35,19.46 74.59,70.69 103.61,66.61 6.04,-26.24 -57.14,-62.33 -80.7,-81.04 -57.93,-46.02 -225.09,-228.5 -248.79,-278.3 39.76,19.52 147.1,125.83 190.24,162.19l164.34 172.66c10.82,-23.52 17.8,-1.17 -3.65,-33.04 -3.54,-5.26 -14.17,-17.81 -18.69,-23.69 -65.23,-84.78 -179.02,-291.91 -204.85,-380.61 33.52,27.35 181.96,253.93 206.84,312.53zm513.38 -308.92c0.07,-38.73 8.09,-59.89 -95.74,-96.26 -55.56,33.93 -55.65,15.04 -73.42,-34.26l-101.01 -24.41c-44.51,56.21 -54.19,23.82 -82.93,-12.8l-99.64 1.43c-29.48,37.79 -37.22,65.85 -83.39,9.33l-97.72 24.76 -19.65 46.06c-93.11,22 8.21,-51.14 -147.7,37.52l-7.34 48.93c-28.28,19.22 -30.86,11.66 -62.2,4.85l-71.65 76.72c22.5,54.07 -2.96,60.76 -53.91,63.85l-48 87.1c17.71,46.11 38.58,62.98 -32.39,75.69l-26.55 97.77c17.88,26.68 27.12,19.44 27.92,61.18l-38.58 22.77 2.84 107.2 34.21 25.15c0.96,39.46 -7.73,32.64 -26.77,59.22l28.43 95.42c67.38,22.26 50.37,31.01 30.68,78.1l49.05 86.45c50.53,4.3 76.53,10.95 51.78,65.6l73.57 74.96c30.71,-5.82 32.85,-13.4 63.65,5.32l5.99 48.94c155.7,88.04 52.34,16.23 149.48,36.8l17.9 46.88 96.78 22.27 32.51 -26.9c36.72,3.62 32.2,14.48 50.94,40.35l100.02 -1.25 32.97 -38.48c34.47,-1.45 30.62,3.28 50.35,29.52l100.39 -29.7 17.26 -41.34c91.39,-23.98 -8.99,51.87 147.46,-37.94l7.61 -48.46c27.98,-19.7 30.43,-12.09 62.09,-4.74l71.7 -77.43c-28.28,-66.19 21.94,-61.69 53.07,-63.73l48.15 -87.21c-30.27,-79.21 -16.57,-49.11 35.91,-82.3l20.95 -98.96c-24.19,-18.28 -24.52,-18.78 -24.91,-53.12l38.24 -23.17 -3.31 -107.08 -33.84 -25.39c-0.64,-39.18 8.97,-32.31 26.68,-59.05l-25.37 -90.8c-28.18,-18.57 -23.54,-0.36 -47.8,-27.66 -4.81,-34.84 3.59,-27.33 14.27,-55.34l-50.66 -85.77c-38.4,-3.72 -78.32,-2.17 -49.97,-65.97l-74.27 -75.11c-28.72,6.41 -35.17,13.06 -64.12,-5.51z"/>
   <path class="fil4" d="M4765.47 4985.25c28.95,18.56 35.4,11.92 64.12,5.51l74.27 75.11c-28.35,63.8 11.57,62.25 49.97,65.97l50.66 85.77c-10.68,28 -19.08,20.5 -14.27,55.34 24.27,27.3 19.62,9.09 47.8,27.66l25.37 90.8c-17.7,26.73 -27.31,19.87 -26.68,59.05l33.84 25.39 3.31 107.08 -38.24 23.17c0.4,34.34 0.72,34.84 24.91,53.12l-20.95 98.96c-52.48,33.19 -66.19,3.09 -35.91,82.3l-48.15 87.21c-31.12,2.04 -81.35,-2.46 -53.07,63.73l-71.7 77.43c-31.67,-7.35 -34.12,-14.96 -62.09,4.74l-7.61 48.46c-156.46,89.81 -56.07,13.96 -147.46,37.94l-17.26 41.34 -100.39 29.7c-19.73,-26.23 -15.87,-30.96 -50.35,-29.52l-32.97 38.48 -100.02 1.25c-18.74,-25.87 -14.22,-36.73 -50.94,-40.35l-32.51 26.9 -96.78 -22.27 -17.9 -46.88c-97.14,-20.57 6.23,51.24 -149.48,-36.8l-5.99 -48.94c-30.8,-18.72 -32.93,-11.14 -63.65,-5.32l-73.57 -74.96c24.76,-54.65 -1.25,-61.3 -51.78,-65.6l-49.05 -86.45c19.69,-47.09 36.7,-55.84 -30.68,-78.1l-28.43 -95.42c19.04,-26.58 27.73,-19.76 26.77,-59.22l-34.21 -25.15 -2.84 -107.2 38.58 -22.77c-0.8,-41.74 -10.04,-34.5 -27.92,-61.18l26.55 -97.77c70.96,-12.71 50.09,-29.57 32.39,-75.69l48 -87.1c50.95,-3.09 76.41,-9.78 53.91,-63.85l71.65 -76.72c31.33,6.81 33.92,14.36 62.2,-4.85l7.34 -48.93c155.91,-88.65 54.59,-15.52 147.7,-37.52l19.65 -46.06 97.72 -24.76c46.18,56.53 53.91,28.46 83.39,-9.33l99.64 -1.43c28.74,36.62 38.42,69.01 82.93,12.8l101.01 24.41c17.78,49.31 17.87,68.2 73.42,34.26 103.83,36.37 95.81,57.52 95.74,96.26zm-496.37 -264.79c-440.88,54.14 -766.13,445.61 -715.96,897.61 49.48,445.71 452.4,774.84 905.45,720.47 440.25,-52.83 763.87,-449.89 713.69,-898.66 -49.59,-443.43 -451.9,-774.84 -903.18,-719.43z"/>
   <path class="fil5" d="M4311.68 5397.17c-32.58,-6.33 -46.12,-71.28 -59.59,-103 -24.88,-58.6 -173.31,-285.19 -206.84,-312.53 25.83,88.7 139.62,295.82 204.85,380.61 4.52,5.88 15.15,18.43 18.69,23.69 21.45,31.88 14.47,9.52 3.65,33.04l-164.34 -172.66c-43.14,-36.35 -150.49,-142.66 -190.24,-162.19 23.69,49.79 190.85,232.28 248.79,278.3 23.56,18.72 86.74,54.8 80.7,81.04 -29.02,4.07 -74.26,-47.15 -103.61,-66.61 -35.41,-23.47 -80.69,-43.2 -119.38,-63.51 -67.33,-35.34 -174.2,-94.71 -242.31,-118.81 129.34,79.4 251.36,184.21 392.09,243.65 30.89,13.05 44.59,10.05 56.84,36.93 -27.43,10.71 -69.52,-15.88 -98.84,-27.79 -76.56,-31.08 -300.11,-79.65 -370.2,-80.68l220.69 79.88c36.28,11.75 77.22,28.33 114.33,34.68l104.15 14.56c37.81,12.07 14.99,8.33 18.53,21.24 -20.05,2.25 -146.27,-11.38 -240.81,-6.09 -78.91,4.41 -157.35,9.49 -236.27,14.05 51.23,31.47 334.82,29.88 421.12,18.58 36.19,-4.74 34.31,-10.62 59.35,6.15 -31.67,24.12 -90.46,20.09 -133.02,28.93 -114.29,23.72 -259.19,85.76 -373.52,121.39 26.09,10.59 339.91,-59.62 397.96,-81.86 31.88,-12.21 87.21,-46.14 116.46,-34.93 -12.48,29.66 -9.34,18.15 -56.34,37.74 -62.72,26.14 -117.83,59.46 -175.88,98.69 -67.31,45.49 -148.13,102.85 -216.52,144.33 63.19,-22.18 293.07,-135.06 357.28,-178.54 33.46,-22.66 72.89,-71.04 112.07,-67.65 -9.63,32.01 -71.11,64.76 -98.78,89.09 -70.59,62.06 -212.85,261.77 -268.54,298.29 34.52,-23.07 268.5,-225.63 300.98,-266.13 16.66,-20.78 67.92,-97.42 87.02,-99.57 13,29.62 -34.47,73.99 -54.11,99.35 -44.73,57.73 -155.74,280.85 -172.74,338.06 57.39,-46.44 191.64,-276.04 229.24,-364.71 13.26,-31.3 8.15,-44.98 36.78,-50.73 2.53,37.19 -23.53,80.55 -37.7,116.42 -27.26,69.01 -81.46,342.61 -82.57,401.48 22.34,-114.29 92.79,-251.91 121.18,-369.6 7.9,-32.73 3.06,-126.32 32.49,-138.87 17.8,23.8 -0.02,81.18 -3.55,113.61 -7.61,69.9 7.3,362.8 21.28,405.06 12.93,-36.7 14.96,-209.37 18.59,-262.54 2.95,-43.25 7.9,-92.38 3.94,-135.18 -3.63,-39.21 -18.55,-87.44 -6.46,-121.16 28.62,19.44 24.57,76.91 30.26,114.12 11.7,76.59 45.92,150.78 69.77,224.05 6.22,19.09 12.44,38.05 18.53,57.23l24.08 51.84c0.93,-67.86 -43.86,-277.75 -74.4,-352.11 -13.37,-32.55 -34.97,-70.74 -33.05,-104.19 27.3,4.81 22.08,13.11 34.59,44.24 34.62,86.12 178.06,328.06 231.39,370.75 -14.87,-54.09 -81.4,-169.48 -109.54,-226.09l-95.06 -154.49c-21.93,-28.48 -33.93,-30 -22.56,-56.46 9.91,2.41 124.17,141.4 183.28,187.1 70.21,54.28 131.54,126.39 205.26,178.64 -75.51,-54.61 -186.34,-231.04 -268.66,-298.55 -28.9,-23.7 -87.2,-56.51 -99.54,-89.14 29.89,-11.87 76.75,40.43 103.46,60.43 30.05,22.48 83.95,45.96 119.07,64.06 74.81,38.56 171.37,92.87 247.86,121.82 -127.41,-83.44 -251.98,-184.74 -392.62,-244.33 -31.87,-13.5 -44.33,-8.57 -56.24,-36.35 16.64,-6.71 156.59,46.57 217.21,59.62 64.68,13.92 192.92,47.56 251.93,49.06 -4.75,-4.22 -1.06,-5.44 -20.19,-13.95 -63.32,-28.18 -135.46,-44.58 -201.1,-66.15 -116.18,-38.16 -192.61,-41.24 -218.2,-49.34 -37.41,-11.85 -15,-8.39 -18.55,-20.69 24.4,-3.22 157.17,12.13 246.49,6.19 53.43,-3.56 209.2,-2.15 245.83,-22.08 -106.72,-7.73 -264.01,-27.54 -369.04,-18.35 -40.83,3.58 -83.89,15.04 -123.33,9.34 3.88,-12.91 -18.92,-15.04 48.63,-24.15 22.11,-2.98 44.24,-6.7 66.23,-10.26 80.49,-13.04 234.02,-67.08 316.92,-99.74 4.78,-1.88 8.07,-2.69 12.12,-4.82 10.82,-5.7 10.94,-8.05 14.2,-10.96 -68.11,1.87 -290.53,49.39 -364.48,78.93 -30,11.98 -78.14,40.22 -104.68,29.28 15.69,-33 86.5,-47.55 120.84,-64.04 73.72,-35.4 297.68,-216 341.51,-222.28 -69.3,24.93 -304.84,141.15 -374.85,188.6 -16.9,11.45 -35.96,27.24 -52.39,39.79 -23.7,18.11 -35.18,34.26 -55.44,22.27 10.3,-29.58 71.56,-64.94 98.89,-87.33 89.33,-73.19 181.54,-232.2 268.37,-299.06 -48.16,36.65 -258,217.93 -300.92,266.93 -24.82,28.34 -58.72,92.43 -88.44,99.22 -10.4,-26.74 -2.12,-23.33 19.9,-51.79l95.75 -153.81c28.22,-56.27 97.81,-178.14 112.17,-231.64 -34.83,28.03 -110.15,158.66 -139.92,203.65 -50.2,75.86 -64.59,116.89 -100.34,191.28 -17.17,35.74 -2.76,16.67 -26.15,20.11 -0.7,-23.35 48.57,-142.62 66.52,-230.16 13.93,-67.97 47.38,-195.55 48.44,-257.91 -36.21,58.36 -55.67,161.02 -81.31,234.16 -12.28,35.04 -30.59,85.04 -36.81,120.57 -5.56,31.75 -2.15,112.37 -30.05,123.99 -11.92,-17.27 7.93,-140.85 1.86,-238.25 -3.47,-55.62 -4.28,-226.59 -19.54,-265.93 -15.2,41.8 -28.18,323.94 -21.33,391.69 3.31,32.81 21.43,88.22 3.68,112.51 -29.1,-12.64 -24.55,-100.45 -30.99,-132.75 -24.5,-122.82 -96.25,-256.33 -122.95,-376.23 0.4,59.78 35.8,194.76 49.26,260.92 9.11,44.81 15.1,92.52 30.84,135.07 14.28,38.6 42.41,82.47 40.67,122.44z"/>
  </g>
 </g>
</svg>
