<svg width="70" height="70" viewBox="0 0 70 70" fill="none" xmlns="http://www.w3.org/2000/svg">
<path d="M35 52.5C38.713 52.5 42.274 51.025 44.8995 48.3995C47.525 45.774 49 42.213 49 38.5H21C21 42.213 22.475 45.774 25.1005 48.3995C27.726 51.025 31.287 52.5 35 52.5ZM28 28C28 28.9283 27.6313 29.8185 26.9749 30.4749C26.3185 31.1313 25.4283 31.5 24.5 31.5C23.5717 31.5 22.6815 31.1313 22.0251 30.4749C21.3687 29.8185 21 28.9283 21 28C21 27.0717 21.3687 26.1815 22.0251 25.5251C22.6815 24.8687 23.5717 24.5 24.5 24.5C25.4283 24.5 26.3185 24.8687 26.9749 25.5251C27.6313 26.1815 28 27.0717 28 28ZM45.5 31.5C46.4283 31.5 47.3185 31.1313 47.9749 30.4749C48.6313 29.8185 49 28.9283 49 28C49 27.0717 48.6313 26.1815 47.9749 25.5251C47.3185 24.8687 46.4283 24.5 45.5 24.5C44.5717 24.5 43.6815 24.8687 43.0251 25.5251C42.3687 26.1815 42 27.0717 42 28C42 28.9283 42.3687 29.8185 43.0251 30.4749C43.6815 31.1313 44.5717 31.5 45.5 31.5Z" fill="#91E55E"/>
<path fill-rule="evenodd" clip-rule="evenodd" d="M70 35C70 54.3305 54.3305 70 35 70C15.6695 70 0 54.3305 0 35C0 15.6695 15.6695 0 35 0C54.3305 0 70 15.6695 70 35ZM63 35C63 42.4261 60.05 49.548 54.799 54.799C49.548 60.05 42.4261 63 35 63C27.5739 63 20.452 60.05 15.201 54.799C9.94999 49.548 7 42.4261 7 35C7 27.5739 9.94999 20.452 15.201 15.201C20.452 9.94999 27.5739 7 35 7C42.4261 7 49.548 9.94999 54.799 15.201C60.05 20.452 63 27.5739 63 35V35Z" fill="#91E55E"/>
</svg>
