<svg width="20" height="19" viewBox="0 0 20 19" fill="none" xmlns="http://www.w3.org/2000/svg">
<path d="M20 8.55C20 8.04609 19.8084 7.56282 19.4675 7.2065C19.1265 6.85018 18.664 6.65 18.1818 6.65H12.4364L13.3091 2.3085C13.3273 2.2135 13.3364 2.109 13.3364 2.0045C13.3364 1.615 13.1818 1.254 12.9364 0.9975L11.9727 0L5.99091 6.251C5.65455 6.6025 5.45455 7.0775 5.45455 7.6V17.1C5.45455 17.6039 5.6461 18.0872 5.98708 18.4435C6.32805 18.7998 6.79052 19 7.27273 19H15.4545C16.2091 19 16.8545 18.525 17.1273 17.841L19.8727 11.1435C19.9545 10.925 20 10.697 20 10.45V8.55ZM0 19H3.63636V7.6H0V19Z" fill="#0F4C8D"/>
</svg>
