<svg width="21" height="19" viewBox="0 0 21 19" fill="none" xmlns="http://www.w3.org/2000/svg">
<path d="M18.5 6H12.888L14.011 2.633C14.213 2.025 14.111 1.351 13.736 0.831C13.361 0.311 12.753 0 12.112 0H10.5C10.203 0 9.922 0.132 9.731 0.36L5.031 6H2.5C1.397 6 0.5 6.897 0.5 8V17C0.5 18.103 1.397 19 2.5 19H15.807C16.2139 18.9986 16.6108 18.8738 16.9452 18.6421C17.2797 18.4103 17.5359 18.0825 17.68 17.702L20.437 10.351C20.4789 10.2387 20.5002 10.1198 20.5 10V8C20.5 6.897 19.603 6 18.5 6ZM2.5 8H4.5V17H2.5V8ZM18.5 9.819L15.807 17H6.5V7.362L10.968 2H12.114L10.552 6.683C10.5013 6.83331 10.4871 6.99355 10.5107 7.15043C10.5343 7.3073 10.595 7.45629 10.6877 7.58504C10.7803 7.71379 10.9024 7.8186 11.0436 7.89076C11.1849 7.96293 11.3414 8.00037 11.5 8H18.5V9.819Z" fill="#0F4C8D"/>
</svg>
