<svg width="24" height="25" viewBox="0 0 24 25" fill="none" xmlns="http://www.w3.org/2000/svg">
<path fill-rule="evenodd" clip-rule="evenodd" d="M11.1971 11.5513V6.25861C11.1971 4.98571 12.7966 5.02656 12.7966 6.25861V11.5513C12.7966 12.7998 11.1971 12.7998 11.1971 11.5513ZM6.39836 12.2503C6.39836 13.9875 6.84028 15.2632 8.0354 16.457C8.53065 16.9517 8.91896 17.227 9.58045 17.5601C12.1941 18.8761 15.6888 17.7735 17.0629 14.914C17.9882 12.9883 17.7109 10.786 16.4316 9.06886C16.2455 8.81904 16.1226 8.70734 15.9084 8.493C15.7528 8.33739 15.458 8.11034 15.3638 7.93833C15.0513 7.36766 15.5263 6.6953 16.1269 6.77488C16.791 6.86285 17.9794 8.42675 18.2627 8.98741C18.5351 9.52649 18.7268 9.90536 18.9062 10.5416C19.2325 11.6996 19.2906 12.8655 19.0055 14.0584C18.6751 15.4406 17.9423 16.8557 16.8603 17.7575C16.5421 18.0228 16.6868 17.9642 16.1248 18.3709C15.3855 18.9059 14.5371 19.2568 13.6369 19.4808L12.0468 19.6934L11.2041 19.6332C11.0124 19.6143 10.6148 19.5425 10.4363 19.5014C9.06745 19.1864 7.62285 18.4226 6.73354 17.3581C6.46799 17.0402 6.52659 17.1847 6.11947 16.6233C5.85008 16.2518 5.67827 15.9039 5.46465 15.4798C4.75987 14.0805 4.62846 12.1131 5.06895 10.5728C5.24796 9.94678 5.46287 9.51824 5.73111 8.98736C5.94386 8.56635 6.60833 7.70324 6.93449 7.39326C7.05754 7.27633 7.1147 7.25706 7.2355 7.14474C7.63485 6.77363 8.14435 6.45857 8.61324 6.94209C9.37235 7.72486 8.13177 8.31351 7.647 8.95385C6.97437 9.84242 6.39831 10.9107 6.39831 12.2503L6.39836 12.2503ZM4.80401e-05 12.1005V12.9993C4.80401e-05 15.4838 1.39627 18.8837 3.16126 20.6268C3.29891 20.7627 3.3995 20.8639 3.53657 21.0008C5.58684 23.0488 8.61934 24.4835 11.5969 24.4835C13.6882 24.4835 15.4094 24.2036 17.0794 23.369C19.421 22.1987 21.0146 20.7977 22.3783 18.526C22.571 18.2049 22.7062 17.9196 22.8778 17.577C24.4231 14.492 24.3243 10.54 22.8775 7.42346C22.7147 7.07278 22.5563 6.80594 22.3771 6.4753C22.2831 6.30185 22.211 6.21384 22.1101 6.04298C21.7135 5.37182 21.0237 4.56518 20.4821 4.02423C19.997 3.53975 19.8274 3.41256 19.338 3.01998C19.1813 2.89428 19.074 2.8228 18.909 2.6995C17.219 1.4358 14.5791 0.516602 12.3967 0.516602C10.2963 0.516602 8.59198 0.792592 6.91424 1.63111C6.57128 1.80254 6.28562 1.93759 5.96416 2.13012C5.6405 2.32399 5.38589 2.48075 5.07821 2.69313C3.76675 3.59847 2.39798 5.07114 1.61497 6.47372C1.43058 6.80398 1.28934 7.07657 1.11575 7.42308C0.563152 8.52622 0 10.4695 0 12.1006L4.80401e-05 12.1005Z" fill="#9DB6D0"/>
</svg>
