<svg width="27" height="21" viewBox="0 0 27 21" fill="none" xmlns="http://www.w3.org/2000/svg">
<path d="M24.3 0H2.7C1.215 0 0.0135 1.18125 0.0135 2.625L0 18.375C0 19.8188 1.215 21 2.7 21H24.3C25.785 21 27 19.8188 27 18.375V2.625C27 1.18125 25.785 0 24.3 0ZM23.76 5.57812L14.2155 11.3794C13.7835 11.6419 13.2165 11.6419 12.7845 11.3794L3.24 5.57812C3.10463 5.50425 2.98609 5.40443 2.89155 5.28472C2.79701 5.16501 2.72843 5.0279 2.68998 4.88167C2.65152 4.73545 2.64398 4.58316 2.66781 4.43403C2.69164 4.28489 2.74635 4.14201 2.82863 4.01402C2.91091 3.88603 3.01904 3.77561 3.14648 3.68943C3.27392 3.60325 3.41803 3.54311 3.57007 3.51264C3.72211 3.48218 3.87893 3.48202 4.03104 3.51218C4.18315 3.54235 4.32738 3.6022 4.455 3.68812L13.5 9.1875L22.545 3.68812C22.6726 3.6022 22.8169 3.54235 22.969 3.51218C23.1211 3.48202 23.2779 3.48218 23.4299 3.51264C23.582 3.54311 23.7261 3.60325 23.8535 3.68943C23.981 3.77561 24.0891 3.88603 24.1714 4.01402C24.2536 4.14201 24.3084 4.28489 24.3322 4.43403C24.356 4.58316 24.3485 4.73545 24.31 4.88167C24.2716 5.0279 24.203 5.16501 24.1085 5.28472C24.0139 5.40443 23.8954 5.50425 23.76 5.57812Z" fill="white"/>
</svg>
