<svg width="20" height="20" viewBox="0 0 20 20" fill="none" xmlns="http://www.w3.org/2000/svg">
<rect width="20" height="20" fill="#0F4C8D"/>
<path d="M16.6667 14.167C17.1087 14.167 17.5326 13.9914 17.8452 13.6788C18.1577 13.3663 18.3333 12.9424 18.3333 12.5003V3.33366C18.3333 2.89163 18.1577 2.46771 17.8452 2.15515C17.5326 1.84259 17.1087 1.66699 16.6667 1.66699H7.88333C8.175 2.17533 8.33333 2.75033 8.33333 3.33366H16.6667V12.5003H9.16667V14.167M12.5 5.83366V7.50033H7.5V18.3337H5.83333V13.3337H4.16667V18.3337H2.5V11.667H1.25V7.50033C1.25 7.0583 1.42559 6.63437 1.73816 6.32181C2.05072 6.00925 2.47464 5.83366 2.91667 5.83366H12.5ZM6.66667 3.33366C6.66667 3.77569 6.49107 4.19961 6.17851 4.51217C5.86595 4.82473 5.44203 5.00033 5 5.00033C4.55797 5.00033 4.13405 4.82473 3.82149 4.51217C3.50893 4.19961 3.33333 3.77569 3.33333 3.33366C3.33333 2.89163 3.50893 2.46771 3.82149 2.15515C4.13405 1.84259 4.55797 1.66699 5 1.66699C5.44203 1.66699 5.86595 1.84259 6.17851 2.15515C6.49107 2.46771 6.66667 2.89163 6.66667 3.33366Z" fill="white"/>
</svg>
