<svg width="22" height="20" viewBox="0 0 22 20" fill="none" xmlns="http://www.w3.org/2000/svg">
<path d="M6 15.5C5.45 15.5 4.97933 15.3043 4.588 14.913C4.196 14.521 4 14.05 4 13.5V2.5C4 1.95 4.196 1.479 4.588 1.087C4.97933 0.695667 5.45 0.5 6 0.5H11L13 2.5H20C20.55 2.5 21.021 2.696 21.413 3.088C21.8043 3.47933 22 3.95 22 4.5V13.5C22 14.05 21.8043 14.521 21.413 14.913C21.021 15.3043 20.55 15.5 20 15.5H6ZM19 19.5H2C1.45 19.5 0.979333 19.3043 0.588 18.913C0.196 18.521 0 18.05 0 17.5V4.5H2V17.5H19V19.5ZM8 11.5H18L14.625 7L12 10.5L10.375 8.325L8 11.5Z" fill="#0F4C8D"/>
</svg>
