<svg width="267" height="267" viewBox="0 0 267 267" fill="none" xmlns="http://www.w3.org/2000/svg">
<path d="M77.43 28.8614L52.0014 3.43286H240.173C246.917 3.43286 253.385 6.11193 258.154 10.8807C262.922 15.6495 265.601 22.1174 265.601 28.8614V181.433C265.601 191.096 260.134 199.36 252.251 203.683L230.001 181.433H240.173V28.8614H77.43ZM267 250.853L250.853 267L190.714 206.861H162.616L115.573 254.031C113.03 256.447 109.851 257.719 106.673 257.719H100.316C93.3229 257.719 87.6014 251.997 87.6014 245.004V206.861H36.7443C30.0002 206.861 23.5324 204.182 18.7636 199.414C13.9948 194.645 11.3157 188.177 11.3157 181.433V27.59L0 16.1471L16.2743 0L267 250.853ZM165.286 181.433L36.7443 52.8914V181.433H113.03V220.593L152.19 181.433H165.286Z" fill="#9DB6D0"/>
</svg>
