<svg width="260" height="303" viewBox="0 0 260 303" fill="none" xmlns="http://www.w3.org/2000/svg">
<path d="M140.268 186.361V215.752C127.572 211.252 113.985 209.872 100.648 211.727C87.31 213.582 74.6111 218.619 63.6174 226.414C52.6237 234.21 43.6561 244.536 37.4678 256.526C31.2794 268.516 28.051 281.819 28.0535 295.319L3.62531e-06 295.305C-0.0043499 278.133 3.91236 261.188 11.45 245.768C18.9877 230.347 29.9463 216.862 43.486 206.344C57.0257 195.827 72.7873 188.556 89.563 185.09C106.339 181.624 123.683 182.068 140.268 186.361ZM112.214 168.754C65.7154 168.754 28.0535 130.995 28.0535 84.377C28.0535 37.7587 65.7154 0 112.214 0C158.713 0 196.375 37.7587 196.375 84.377C196.375 130.995 158.713 168.754 112.214 168.754ZM112.214 140.628C143.213 140.628 168.321 115.456 168.321 84.377C168.321 53.2981 143.213 28.1257 112.214 28.1257C81.2149 28.1257 56.107 53.2981 56.107 84.377C56.107 115.456 81.2149 140.628 112.214 140.628ZM210.401 233.246L240.152 203.405L260 223.304L230.235 253.131L260 282.958L240.152 302.857L210.401 273.016L180.651 302.857L160.803 282.958L190.568 253.131L160.803 223.304L180.651 203.405L210.401 233.246Z" fill="#9DB6D0"/>
</svg>
