<svg width="198" height="198" viewBox="0 0 198 198" fill="none" xmlns="http://www.w3.org/2000/svg">
<path d="M198 9.999L188.001 0L0 188.001L9.999 198L24.1419 183.857H169.714C173.463 183.852 177.058 182.36 179.709 179.709C182.36 177.058 183.852 173.463 183.857 169.714V24.1419L198 9.999ZM169.714 169.714H38.2847L93.3924 114.607L110.215 131.43C112.867 134.081 116.464 135.57 120.214 135.57C123.964 135.57 127.561 134.081 130.213 131.43L141.429 120.214L169.714 148.479V169.714ZM169.714 128.474L151.428 110.187C148.775 107.536 145.179 106.046 141.429 106.046C137.678 106.046 134.082 107.536 131.43 110.187L120.214 121.402L103.405 104.594L169.714 38.2847V128.474ZM28.2857 141.429V120.214L63.6429 84.8784L73.3519 94.5945L83.3651 84.5814L73.6419 74.8581C70.9897 72.2068 67.393 70.7173 63.6429 70.7173C59.8927 70.7173 56.296 72.2068 53.6439 74.8581L28.2857 100.216V28.2857H141.429V14.1429H28.2857C24.5359 14.1466 20.9408 15.6379 18.2893 18.2893C15.6379 20.9408 14.1466 24.5359 14.1429 28.2857V141.429H28.2857Z" fill="#9DB6D0"/>
</svg>
