<svg width="267" height="273" viewBox="0 0 267 273" fill="none" xmlns="http://www.w3.org/2000/svg">
<path fill-rule="evenodd" clip-rule="evenodd" d="M17.4768 130.066V202.124C17.4768 204.364 17.9625 205.824 18.9191 206.646C19.9636 207.543 21.722 207.928 24.149 207.928H47.59C49.583 207.928 51.6023 207.555 52.9402 206.663C53.7367 206.131 54.2616 205.36 54.2616 204.295V127.027C54.2616 126.243 53.8346 125.5 53.1789 124.931C52.393 124.25 51.3138 123.828 50.1947 123.828H21.9789C20.4041 123.828 19.3425 124.294 18.698 125.099C17.8458 126.165 17.4774 127.907 17.4774 130.066H17.4768ZM40.8968 32.7959L267 258.899L253.168 272.731L195.251 214.815C193.941 215.921 192.552 216.914 191.079 217.831C188.97 219.143 186.669 220.306 184.168 221.428C180.991 222.854 176.962 224.048 172.56 224.988C167.832 225.996 162.649 226.722 157.618 227.131L157.426 227.141H140.686L140.419 227.122L139.906 227.065C139.75 227.045 139.901 227.061 139.41 226.994C136.069 226.536 131.891 226.617 127.715 226.697C123.386 226.781 119.055 226.865 115.402 226.377L103.92 225.816C98.9003 225.675 93.1419 225.32 87.4616 224.84C81.4088 224.328 75.2809 223.663 70.088 222.955C69.6434 222.894 69.0745 222.804 68.4592 222.707C65.8968 222.301 62.3378 221.737 61.3232 222.341V222.35C59.8903 223.203 58.346 223.96 56.5894 224.51C54.8123 225.067 52.8534 225.405 50.6276 225.405H22.4117C16.1625 225.405 10.6323 223.001 6.62581 219.168C2.49795 215.22 0 209.766 0 203.861V127.896C0 122.907 1.60176 118.567 4.24985 115.072C7.10088 111.31 11.1607 108.555 15.7261 107.056C20.0903 105.622 34.366 105.792 42.6111 105.89C43.8551 105.905 44.9062 105.918 46.7208 105.918C52.9842 105.918 55.7232 106.879 57.7173 107.579L58.1806 107.74C59.0287 105.894 60.3677 103.706 61.8575 101.597C64.2006 98.2792 67.0047 95.0223 68.8563 93.5942C69.4194 93.1596 70.0434 92.5889 70.7021 91.9237C70.9718 91.651 71.2428 91.3677 71.5132 91.0768L25.3372 44.9009L39.1689 31.0686L40.8968 32.7965V32.7959ZM182.636 202.199L83.9144 103.478C83.5355 103.881 83.1543 104.277 82.7719 104.666C81.8035 105.65 80.7724 106.638 79.6757 107.629C78.644 108.561 77.6979 109.66 76.8399 110.848C75.8375 112.236 74.963 113.734 74.2141 115.232C71.085 121.486 71.2663 122.378 71.6352 124.19C71.8757 125.374 72.1719 126.826 72.1719 129.197V203.86C72.1719 204.535 72.1384 205.03 72.0874 205.432C73.3126 205.527 74.4452 205.671 75.5988 205.818C76.7589 205.965 77.9437 206.116 79.4246 206.216C81.0633 206.326 82.7349 206.499 84.4563 206.677C85.8475 206.821 87.2727 206.97 88.9754 207.101V207.105L129.727 208.805C133.495 208.808 136.79 209.025 140.07 209.241C143.277 209.452 146.471 209.663 150.033 209.663C156.372 209.663 164.316 209.101 171.429 207.184C175.658 206.045 179.577 204.436 182.635 202.198L182.636 202.199ZM119.059 0H123.471L123.728 0.0193594C127.541 0.435195 131.463 1.75309 134.974 3.58358C138.683 5.51731 141.971 8.05221 144.218 10.7261C144.442 10.9924 144.646 11.2012 144.815 11.3742C145.24 11.8106 145.51 12.0868 146.178 13.1701C146.576 13.8158 146.84 14.2675 147.137 14.7736L147.654 15.6575C155.974 29.6352 150.901 47.2434 146.295 63.2334C144.245 70.3501 142.292 77.129 141.765 82.9097C142.355 82.7859 142.957 82.6493 143.56 82.512C144.683 82.2563 145.809 82 146.758 81.8311C148.002 81.6094 148.67 81.4839 149.3 81.3648C151.128 81.0205 152.874 80.6909 154.617 80.4598C162.392 79.4281 171.236 78.6211 179.833 79.0839C188.618 79.5572 197.161 81.3566 204.123 85.5754C209.468 88.8147 213.411 93.6686 215.501 99.2716C217.553 104.772 217.825 110.981 215.894 117.078L215.546 118.144C215.361 118.713 215.211 118.713 215.188 118.822L215.223 118.795C215.229 118.757 215.24 118.737 215.262 118.765C215.58 119.18 216.024 119.76 216.616 120.726C219.651 125.682 221.166 131.157 221.085 136.607C221.005 141.992 219.374 147.331 216.121 152.107C215.718 152.698 215.436 153.087 215.207 153.404C214.912 153.811 214.821 153.649 214.792 153.832C214.775 153.945 214.898 154.02 215.074 154.627C215.226 155.15 215.409 155.782 215.512 156.166C216.252 158.935 216.639 161.597 216.645 164.307C216.65 167.002 216.273 169.7 215.484 172.548C214.78 175.089 213.567 177.906 212.058 180.514C210.614 183.009 208.879 185.35 207.032 187.124L205.303 188.785L192.767 176.249L194.356 174.525C195.952 172.793 197.575 170.599 198.402 167.955C199.209 165.374 199.272 162.278 197.819 158.609C197.644 158.166 197.518 157.88 197.382 157.567C196.674 155.943 195.772 153.874 195.772 152.206C195.772 149.901 197.272 147.889 199.045 145.511C201.983 141.571 205.937 136.267 200.9 128.915C200.214 127.912 199.579 127.151 198.838 126.26L198.368 125.695H198.358C194.727 121.304 196.094 118.357 197.79 114.699C198.623 112.904 199.569 110.865 199.575 108.362C199.577 107.545 199.487 106.771 199.314 106.04C198.496 102.577 195.57 100.291 191.523 98.8381C187.004 97.2152 181.165 96.6205 175.145 96.6059C163.222 96.5783 150.697 98.8405 145.899 99.9742L144.76 100.245C140.468 101.294 135.377 102.538 131.061 99.9689C118.411 92.437 125.641 69.4012 130.097 55.2035C130.895 52.6587 131.601 50.4123 132.051 48.7097C133.277 44.0727 134.564 37.4299 134.104 31.4628C133.803 27.5572 132.753 23.9812 130.413 21.6211C129.789 20.9918 129.181 20.4235 128.525 19.9402C127.91 19.4874 127.228 19.0938 126.408 18.7724C123.29 17.549 122.203 17.1378 122.187 17.1795C121.905 17.8962 121.951 19.6598 122.015 22.1689C122.05 23.5548 122.09 25.122 122.09 26.3197C122.09 27.1044 122.168 27.5842 122.235 27.9953C122.399 29.0076 122.524 29.7818 122.147 31.332L122.033 31.685L110.551 59.5349C108.986 62.6803 108.439 63.7977 107.866 64.9666C105.464 69.8686 103.033 74.8282 100.496 79.5279L98.9361 82.417L85.4352 68.9161L96.4821 47.7114C96.9947 46.522 97.5689 45.2194 98.1396 43.9255C99.3173 41.254 100.476 38.6258 101.511 36.0282C102.27 34.1255 102.784 32.8798 103.184 31.9073C103.971 29.9988 104.324 29.1408 104.421 28.6023C104.481 28.2686 104.448 27.7953 104.387 26.9378C104.303 25.7666 104.179 24.0276 104.179 21.1097C104.179 18.5449 104.483 15.9331 105.036 13.5431C105.597 11.1179 106.426 8.90381 107.469 7.16774C108.745 5.0434 110.358 3.43695 112.204 2.27566C114.194 1.02405 116.424 0.303817 118.772 0.0193594L119.058 0H119.059ZM215.188 118.821C215.184 118.843 215.184 118.869 215.19 118.906C215.228 119.127 215.207 118.896 215.223 118.794L215.188 118.821Z" fill="#9DB6D0"/>
</svg>
