<svg width="77" height="67" viewBox="0 0 77 67" fill="none" xmlns="http://www.w3.org/2000/svg">
<path d="M77 3.37277L73.1115 0L0 63.4148L3.8885 66.7876L9.3885 62.017H66C67.458 62.0151 68.8557 61.5119 69.8867 60.6177C70.9177 59.7234 71.4978 58.5111 71.5 57.2465V8.14331L77 3.37277ZM66 57.2465H14.8885L36.3192 38.6581L42.8615 44.3326C43.8929 45.227 45.2916 45.7294 46.75 45.7294C48.2084 45.7294 49.6071 45.227 50.6385 44.3326L55 40.5496L66 50.0835V57.2465ZM66 43.3356L58.8885 37.1673C57.8571 36.2729 56.4584 35.7705 55 35.7705C53.5416 35.7705 52.1429 36.2729 51.1115 37.1673L46.75 40.9503L40.2132 35.2805L66 12.9139V43.3356ZM11 47.7054V40.5496L24.75 28.6304L28.5258 31.9078L32.4198 28.5302L28.6385 25.2505C27.6071 24.3561 26.2084 23.8537 24.75 23.8537C23.2916 23.8537 21.8929 24.3561 20.8615 25.2505L11 33.804V9.54108H55V4.77054H11C9.54176 4.7718 8.14366 5.27482 7.11252 6.16919C6.08139 7.06357 5.50146 8.27624 5.5 9.54108V47.7054H11Z" fill="#9DB6D0"/>
</svg>
