<svg width="267" height="267" viewBox="0 0 267 267" fill="none" xmlns="http://www.w3.org/2000/svg">
<path d="M85.44 200.25L133.5 152.19L181.56 200.25L200.25 181.56L152.19 133.5L200.25 85.44L181.56 66.75L133.5 114.81L85.44 66.75L66.75 85.44L114.81 133.5L66.75 181.56L85.44 200.25ZM133.5 267C115.033 267 97.6775 263.493 81.435 256.48C65.1925 249.476 51.0638 239.966 39.0488 227.951C27.0338 215.936 17.5241 201.807 10.5198 185.565C3.5066 169.322 0 151.967 0 133.5C0 115.033 3.5066 97.6775 10.5198 81.435C17.5241 65.1925 27.0338 51.0638 39.0488 39.0488C51.0638 27.0338 65.1925 17.5196 81.435 10.5064C97.6775 3.50215 115.033 0 133.5 0C151.967 0 169.322 3.50215 185.565 10.5064C201.807 17.5196 215.936 27.0338 227.951 39.0488C239.966 51.0638 249.476 65.1925 256.48 81.435C263.493 97.6775 267 115.033 267 133.5C267 151.967 263.493 169.322 256.48 185.565C249.476 201.807 239.966 215.936 227.951 227.951C215.936 239.966 201.807 249.476 185.565 256.48C169.322 263.493 151.967 267 133.5 267ZM133.5 240.3C163.315 240.3 188.569 229.954 209.261 209.261C229.954 188.569 240.3 163.315 240.3 133.5C240.3 103.685 229.954 78.4313 209.261 57.7388C188.569 37.0462 163.315 26.7 133.5 26.7C103.685 26.7 78.4313 37.0462 57.7388 57.7388C37.0462 78.4313 26.7 103.685 26.7 133.5C26.7 163.315 37.0462 188.569 57.7388 209.261C78.4313 229.954 103.685 240.3 133.5 240.3Z" fill="#9DB6D0"/>
</svg>
