<svg width="21" height="20" viewBox="0 0 21 20" fill="none" xmlns="http://www.w3.org/2000/svg">
<path d="M5.5 7.5C6.16304 7.5 6.79893 7.23661 7.26777 6.76777C7.73661 6.29893 8 5.66304 8 5C8 4.33696 7.73661 3.70107 7.26777 3.23223C6.79893 2.76339 6.16304 2.5 5.5 2.5C4.83696 2.5 4.20107 2.76339 3.73223 3.23223C3.26339 3.70107 3 4.33696 3 5C3 5.66304 3.26339 6.29893 3.73223 6.76777C4.20107 7.23661 4.83696 7.5 5.5 7.5ZM5.5 9.5C4.90905 9.5 4.32389 9.3836 3.77792 9.15746C3.23196 8.93131 2.73588 8.59984 2.31802 8.18198C1.90016 7.76412 1.56869 7.26804 1.34254 6.72208C1.1164 6.17611 1 5.59095 1 5C1 4.40905 1.1164 3.82389 1.34254 3.27792C1.56869 2.73196 1.90016 2.23588 2.31802 1.81802C2.73588 1.40016 3.23196 1.06869 3.77792 0.842542C4.32389 0.616396 4.90905 0.5 5.5 0.5C6.69347 0.5 7.83807 0.974106 8.68198 1.81802C9.52589 2.66193 10 3.80653 10 5C10 6.19347 9.52589 7.33807 8.68198 8.18198C7.83807 9.02589 6.69347 9.5 5.5 9.5ZM16 11.5C16.5304 11.5 17.0391 11.2893 17.4142 10.9142C17.7893 10.5391 18 10.0304 18 9.5C18 8.96957 17.7893 8.46086 17.4142 8.08579C17.0391 7.71071 16.5304 7.5 16 7.5C15.4696 7.5 14.9609 7.71071 14.5858 8.08579C14.2107 8.46086 14 8.96957 14 9.5C14 10.0304 14.2107 10.5391 14.5858 10.9142C14.9609 11.2893 15.4696 11.5 16 11.5ZM16 13.5C14.9391 13.5 13.9217 13.0786 13.1716 12.3284C12.4214 11.5783 12 10.5609 12 9.5C12 8.43913 12.4214 7.42172 13.1716 6.67157C13.9217 5.92143 14.9391 5.5 16 5.5C17.0609 5.5 18.0783 5.92143 18.8284 6.67157C19.5786 7.42172 20 8.43913 20 9.5C20 10.5609 19.5786 11.5783 18.8284 12.3284C18.0783 13.0786 17.0609 13.5 16 13.5ZM18.5 19.5V19C18.5 18.337 18.2366 17.7011 17.7678 17.2322C17.2989 16.7634 16.663 16.5 16 16.5C15.337 16.5 14.7011 16.7634 14.2322 17.2322C13.7634 17.7011 13.5 18.337 13.5 19V19.5H11.5V19C11.5 18.4091 11.6164 17.8239 11.8425 17.2779C12.0687 16.732 12.4002 16.2359 12.818 15.818C13.2359 15.4002 13.732 15.0687 14.2779 14.8425C14.8239 14.6164 15.4091 14.5 16 14.5C16.5909 14.5 17.1761 14.6164 17.7221 14.8425C18.268 15.0687 18.7641 15.4002 19.182 15.818C19.5998 16.2359 19.9313 16.732 20.1575 17.2779C20.3836 17.8239 20.5 18.4091 20.5 19V19.5H18.5ZM8.5 19.5V15.5C8.5 14.7044 8.18393 13.9413 7.62132 13.3787C7.05871 12.8161 6.29565 12.5 5.5 12.5C4.70435 12.5 3.94129 12.8161 3.37868 13.3787C2.81607 13.9413 2.5 14.7044 2.5 15.5V19.5H0.5V15.5C0.5 14.1739 1.02678 12.9021 1.96447 11.9645C2.90215 11.0268 4.17392 10.5 5.5 10.5C6.82608 10.5 8.09785 11.0268 9.03553 11.9645C9.97322 12.9021 10.5 14.1739 10.5 15.5V19.5H8.5Z" fill="#0F4C8D"/>
</svg>
