<svg width="21" height="21" viewBox="0 0 21 21" fill="none" xmlns="http://www.w3.org/2000/svg">
<path fill-rule="evenodd" clip-rule="evenodd" d="M13 12.5C14.3261 12.5 15.5979 13.0268 16.5355 13.9645C17.4732 14.9021 18 16.1739 18 17.5V19.5C18 19.7652 17.8946 20.0196 17.7071 20.2071C17.5196 20.3946 17.2652 20.5 17 20.5C16.7348 20.5 16.4804 20.3946 16.2929 20.2071C16.1054 20.0196 16 19.7652 16 19.5V17.5C16 16.7044 15.6839 15.9413 15.1213 15.3787C14.5587 14.8161 13.7956 14.5 13 14.5H5C4.20435 14.5 3.44129 14.8161 2.87868 15.3787C2.31607 15.9413 2 16.7044 2 17.5V19.5C2 19.7652 1.89464 20.0196 1.70711 20.2071C1.51957 20.3946 1.26522 20.5 1 20.5C0.734784 20.5 0.48043 20.3946 0.292893 20.2071C0.105357 20.0196 0 19.7652 0 19.5V17.5C0 16.1739 0.526784 14.9021 1.46447 13.9645C2.40215 13.0268 3.67392 12.5 5 12.5H13ZM18.414 7.581C18.5935 7.39975 18.8356 7.29397 19.0905 7.28532C19.3455 7.27667 19.5942 7.3658 19.7856 7.53447C19.977 7.70313 20.0967 7.93858 20.1202 8.19262C20.1437 8.44666 20.0692 8.70008 19.912 8.901L19.828 8.996L17 11.823C16.8278 11.9952 16.5987 12.0986 16.3557 12.1139C16.1127 12.1292 15.8724 12.0553 15.68 11.906L15.586 11.823L14.172 10.409C13.9907 10.2295 13.885 9.98743 13.8763 9.73245C13.8677 9.47748 13.9568 9.22883 14.1255 9.03742C14.2941 8.84601 14.5296 8.7263 14.7836 8.7028C15.0377 8.67929 15.2911 8.75378 15.492 8.911L15.586 8.994L16.293 9.702L18.414 7.58V7.581ZM9 0.5C10.3261 0.5 11.5979 1.02678 12.5355 1.96447C13.4732 2.90215 14 4.17392 14 5.5C14 6.82608 13.4732 8.09785 12.5355 9.03553C11.5979 9.97322 10.3261 10.5 9 10.5C7.67392 10.5 6.40215 9.97322 5.46447 9.03553C4.52678 8.09785 4 6.82608 4 5.5C4 4.17392 4.52678 2.90215 5.46447 1.96447C6.40215 1.02678 7.67392 0.5 9 0.5ZM9 2.5C8.60603 2.5 8.21593 2.5776 7.85195 2.72836C7.48797 2.87913 7.15726 3.1001 6.87868 3.37868C6.6001 3.65726 6.37913 3.98797 6.22836 4.35195C6.0776 4.71593 6 5.10603 6 5.5C6 5.89397 6.0776 6.28407 6.22836 6.64805C6.37913 7.01203 6.6001 7.34274 6.87868 7.62132C7.15726 7.8999 7.48797 8.12087 7.85195 8.27164C8.21593 8.4224 8.60603 8.5 9 8.5C9.79565 8.5 10.5587 8.18393 11.1213 7.62132C11.6839 7.05871 12 6.29565 12 5.5C12 4.70435 11.6839 3.94129 11.1213 3.37868C10.5587 2.81607 9.79565 2.5 9 2.5Z" fill="#0F4C8D"/>
</svg>
