<svg width="23" height="24" viewBox="0 0 23 24" fill="none" xmlns="http://www.w3.org/2000/svg">
<path d="M5.94444 3.66797H3.72222C3.13285 3.66797 2.56762 3.90209 2.15087 4.31884C1.73413 4.73559 1.5 5.30082 1.5 5.89019V19.2235C1.5 19.8129 1.73413 20.3781 2.15087 20.7949C2.56762 21.2116 3.13285 21.4457 3.72222 21.4457H10.0522M17.0556 13.668V18.1124H21.5M17.0556 10.3346V5.89019C17.0556 5.30082 16.8214 4.73559 16.4047 4.31884C15.9879 3.90209 15.4227 3.66797 14.8333 3.66797H12.6111" stroke="#0F4C8D" stroke-width="2" stroke-linecap="round" stroke-linejoin="round"/>
<path d="M5.94434 10.3342H10.3888M5.94434 14.7786H9.27767M5.94434 3.66753C5.94434 3.07816 6.17846 2.51293 6.59521 2.09619C7.01196 1.67944 7.57719 1.44531 8.16656 1.44531H10.3888C10.9782 1.44531 11.5434 1.67944 11.9601 2.09619C12.3769 2.51293 12.611 3.07816 12.611 3.66753C12.611 4.2569 12.3769 4.82214 11.9601 5.23888C11.5434 5.65563 10.9782 5.88976 10.3888 5.88976H8.16656C7.57719 5.88976 7.01196 5.65563 6.59521 5.23888C6.17846 4.82214 5.94434 4.2569 5.94434 3.66753ZM12.611 18.112C12.611 19.2907 13.0793 20.4212 13.9127 21.2547C14.7462 22.0882 15.8767 22.5564 17.0554 22.5564C18.2342 22.5564 19.3646 22.0882 20.1981 21.2547C21.0316 20.4212 21.4999 19.2907 21.4999 18.112C21.4999 16.9332 21.0316 15.8028 20.1981 14.9693C19.3646 14.1358 18.2342 13.6675 17.0554 13.6675C15.8767 13.6675 14.7462 14.1358 13.9127 14.9693C13.0793 15.8028 12.611 16.9332 12.611 18.112Z" stroke="#0F4C8D" stroke-width="2" stroke-linecap="round" stroke-linejoin="round"/>
</svg>
