<svg width="23" height="24" viewBox="0 0 23 24" fill="none" xmlns="http://www.w3.org/2000/svg">
<path d="M5.94444 3.66699H3.72222C3.13285 3.66699 2.56762 3.90112 2.15087 4.31787C1.73413 4.73461 1.5 5.29984 1.5 5.88921V19.2225C1.5 19.8119 1.73413 20.3771 2.15087 20.7939C2.56762 21.2106 3.13285 21.4448 3.72222 21.4448H10.0522M17.0556 13.667V18.1114H21.5M17.0556 10.3337V5.88921C17.0556 5.29984 16.8214 4.73461 16.4047 4.31787C15.9879 3.90112 15.4227 3.66699 14.8333 3.66699H12.6111" stroke="#0F4C8D" stroke-width="2" stroke-linecap="round" stroke-linejoin="round"/>
<path d="M5.94434 10.3332H10.3888M5.94434 14.7777H9.27767M5.94434 3.66656C5.94434 3.07719 6.17846 2.51196 6.59521 2.09521C7.01196 1.67846 7.57719 1.44434 8.16656 1.44434H10.3888C10.9782 1.44434 11.5434 1.67846 11.9601 2.09521C12.3769 2.51196 12.611 3.07719 12.611 3.66656C12.611 4.25593 12.3769 4.82116 11.9601 5.23791C11.5434 5.65465 10.9782 5.88878 10.3888 5.88878H8.16656C7.57719 5.88878 7.01196 5.65465 6.59521 5.23791C6.17846 4.82116 5.94434 4.25593 5.94434 3.66656ZM12.611 18.111C12.611 19.2897 13.0793 20.4202 13.9127 21.2537C14.7462 22.0872 15.8767 22.5554 17.0554 22.5554C18.2342 22.5554 19.3646 22.0872 20.1981 21.2537C21.0316 20.4202 21.4999 19.2897 21.4999 18.111C21.4999 16.9323 21.0316 15.8018 20.1981 14.9683C19.3646 14.1348 18.2342 13.6666 17.0554 13.6666C15.8767 13.6666 14.7462 14.1348 13.9127 14.9683C13.0793 15.8018 12.611 16.9323 12.611 18.111Z" stroke="#0F4C8D" stroke-width="2" stroke-linecap="round" stroke-linejoin="round"/>
</svg>
