<svg width="22" height="22" viewBox="0 0 22 22" fill="none" xmlns="http://www.w3.org/2000/svg">
<mask id="path-1-outside-1_1520_4784" maskUnits="userSpaceOnUse" x="0" y="0.0332031" width="22" height="22" fill="black">
<rect fill="white" y="0.0332031" width="22" height="22"/>
<path fill-rule="evenodd" clip-rule="evenodd" d="M9.98437 18.0752C9.91352 17.7708 9.57891 17.5603 9.73947 17.3263L10.0908 16.8452C10.3674 16.5026 10.1435 17.365 10.0859 17.7859C10.06 17.9754 10.0958 17.9935 9.98437 18.0752ZM11.9766 18.0752C11.9195 17.8299 11.8886 17.5437 11.8427 17.2711C11.8171 17.1193 11.7435 16.8536 11.8104 16.7867C11.8776 16.7194 11.8101 16.7601 11.8566 16.787C11.8586 16.7882 12.3285 17.3636 12.315 17.4808L11.9765 18.0752H11.9766ZM11 15.6518C11.0982 15.7177 11.1295 15.7906 11.1957 15.886C11.2602 15.9788 11.325 16.0619 11.3906 16.16L11.2728 16.3157C11.2311 16.3774 11.1909 16.4327 11.1471 16.5031C11.0288 16.6927 11.0459 16.7233 11.0886 16.9684L11.4165 19.0588C11.4153 19.2465 11.0991 19.6155 11.039 19.8733C10.8895 19.7731 10.8933 19.6802 10.8029 19.5232C10.4981 18.9944 10.558 19.1952 10.7489 18.0585C10.8088 17.702 11.0439 16.7969 10.8764 16.5187L10.6094 16.16C10.6854 16.0463 10.9064 15.7204 11 15.6518ZM14.0859 16.1209C14.0859 16.3623 14.3628 16.7655 14.4765 16.9808L13.4322 17.9292C13.3232 18.0389 13.2636 18.0646 13.1577 18.1627C13.0625 18.2508 13 18.3295 12.9048 18.4177C12.7987 18.5159 12.7392 18.5412 12.6303 18.6512C12.5371 18.7452 12.471 18.8265 12.3672 18.896C12.4011 18.7504 12.8324 17.9984 12.9366 17.8242C12.994 17.7281 13.0239 17.6552 13.0698 17.5666C13.1244 17.4609 13.1721 17.3994 13.2267 17.2937L14.2404 15.4546C14.2955 15.3596 14.3276 15.2747 14.3859 15.1702L14.609 14.7681C14.6446 14.7112 14.6761 14.6756 14.7109 14.6356L15.2575 15.7692C15.0141 15.7691 14.7651 15.7575 14.5365 15.79C14.2779 15.8268 14.0859 15.83 14.0859 16.1209H14.0859ZM7.30368 14.6428C7.38574 14.7064 7.49912 14.9712 7.59978 15.1455C8.20938 16.2006 8.8991 17.6095 9.49925 18.5997C9.56274 18.7045 9.60471 18.7753 9.6328 18.896L8.06038 17.4598C7.9608 17.3587 7.90398 17.2973 7.79687 17.2153C7.68961 17.1331 7.62956 17.0519 7.52342 16.9808C8.08644 15.9161 8.23553 15.7691 6.74216 15.7691L7.30368 14.6428ZM15.414 14.5183C15.5868 14.5327 15.7392 14.6205 15.8876 14.6698C16.2651 14.7953 18.8903 15.7302 19.1027 15.8695C19.3688 16.044 19.5656 16.2394 19.7093 16.5134C19.8598 16.8004 19.8994 17.1624 19.9567 17.5557C20.0358 18.0992 20.2969 19.3516 20.2969 19.795C20.2969 20.1105 20.0252 20.2675 19.6735 20.2657L11.9375 20.2641L14.8762 17.5369C15.1833 17.233 15.4867 17.2233 14.9844 16.4726C15.6069 16.4726 16.1563 16.619 16.1563 16.0818C16.1563 15.944 15.5207 14.72 15.4141 14.5183H15.414ZM5.84374 16.0818C5.84374 16.6019 6.31941 16.4726 7.01561 16.4726C6.54725 17.1725 6.75465 17.194 7.08443 17.4982L9.42848 19.6477C9.63925 19.8567 9.96371 20.1165 10.0625 20.2641L2.36615 20.2651C1.40505 20.2733 1.72515 19.47 1.85938 18.6615C1.93601 18.2001 2.11082 16.9098 2.26571 16.5665C2.40009 16.2687 2.62343 16.0524 2.87407 15.8854C3.12104 15.7209 5.19475 14.9911 5.62366 14.8453L6.58599 14.5183C6.47779 14.7229 5.84381 15.9439 5.84381 16.0818L5.84374 16.0818ZM12.7578 16.7462H12.6797C12.6418 16.6043 11.6765 15.3567 11.5078 15.1046C11.6946 14.9794 13.4186 13.8147 13.4609 13.8147C13.6022 13.8147 13.9315 13.9859 14.2031 14.0492C14.0847 14.2733 13.9763 14.493 13.8498 14.7119L12.9306 16.3718C12.8603 16.489 12.7887 16.6138 12.7578 16.7462ZM7.79687 14.0492C8.7628 13.824 8.13944 13.5351 9.50784 14.4479C9.84414 14.6722 10.1632 14.8841 10.4922 15.1046L9.60149 16.324C9.52089 16.4425 9.35313 16.6234 9.32031 16.7463C9.12683 16.6166 7.89675 14.2381 7.79687 14.0493V14.0492ZM8.9297 12.9548C9.49936 13.2564 10.0754 13.7934 10.9964 13.7679C11.6093 13.7509 12.1669 13.5399 12.6487 13.2365C12.8113 13.1341 12.9293 13.0102 13.0703 12.9157V13.2284L12.0313 13.9086C11.6745 14.1466 11.3454 14.365 11 14.5965C10.9242 14.5457 9.06164 13.2637 8.9297 13.2284V12.9548ZM11.1953 13.033C10.4162 13.033 10.2296 12.9824 9.42154 12.4235C9.21984 12.284 9.05808 12.1522 8.86294 12.0053C8.43633 11.6841 8.17751 11.5128 7.91347 11.001C7.55065 10.2978 7.32814 9.5361 7.32814 8.65524V6.23185C7.32814 5.82234 7.57383 5.43591 7.86198 5.20256C8.63188 4.57899 9.49568 5.14143 10.5655 4.78082C12.1196 4.25696 11.5974 4.24968 13.1724 4.80074C13.6788 4.97795 13.9306 4.99462 14.3114 5.38082C14.4678 5.53941 14.6719 5.85743 14.6719 6.15368V8.61617C14.6719 9.72281 14.1971 10.9817 13.6473 11.5387C13.3444 11.8455 12.9858 12.0443 12.5717 12.4169C12.3165 12.6465 11.6559 13.033 11.1954 13.033L11.1953 13.033ZM14.1641 2.67488C14.1641 3.01094 14.5379 2.89438 14.9916 3.25398C15.1761 3.40026 15.4531 3.84261 15.4531 4.16021C15.4531 4.53148 15.4973 6.58732 15.4181 6.78303C15.3953 6.83924 15.3956 6.8275 15.375 6.85718C15.375 6.16287 15.419 5.89466 15.1807 5.41002C14.6677 4.36699 13.7074 4.25606 12.635 3.85312C11.5441 3.4432 11.2107 3.87312 10.212 4.15334C9.67214 4.30481 8.86786 4.09765 8.28698 4.22063C7.79796 4.32413 7.32397 4.65859 7.07029 4.99664C6.65526 5.5497 6.625 5.89259 6.625 6.5445C6.5582 6.43916 6.54687 6.31914 6.54687 6.19271C6.54687 4.80266 6.34758 3.47896 7.27871 2.54724C7.71241 2.11323 8.34763 1.73678 9.00782 1.73678H13.6563C13.9241 1.73678 14.2422 1.90592 14.2422 2.16675C14.2422 2.37627 14.1641 2.43605 14.1641 2.67488ZM5.84377 4.43379C5.84377 5.3171 5.73336 6.40163 6.06464 7.06614C6.21931 7.37646 6.40218 7.5316 6.50329 7.79982C6.77554 8.52183 6.38399 9.97744 7.45299 11.579C8.30712 12.8587 8.22656 11.8191 8.22656 13.1893C8.0282 13.2058 2.82288 15.105 2.55926 15.2576C2.05501 15.5496 1.60409 16.1311 1.4711 16.7485C1.39264 17.1126 1 19.3715 1 19.795C1 20.4089 1.5583 20.9676 2.17187 20.9676H19.8281C20.4495 20.9676 21 20.4355 21 19.7168C21 19.4166 20.582 16.9947 20.5289 16.7486C20.1945 15.1967 18.7404 14.9901 17.579 14.5408C17.2721 14.4221 13.98 13.2065 13.7734 13.1893C13.7734 13.006 13.7732 12.8233 13.7715 12.6401C13.7666 12.133 13.9203 12.3965 14.4601 11.6485C15.5468 10.1426 15.0722 8.9134 15.8566 7.45632C15.9931 7.20263 16.1562 7.00399 16.1562 6.62267V4.12111C16.1562 3.72135 15.9177 3.30216 15.7431 3.04919C15.5892 2.82616 15.1884 2.46705 14.9062 2.40126C14.9863 2.23422 14.9369 2.00935 14.8829 1.83826C14.7431 1.3949 14.2105 1.0332 13.6953 1.0332H9.04687C7.36673 1.0332 5.84374 2.57509 5.84374 4.43375L5.84377 4.43379Z"/>
</mask>
<path fill-rule="evenodd" clip-rule="evenodd" d="M9.98437 18.0752C9.91352 17.7708 9.57891 17.5603 9.73947 17.3263L10.0908 16.8452C10.3674 16.5026 10.1435 17.365 10.0859 17.7859C10.06 17.9754 10.0958 17.9935 9.98437 18.0752ZM11.9766 18.0752C11.9195 17.8299 11.8886 17.5437 11.8427 17.2711C11.8171 17.1193 11.7435 16.8536 11.8104 16.7867C11.8776 16.7194 11.8101 16.7601 11.8566 16.787C11.8586 16.7882 12.3285 17.3636 12.315 17.4808L11.9765 18.0752H11.9766ZM11 15.6518C11.0982 15.7177 11.1295 15.7906 11.1957 15.886C11.2602 15.9788 11.325 16.0619 11.3906 16.16L11.2728 16.3157C11.2311 16.3774 11.1909 16.4327 11.1471 16.5031C11.0288 16.6927 11.0459 16.7233 11.0886 16.9684L11.4165 19.0588C11.4153 19.2465 11.0991 19.6155 11.039 19.8733C10.8895 19.7731 10.8933 19.6802 10.8029 19.5232C10.4981 18.9944 10.558 19.1952 10.7489 18.0585C10.8088 17.702 11.0439 16.7969 10.8764 16.5187L10.6094 16.16C10.6854 16.0463 10.9064 15.7204 11 15.6518ZM14.0859 16.1209C14.0859 16.3623 14.3628 16.7655 14.4765 16.9808L13.4322 17.9292C13.3232 18.0389 13.2636 18.0646 13.1577 18.1627C13.0625 18.2508 13 18.3295 12.9048 18.4177C12.7987 18.5159 12.7392 18.5412 12.6303 18.6512C12.5371 18.7452 12.471 18.8265 12.3672 18.896C12.4011 18.7504 12.8324 17.9984 12.9366 17.8242C12.994 17.7281 13.0239 17.6552 13.0698 17.5666C13.1244 17.4609 13.1721 17.3994 13.2267 17.2937L14.2404 15.4546C14.2955 15.3596 14.3276 15.2747 14.3859 15.1702L14.609 14.7681C14.6446 14.7112 14.6761 14.6756 14.7109 14.6356L15.2575 15.7692C15.0141 15.7691 14.7651 15.7575 14.5365 15.79C14.2779 15.8268 14.0859 15.83 14.0859 16.1209H14.0859ZM7.30368 14.6428C7.38574 14.7064 7.49912 14.9712 7.59978 15.1455C8.20938 16.2006 8.8991 17.6095 9.49925 18.5997C9.56274 18.7045 9.60471 18.7753 9.6328 18.896L8.06038 17.4598C7.9608 17.3587 7.90398 17.2973 7.79687 17.2153C7.68961 17.1331 7.62956 17.0519 7.52342 16.9808C8.08644 15.9161 8.23553 15.7691 6.74216 15.7691L7.30368 14.6428ZM15.414 14.5183C15.5868 14.5327 15.7392 14.6205 15.8876 14.6698C16.2651 14.7953 18.8903 15.7302 19.1027 15.8695C19.3688 16.044 19.5656 16.2394 19.7093 16.5134C19.8598 16.8004 19.8994 17.1624 19.9567 17.5557C20.0358 18.0992 20.2969 19.3516 20.2969 19.795C20.2969 20.1105 20.0252 20.2675 19.6735 20.2657L11.9375 20.2641L14.8762 17.5369C15.1833 17.233 15.4867 17.2233 14.9844 16.4726C15.6069 16.4726 16.1563 16.619 16.1563 16.0818C16.1563 15.944 15.5207 14.72 15.4141 14.5183H15.414ZM5.84374 16.0818C5.84374 16.6019 6.31941 16.4726 7.01561 16.4726C6.54725 17.1725 6.75465 17.194 7.08443 17.4982L9.42848 19.6477C9.63925 19.8567 9.96371 20.1165 10.0625 20.2641L2.36615 20.2651C1.40505 20.2733 1.72515 19.47 1.85938 18.6615C1.93601 18.2001 2.11082 16.9098 2.26571 16.5665C2.40009 16.2687 2.62343 16.0524 2.87407 15.8854C3.12104 15.7209 5.19475 14.9911 5.62366 14.8453L6.58599 14.5183C6.47779 14.7229 5.84381 15.9439 5.84381 16.0818L5.84374 16.0818ZM12.7578 16.7462H12.6797C12.6418 16.6043 11.6765 15.3567 11.5078 15.1046C11.6946 14.9794 13.4186 13.8147 13.4609 13.8147C13.6022 13.8147 13.9315 13.9859 14.2031 14.0492C14.0847 14.2733 13.9763 14.493 13.8498 14.7119L12.9306 16.3718C12.8603 16.489 12.7887 16.6138 12.7578 16.7462ZM7.79687 14.0492C8.7628 13.824 8.13944 13.5351 9.50784 14.4479C9.84414 14.6722 10.1632 14.8841 10.4922 15.1046L9.60149 16.324C9.52089 16.4425 9.35313 16.6234 9.32031 16.7463C9.12683 16.6166 7.89675 14.2381 7.79687 14.0493V14.0492ZM8.9297 12.9548C9.49936 13.2564 10.0754 13.7934 10.9964 13.7679C11.6093 13.7509 12.1669 13.5399 12.6487 13.2365C12.8113 13.1341 12.9293 13.0102 13.0703 12.9157V13.2284L12.0313 13.9086C11.6745 14.1466 11.3454 14.365 11 14.5965C10.9242 14.5457 9.06164 13.2637 8.9297 13.2284V12.9548ZM11.1953 13.033C10.4162 13.033 10.2296 12.9824 9.42154 12.4235C9.21984 12.284 9.05808 12.1522 8.86294 12.0053C8.43633 11.6841 8.17751 11.5128 7.91347 11.001C7.55065 10.2978 7.32814 9.5361 7.32814 8.65524V6.23185C7.32814 5.82234 7.57383 5.43591 7.86198 5.20256C8.63188 4.57899 9.49568 5.14143 10.5655 4.78082C12.1196 4.25696 11.5974 4.24968 13.1724 4.80074C13.6788 4.97795 13.9306 4.99462 14.3114 5.38082C14.4678 5.53941 14.6719 5.85743 14.6719 6.15368V8.61617C14.6719 9.72281 14.1971 10.9817 13.6473 11.5387C13.3444 11.8455 12.9858 12.0443 12.5717 12.4169C12.3165 12.6465 11.6559 13.033 11.1954 13.033L11.1953 13.033ZM14.1641 2.67488C14.1641 3.01094 14.5379 2.89438 14.9916 3.25398C15.1761 3.40026 15.4531 3.84261 15.4531 4.16021C15.4531 4.53148 15.4973 6.58732 15.4181 6.78303C15.3953 6.83924 15.3956 6.8275 15.375 6.85718C15.375 6.16287 15.419 5.89466 15.1807 5.41002C14.6677 4.36699 13.7074 4.25606 12.635 3.85312C11.5441 3.4432 11.2107 3.87312 10.212 4.15334C9.67214 4.30481 8.86786 4.09765 8.28698 4.22063C7.79796 4.32413 7.32397 4.65859 7.07029 4.99664C6.65526 5.5497 6.625 5.89259 6.625 6.5445C6.5582 6.43916 6.54687 6.31914 6.54687 6.19271C6.54687 4.80266 6.34758 3.47896 7.27871 2.54724C7.71241 2.11323 8.34763 1.73678 9.00782 1.73678H13.6563C13.9241 1.73678 14.2422 1.90592 14.2422 2.16675C14.2422 2.37627 14.1641 2.43605 14.1641 2.67488ZM5.84377 4.43379C5.84377 5.3171 5.73336 6.40163 6.06464 7.06614C6.21931 7.37646 6.40218 7.5316 6.50329 7.79982C6.77554 8.52183 6.38399 9.97744 7.45299 11.579C8.30712 12.8587 8.22656 11.8191 8.22656 13.1893C8.0282 13.2058 2.82288 15.105 2.55926 15.2576C2.05501 15.5496 1.60409 16.1311 1.4711 16.7485C1.39264 17.1126 1 19.3715 1 19.795C1 20.4089 1.5583 20.9676 2.17187 20.9676H19.8281C20.4495 20.9676 21 20.4355 21 19.7168C21 19.4166 20.582 16.9947 20.5289 16.7486C20.1945 15.1967 18.7404 14.9901 17.579 14.5408C17.2721 14.4221 13.98 13.2065 13.7734 13.1893C13.7734 13.006 13.7732 12.8233 13.7715 12.6401C13.7666 12.133 13.9203 12.3965 14.4601 11.6485C15.5468 10.1426 15.0722 8.9134 15.8566 7.45632C15.9931 7.20263 16.1562 7.00399 16.1562 6.62267V4.12111C16.1562 3.72135 15.9177 3.30216 15.7431 3.04919C15.5892 2.82616 15.1884 2.46705 14.9062 2.40126C14.9863 2.23422 14.9369 2.00935 14.8829 1.83826C14.7431 1.3949 14.2105 1.0332 13.6953 1.0332H9.04687C7.36673 1.0332 5.84374 2.57509 5.84374 4.43375L5.84377 4.43379Z" fill="#0F4C8D"/>
<path fill-rule="evenodd" clip-rule="evenodd" d="M9.98437 18.0752C9.91352 17.7708 9.57891 17.5603 9.73947 17.3263L10.0908 16.8452C10.3674 16.5026 10.1435 17.365 10.0859 17.7859C10.06 17.9754 10.0958 17.9935 9.98437 18.0752ZM11.9766 18.0752C11.9195 17.8299 11.8886 17.5437 11.8427 17.2711C11.8171 17.1193 11.7435 16.8536 11.8104 16.7867C11.8776 16.7194 11.8101 16.7601 11.8566 16.787C11.8586 16.7882 12.3285 17.3636 12.315 17.4808L11.9765 18.0752H11.9766ZM11 15.6518C11.0982 15.7177 11.1295 15.7906 11.1957 15.886C11.2602 15.9788 11.325 16.0619 11.3906 16.16L11.2728 16.3157C11.2311 16.3774 11.1909 16.4327 11.1471 16.5031C11.0288 16.6927 11.0459 16.7233 11.0886 16.9684L11.4165 19.0588C11.4153 19.2465 11.0991 19.6155 11.039 19.8733C10.8895 19.7731 10.8933 19.6802 10.8029 19.5232C10.4981 18.9944 10.558 19.1952 10.7489 18.0585C10.8088 17.702 11.0439 16.7969 10.8764 16.5187L10.6094 16.16C10.6854 16.0463 10.9064 15.7204 11 15.6518ZM14.0859 16.1209C14.0859 16.3623 14.3628 16.7655 14.4765 16.9808L13.4322 17.9292C13.3232 18.0389 13.2636 18.0646 13.1577 18.1627C13.0625 18.2508 13 18.3295 12.9048 18.4177C12.7987 18.5159 12.7392 18.5412 12.6303 18.6512C12.5371 18.7452 12.471 18.8265 12.3672 18.896C12.4011 18.7504 12.8324 17.9984 12.9366 17.8242C12.994 17.7281 13.0239 17.6552 13.0698 17.5666C13.1244 17.4609 13.1721 17.3994 13.2267 17.2937L14.2404 15.4546C14.2955 15.3596 14.3276 15.2747 14.3859 15.1702L14.609 14.7681C14.6446 14.7112 14.6761 14.6756 14.7109 14.6356L15.2575 15.7692C15.0141 15.7691 14.7651 15.7575 14.5365 15.79C14.2779 15.8268 14.0859 15.83 14.0859 16.1209H14.0859ZM7.30368 14.6428C7.38574 14.7064 7.49912 14.9712 7.59978 15.1455C8.20938 16.2006 8.8991 17.6095 9.49925 18.5997C9.56274 18.7045 9.60471 18.7753 9.6328 18.896L8.06038 17.4598C7.9608 17.3587 7.90398 17.2973 7.79687 17.2153C7.68961 17.1331 7.62956 17.0519 7.52342 16.9808C8.08644 15.9161 8.23553 15.7691 6.74216 15.7691L7.30368 14.6428ZM15.414 14.5183C15.5868 14.5327 15.7392 14.6205 15.8876 14.6698C16.2651 14.7953 18.8903 15.7302 19.1027 15.8695C19.3688 16.044 19.5656 16.2394 19.7093 16.5134C19.8598 16.8004 19.8994 17.1624 19.9567 17.5557C20.0358 18.0992 20.2969 19.3516 20.2969 19.795C20.2969 20.1105 20.0252 20.2675 19.6735 20.2657L11.9375 20.2641L14.8762 17.5369C15.1833 17.233 15.4867 17.2233 14.9844 16.4726C15.6069 16.4726 16.1563 16.619 16.1563 16.0818C16.1563 15.944 15.5207 14.72 15.4141 14.5183H15.414ZM5.84374 16.0818C5.84374 16.6019 6.31941 16.4726 7.01561 16.4726C6.54725 17.1725 6.75465 17.194 7.08443 17.4982L9.42848 19.6477C9.63925 19.8567 9.96371 20.1165 10.0625 20.2641L2.36615 20.2651C1.40505 20.2733 1.72515 19.47 1.85938 18.6615C1.93601 18.2001 2.11082 16.9098 2.26571 16.5665C2.40009 16.2687 2.62343 16.0524 2.87407 15.8854C3.12104 15.7209 5.19475 14.9911 5.62366 14.8453L6.58599 14.5183C6.47779 14.7229 5.84381 15.9439 5.84381 16.0818L5.84374 16.0818ZM12.7578 16.7462H12.6797C12.6418 16.6043 11.6765 15.3567 11.5078 15.1046C11.6946 14.9794 13.4186 13.8147 13.4609 13.8147C13.6022 13.8147 13.9315 13.9859 14.2031 14.0492C14.0847 14.2733 13.9763 14.493 13.8498 14.7119L12.9306 16.3718C12.8603 16.489 12.7887 16.6138 12.7578 16.7462ZM7.79687 14.0492C8.7628 13.824 8.13944 13.5351 9.50784 14.4479C9.84414 14.6722 10.1632 14.8841 10.4922 15.1046L9.60149 16.324C9.52089 16.4425 9.35313 16.6234 9.32031 16.7463C9.12683 16.6166 7.89675 14.2381 7.79687 14.0493V14.0492ZM8.9297 12.9548C9.49936 13.2564 10.0754 13.7934 10.9964 13.7679C11.6093 13.7509 12.1669 13.5399 12.6487 13.2365C12.8113 13.1341 12.9293 13.0102 13.0703 12.9157V13.2284L12.0313 13.9086C11.6745 14.1466 11.3454 14.365 11 14.5965C10.9242 14.5457 9.06164 13.2637 8.9297 13.2284V12.9548ZM11.1953 13.033C10.4162 13.033 10.2296 12.9824 9.42154 12.4235C9.21984 12.284 9.05808 12.1522 8.86294 12.0053C8.43633 11.6841 8.17751 11.5128 7.91347 11.001C7.55065 10.2978 7.32814 9.5361 7.32814 8.65524V6.23185C7.32814 5.82234 7.57383 5.43591 7.86198 5.20256C8.63188 4.57899 9.49568 5.14143 10.5655 4.78082C12.1196 4.25696 11.5974 4.24968 13.1724 4.80074C13.6788 4.97795 13.9306 4.99462 14.3114 5.38082C14.4678 5.53941 14.6719 5.85743 14.6719 6.15368V8.61617C14.6719 9.72281 14.1971 10.9817 13.6473 11.5387C13.3444 11.8455 12.9858 12.0443 12.5717 12.4169C12.3165 12.6465 11.6559 13.033 11.1954 13.033L11.1953 13.033ZM14.1641 2.67488C14.1641 3.01094 14.5379 2.89438 14.9916 3.25398C15.1761 3.40026 15.4531 3.84261 15.4531 4.16021C15.4531 4.53148 15.4973 6.58732 15.4181 6.78303C15.3953 6.83924 15.3956 6.8275 15.375 6.85718C15.375 6.16287 15.419 5.89466 15.1807 5.41002C14.6677 4.36699 13.7074 4.25606 12.635 3.85312C11.5441 3.4432 11.2107 3.87312 10.212 4.15334C9.67214 4.30481 8.86786 4.09765 8.28698 4.22063C7.79796 4.32413 7.32397 4.65859 7.07029 4.99664C6.65526 5.5497 6.625 5.89259 6.625 6.5445C6.5582 6.43916 6.54687 6.31914 6.54687 6.19271C6.54687 4.80266 6.34758 3.47896 7.27871 2.54724C7.71241 2.11323 8.34763 1.73678 9.00782 1.73678H13.6563C13.9241 1.73678 14.2422 1.90592 14.2422 2.16675C14.2422 2.37627 14.1641 2.43605 14.1641 2.67488ZM5.84377 4.43379C5.84377 5.3171 5.73336 6.40163 6.06464 7.06614C6.21931 7.37646 6.40218 7.5316 6.50329 7.79982C6.77554 8.52183 6.38399 9.97744 7.45299 11.579C8.30712 12.8587 8.22656 11.8191 8.22656 13.1893C8.0282 13.2058 2.82288 15.105 2.55926 15.2576C2.05501 15.5496 1.60409 16.1311 1.4711 16.7485C1.39264 17.1126 1 19.3715 1 19.795C1 20.4089 1.5583 20.9676 2.17187 20.9676H19.8281C20.4495 20.9676 21 20.4355 21 19.7168C21 19.4166 20.582 16.9947 20.5289 16.7486C20.1945 15.1967 18.7404 14.9901 17.579 14.5408C17.2721 14.4221 13.98 13.2065 13.7734 13.1893C13.7734 13.006 13.7732 12.8233 13.7715 12.6401C13.7666 12.133 13.9203 12.3965 14.4601 11.6485C15.5468 10.1426 15.0722 8.9134 15.8566 7.45632C15.9931 7.20263 16.1562 7.00399 16.1562 6.62267V4.12111C16.1562 3.72135 15.9177 3.30216 15.7431 3.04919C15.5892 2.82616 15.1884 2.46705 14.9062 2.40126C14.9863 2.23422 14.9369 2.00935 14.8829 1.83826C14.7431 1.3949 14.2105 1.0332 13.6953 1.0332H9.04687C7.36673 1.0332 5.84374 2.57509 5.84374 4.43375L5.84377 4.43379Z" stroke="#0F4C8D" stroke-width="0.4" mask="url(#path-1-outside-1_1520_4784)"/>
</svg>
