<svg width="27" height="24" viewBox="0 0 27 24" fill="none" xmlns="http://www.w3.org/2000/svg">
<path d="M2.1693 23.869C1.6528 24.0821 1.16212 24.0352 0.697274 23.7283C0.232425 23.4225 0 22.9765 0 22.3904V16.436C0 16.063 0.1033 15.73 0.3099 15.4369C0.516499 15.1438 0.800574 14.9574 1.16212 14.8774L12.396 12.0001L1.16212 9.12284C0.800574 9.04291 0.516499 8.85642 0.3099 8.56337C0.1033 8.27031 0 7.93729 0 7.56431V1.6099C0 1.02379 0.232425 0.577275 0.697274 0.270363C1.16212 -0.0354828 1.6528 -0.0818398 2.1693 0.131293L26.0316 10.5215C26.6772 10.8146 27 11.3075 27 12.0001C27 12.6928 26.6772 13.1857 26.0316 13.4787L2.1693 23.869Z" fill="#9DB6D0"/>
</svg>
