<svg width="28" height="23" viewBox="0 0 28 23" fill="none" xmlns="http://www.w3.org/2000/svg">
<path fill-rule="evenodd" clip-rule="evenodd" d="M20.3516 16.2289C20.3653 16.2667 20.3525 16.2423 20.3786 16.2676L20.963 16.7996L21.261 17.1748C21.263 17.1778 21.2654 17.1819 21.2674 17.1849L21.4861 17.5408C21.4879 17.5441 21.4899 17.5485 21.4916 17.5518L21.8107 18.3329C21.8322 18.4117 21.8678 18.4804 21.8759 18.5634C21.8816 18.622 21.8732 18.6429 21.8878 18.6993C21.9281 18.8553 21.9396 18.9146 21.9435 19.087C21.9463 19.2081 21.9764 19.248 21.9764 19.3662V21.173H15.3949L15.7725 20.7953C15.7876 20.7792 15.791 20.7741 15.8119 20.7525L16.0849 20.4836C16.1013 20.4672 16.1002 20.4668 16.1163 20.4494C16.1186 20.447 16.1218 20.4433 16.1242 20.4409L16.7806 19.7839C16.783 19.7814 16.7863 19.7779 16.7886 19.7754L16.8049 19.7588C16.8223 19.7411 16.8251 19.738 16.8459 19.7178C16.8843 19.6805 16.8926 19.6764 16.9292 19.6368L17.2418 19.3256C17.2992 19.266 17.3436 19.2239 17.3979 19.1696L18.2739 18.2888C18.2762 18.2864 18.2797 18.283 18.2821 18.2806L18.6104 17.952C18.6219 17.9403 18.6212 17.9412 18.635 17.9274L18.7911 17.7716C18.7945 17.7682 18.8041 17.7584 18.8074 17.755L18.8811 17.6809C18.8908 17.6716 18.8995 17.6632 18.906 17.6566L19.3237 17.2369C19.3445 17.2153 19.3458 17.2145 19.365 17.1961L19.6932 16.8676C19.6956 16.8653 19.6992 16.8619 19.7017 16.8596L19.8081 16.7527C19.8166 16.7437 19.8198 16.7398 19.8322 16.7275L20.2838 16.2761C20.2862 16.2737 20.2894 16.27 20.2919 16.2677C20.2943 16.2654 20.2977 16.2618 20.3002 16.2596C20.3339 16.2312 20.3007 16.2425 20.3516 16.2289ZM27.9998 16.2688V18.397C27.9998 18.4485 27.9829 18.4755 27.9567 18.5182C27.9548 18.5212 27.9521 18.5252 27.9502 18.5281L27.8814 18.6235C27.8322 18.6778 27.7566 18.7236 27.689 18.7595C27.5571 18.8294 27.268 18.8077 27.0642 18.8077C25.7348 18.8077 24.4054 18.8077 23.076 18.8077C23.14 19.5777 23.1088 20.3958 23.1088 21.173H26.3093C26.3974 21.173 26.491 21.1762 26.5582 21.2031C26.6625 21.2449 26.7764 21.3233 26.8342 21.4197L26.8604 21.4591C26.8759 21.483 26.8661 21.4646 26.879 21.4898L26.8937 21.5243C26.9575 21.67 26.9555 21.859 26.8752 22.0021C26.8218 22.0971 26.7628 22.1632 26.6672 22.221L26.5778 22.2794C26.5683 22.2833 26.5571 22.2868 26.5444 22.2899H25.702H1.56871C1.50529 22.2892 1.46693 22.2884 1.46309 22.2875L1.38904 22.2467C1.36117 22.2277 1.35182 22.2227 1.32833 22.2089C1.10903 22.0801 1.01769 21.7644 1.11759 21.5358L1.21351 21.369C1.21567 21.3665 1.21917 21.3631 1.22148 21.3606L1.26471 21.3218C1.39746 21.2145 1.52868 21.173 1.70692 21.173H4.90736C4.90736 20.3958 4.87619 19.5777 4.9402 18.8078C3.59439 18.8078 2.24853 18.8078 0.902721 18.8078C0.542499 18.8078 0.475733 18.8448 0.237128 18.7019C0.18725 18.672 0.205369 18.6922 0.159086 18.6486L0.00600683 18.424C0.00364343 18.4164 0.00162484 18.3752 0 18.3089V16.2654C0.00192026 16.1428 0.0042345 16.0645 0.00684409 16.0552C0.00797655 16.0511 0.0100441 16.0472 0.0113243 16.0432C0.040079 15.9554 0.0472186 15.8451 0.0791737 15.7662C0.107879 15.6953 0.0898093 15.6626 0.133631 15.5578C0.158446 15.4985 0.155197 15.4249 0.180308 15.3581C0.192863 15.3248 0.200003 15.2881 0.211475 15.258L0.413989 14.8201C0.423836 14.797 0.422458 14.7931 0.431419 14.7718C0.445944 14.7374 0.430483 14.7691 0.454019 14.7287L0.749296 14.2851L1.16762 13.8168C1.23409 13.7324 1.62036 13.43 1.72159 13.3692L2.68216 12.9179C2.72549 12.9081 2.74051 12.9155 2.78069 12.9016C2.82456 12.8865 2.80846 12.8756 2.87424 12.8638L3.16907 12.7975C3.2673 12.7832 3.20142 12.7939 3.26903 12.7661C3.31935 12.7454 3.31708 12.7513 3.38094 12.7467C3.49567 12.7384 3.45982 12.709 3.5777 12.6972L3.88725 12.6292C3.95146 12.6158 3.90975 12.6185 3.96968 12.5967C4.0325 12.5739 4.09996 12.5838 4.18534 12.5497C4.25058 12.5236 4.7432 12.4689 4.7432 12.3689C4.7432 11.8922 4.80647 11.8564 4.58017 11.7108L3.99799 11.2258C3.99567 11.2233 3.99233 11.2198 3.99001 11.2173L3.44008 10.4536L3.10802 9.53762C3.0997 9.49041 3.10575 9.45897 3.09975 9.41447C3.08951 9.33869 3.05268 9.31164 3.05268 9.19879V6.078C3.05268 5.98723 3.06981 5.97102 3.09059 5.90243C3.11747 5.81358 3.09325 5.73637 3.1318 5.64802C3.14967 5.60712 3.14273 5.6385 3.15603 5.57371C3.17011 5.50511 3.16489 5.48659 3.19468 5.41529L3.27336 5.18191C3.28601 5.1355 3.28769 5.14092 3.30133 5.1114L3.46711 4.7681C3.47065 4.76263 3.47917 4.75099 3.4869 4.73863C3.49611 4.72384 3.49591 4.72251 3.50492 4.70739C3.51216 4.69521 3.51861 4.68516 3.52368 4.67688C3.52624 4.6727 3.53353 4.66067 3.53609 4.65643L3.66283 4.45475C3.66495 4.45204 3.66805 4.44834 3.67016 4.44563L4.14526 3.90271C4.14772 3.90044 4.15122 3.89704 4.15368 3.89473L4.89746 3.37432C4.90081 3.37265 4.90504 3.37048 4.90829 3.36875L5.00642 3.31913C5.00987 3.31751 5.0141 3.31544 5.01745 3.31376L5.03867 3.30218C5.04192 3.30046 5.04596 3.29799 5.04921 3.29632L5.44089 3.14632C5.48831 3.12494 5.44114 3.134 5.5081 3.11498C5.57147 3.09695 5.62076 3.10251 5.67078 3.08069C5.75528 3.04383 5.74602 3.06645 5.83878 3.05171C5.88861 3.04378 5.93608 3.01475 5.99235 3.0083C6.2415 2.97972 7.10143 2.96671 7.36554 3.01032C7.43354 3.02156 7.45653 3.05068 7.55013 3.05556C7.60296 3.05832 7.60552 3.05082 7.65486 3.06571L7.82192 3.11207C7.87574 3.12434 7.86825 3.13134 7.90351 3.14539L8.22764 3.26449C8.57683 3.40527 8.93444 3.63736 9.20052 3.90054C9.25562 3.95499 9.35163 4.01575 9.37162 4.09065L9.41392 4.03442C9.45385 3.96573 9.38684 4.08823 9.42554 4.01319L9.52603 3.73596C9.63854 3.50569 9.64824 3.42941 9.81388 3.15352L10.1547 2.64051C10.1567 2.6377 10.1593 2.63356 10.1613 2.63075L10.413 2.32415C10.4297 2.30429 10.4266 2.30755 10.4433 2.28877L10.5715 2.15425C10.5739 2.15188 10.5773 2.14839 10.5797 2.14602L11.2798 1.5655C11.2826 1.56353 11.2866 1.56082 11.2895 1.5588L11.7256 1.28896C11.7287 1.28719 11.7329 1.28477 11.736 1.28295L11.7775 1.25885C11.8553 1.22259 12.0274 1.12522 12.1471 1.08673C12.1764 1.07732 12.1651 1.08506 12.1983 1.0722L12.9428 0.831779C13.0228 0.804332 13.082 0.816159 13.1553 0.798075C13.3507 0.749883 13.246 0.772796 13.4741 0.755747C13.5498 0.75008 13.5974 0.730567 13.6876 0.723077C13.8912 0.706175 14.1405 0.707358 14.3443 0.723914C14.4294 0.730813 14.4764 0.752839 14.5579 0.756584C14.6458 0.760575 14.7206 0.751953 14.7883 0.772304L15.4853 0.945262C15.6339 1.0076 15.7928 1.04519 15.9359 1.11857L16.0283 1.15744C16.0537 1.16986 16.0466 1.16779 16.0714 1.18001C16.088 1.18819 16.088 1.18691 16.1051 1.19563L16.508 1.41654C16.5111 1.41836 16.5153 1.42073 16.5184 1.42255L16.6615 1.50933C16.6781 1.52199 16.6792 1.52332 16.6986 1.5379C16.7024 1.54081 16.7134 1.54914 16.7173 1.55195C16.7201 1.55397 16.7241 1.55683 16.7269 1.5588L16.8533 1.64587C16.8561 1.64789 16.86 1.65079 16.8628 1.65282L17.4941 2.20357C17.4965 2.20594 17.5 2.20934 17.5024 2.21175L17.977 2.78799C18.007 2.82913 18.0012 2.82958 18.0263 2.87003L18.0396 2.88954C18.0424 2.89354 18.051 2.90433 18.0537 2.90832C18.0557 2.91118 18.0585 2.91507 18.0604 2.91798L18.2089 3.16362C18.2107 3.16667 18.2134 3.17062 18.2152 3.17372C18.2293 3.19792 18.2251 3.19323 18.2379 3.21669C18.2397 3.21994 18.2419 3.22418 18.2437 3.22738L18.5612 3.92794C18.5783 3.9918 18.5674 3.97051 18.5967 4.02388L18.6448 4.0907L18.7907 3.92469C18.7932 3.92242 18.7968 3.91912 18.7992 3.9168L18.8321 3.88403C18.8355 3.88063 18.8449 3.87073 18.8483 3.86738C18.9575 3.75907 19.1026 3.64598 19.2365 3.56601L19.5112 3.39738C19.5593 3.37166 19.6032 3.35397 19.6554 3.32825C19.8172 3.24847 19.8897 3.23403 19.9674 3.19698C20.0771 3.14465 20.2213 3.12297 20.305 3.09138C20.3304 3.08182 20.3542 3.06526 20.3881 3.05955C20.4264 3.05314 20.459 3.05822 20.4974 3.05388C20.5612 3.04669 20.6022 3.01569 20.6652 3.00835C20.9849 2.9711 21.3255 2.99027 21.6483 2.99027C22.1027 2.99027 22.0182 3.03343 22.1922 3.05368C22.3013 3.0664 22.2664 3.04826 22.3565 3.0863C22.4158 3.11134 22.3739 3.09808 22.4513 3.10641C22.5277 3.11469 22.7313 3.19816 22.8219 3.22822L23.0333 3.32879C23.0899 3.35407 23.0566 3.33983 23.0978 3.36284L23.5544 3.64495C23.5687 3.65569 23.5683 3.65534 23.5826 3.66609L23.7753 3.8181C23.7818 3.82407 23.7976 3.83826 23.8013 3.84141L24.106 4.14421C24.1264 4.16584 24.1324 4.17353 24.153 4.1957L24.2806 4.36359C24.2836 4.36738 24.2923 4.37803 24.2953 4.38182L24.3536 4.45485C24.449 4.57868 24.5284 4.72872 24.5982 4.86714C24.5999 4.87044 24.6023 4.87443 24.604 4.87773L24.6634 4.99905C24.6838 5.03463 24.6637 4.99383 24.6813 5.03034L24.7762 5.28032C24.8194 5.37296 24.8397 5.4889 24.8632 5.5875C24.879 5.65383 24.9058 5.67103 24.913 5.73474C24.923 5.82221 24.9039 5.83669 24.9302 5.9146C24.95 5.97304 24.9637 5.99728 24.9637 6.07819V9.19899C24.9637 9.31765 24.9233 9.34076 24.9152 9.4297L24.87 9.66371L24.5194 10.5612C24.4572 10.6803 24.3622 10.8059 24.2839 10.9168L23.7735 11.4572C23.7475 11.4795 23.7611 11.4682 23.7393 11.4887L23.5455 11.6396C23.5183 11.6601 23.5428 11.6431 23.5171 11.6605C23.5131 11.6633 23.5012 11.6707 23.4971 11.6733L23.3767 11.75C23.3244 11.7885 23.2732 11.8253 23.2732 11.9092C23.2732 12.5207 23.1939 12.3937 23.5677 12.485L23.8755 12.5711C23.9437 12.5944 23.997 12.5821 24.0912 12.6181C24.2149 12.6653 24.4159 12.669 24.5315 12.7194C24.5952 12.7473 24.6831 12.7397 24.7474 12.7662C24.815 12.794 24.7491 12.7833 24.8473 12.7976L25.0691 12.8548C25.1227 12.8663 25.1328 12.8556 25.1813 12.874C25.2479 12.8992 25.1882 12.8959 25.2761 12.9106C25.3403 12.9213 25.3216 12.909 25.3825 12.9354C25.4266 12.9546 25.3879 12.9417 25.4277 12.9559L25.5722 13.0084C25.6107 13.0253 25.5755 13.0111 25.6216 13.0247C25.6259 13.026 25.6305 13.0267 25.6348 13.0279L25.6715 13.0404C25.6894 13.0479 25.7346 13.0697 25.7605 13.0828L26.2843 13.3634C26.4142 13.4365 26.6126 13.6166 26.741 13.7111C26.8412 13.7848 26.9373 13.9077 27.0246 14.0022C27.0278 14.0057 27.0371 14.0158 27.0403 14.0193L27.5849 14.7718C27.6712 14.9759 27.7854 15.1811 27.8548 15.4051C27.8707 15.4562 27.8606 15.4641 27.8712 15.5201C27.8856 15.5961 27.8893 15.542 27.9102 15.6125C27.9234 15.6568 27.9139 15.6825 27.9245 15.7296C27.9433 15.8125 27.9708 15.8496 27.9808 15.9361C27.9896 16.0124 27.9958 16.1279 28 16.2689L27.9998 16.2688ZM6.03987 19.3662C6.03987 19.2517 6.06976 19.2123 6.07271 19.1034C6.07502 19.0183 6.08054 18.915 6.09073 18.8257C6.10146 18.7316 6.12884 18.744 6.13913 18.5785C6.14425 18.4966 6.16976 18.4783 6.19108 18.4005L6.2765 18.1083C6.29999 18.0573 6.28295 18.1075 6.29644 18.0626L6.48227 17.6243C6.48389 17.6209 6.48596 17.6167 6.48763 17.6133C6.48926 17.61 6.49157 17.6058 6.4933 17.6025C6.49497 17.5992 6.49738 17.5951 6.49911 17.5919C6.50083 17.5886 6.50319 17.5845 6.50497 17.5813C6.50669 17.578 6.5091 17.5739 6.51082 17.5707L6.6156 17.3963C6.61742 17.3932 6.61984 17.3891 6.62171 17.386L6.63367 17.3651C6.73623 17.1942 6.84618 17.0252 6.98232 16.8763C6.98552 16.8728 6.99508 16.863 6.99833 16.8595C7.00862 16.8484 7.01339 16.8431 7.02191 16.8338L7.4781 16.3869C7.49671 16.3705 7.50409 16.3659 7.52408 16.3508C7.58519 16.3048 7.63605 16.2354 7.71409 16.2289C7.72374 16.265 7.75353 16.2888 7.778 16.3127C7.78041 16.3151 7.78391 16.3185 7.78632 16.3209L8.58239 17.1174C8.59982 17.1351 8.60263 17.1382 8.62341 17.1584L9.06655 17.6019C9.0699 17.6053 9.07964 17.6149 9.08299 17.6183L10.3635 18.8992C10.3658 18.9016 10.3692 18.9052 10.3715 18.9076L11.0443 19.5812C11.0617 19.5989 11.0645 19.602 11.0853 19.6222C11.1191 19.6552 11.1325 19.6643 11.1608 19.6945C11.1758 19.7105 11.1792 19.7157 11.2002 19.7373L11.317 19.8502C11.3325 19.8663 11.3405 19.8768 11.3562 19.8932L11.5448 20.0821C11.562 20.0994 11.5592 20.0971 11.5776 20.115L11.8895 20.4271C11.8929 20.4304 11.9024 20.4402 11.9059 20.4435L12.2177 20.7556C12.2202 20.758 12.2235 20.7615 12.2259 20.7638L12.3251 20.8616C12.3274 20.8641 12.3307 20.8677 12.333 20.8702L12.3572 20.8952C12.3747 20.9129 12.3775 20.916 12.3983 20.9362L12.5963 21.1322C12.6232 21.1571 12.6076 21.1316 12.6377 21.1729H6.03992V19.3661L6.03987 19.3662ZM12.9331 19.8425L12.938 19.8474C12.9377 19.8471 12.9315 19.8441 12.9331 19.8425ZM22.3375 16.7217C22.3375 16.5712 22.3697 16.584 22.3894 16.4616L22.4545 16.1818C22.4641 16.1267 22.4689 16.1388 22.4852 16.0975L22.5341 15.9001C22.5573 15.8422 22.5535 15.7785 22.5766 15.7126L22.622 15.5281C22.6347 15.4787 22.6369 15.5106 22.6557 15.4469C22.6704 15.397 22.6606 15.3934 22.668 15.3442C22.6801 15.2633 22.7077 15.2365 22.7218 15.1517C22.7344 15.0759 22.7597 15.0522 22.774 14.974L22.8969 14.4564C22.9146 14.3922 22.8966 14.4539 22.9144 14.4082C22.9411 14.3396 22.9363 14.2815 22.9586 14.2225C23.0089 14.0891 23.0357 13.8699 23.0842 13.7569C23.107 13.7038 23.1089 13.6469 23.1089 13.5845C23.3085 13.5845 23.3633 13.6353 23.4557 13.6481L24.0472 13.7789C24.0742 13.7891 24.0939 13.8041 24.1305 13.8104C24.2385 13.8292 24.2148 13.8147 24.3067 13.8476L24.5575 13.9087C24.6167 13.93 24.669 13.9211 24.7247 13.9385L25.21 14.0933C25.2809 14.1084 25.2542 14.1093 25.3132 14.1379L25.7889 14.4174C25.7915 14.4195 25.7953 14.4225 25.798 14.4247C25.8006 14.4269 25.8042 14.4301 25.8068 14.4323L26.07 14.6452C26.0723 14.6477 26.0756 14.6512 26.0779 14.6537C26.2085 14.7968 26.3316 14.9348 26.4384 15.0978L26.7772 15.81C26.8114 15.8895 26.7887 15.9213 26.8137 15.9869C26.8463 16.0722 26.847 16.0597 26.8513 16.1628C26.8537 16.2183 26.8621 16.2897 26.8696 16.3581C26.877 16.4269 26.9001 16.4533 26.9001 16.541V17.6743H22.8298C22.7622 17.6743 22.7858 17.6266 22.757 17.5665L22.6214 17.2587C22.6066 17.2246 22.6114 17.2261 22.5932 17.1884L22.4634 16.957C22.4397 16.9168 22.4192 16.8806 22.399 16.8407L22.3832 16.8073C22.3633 16.7691 22.3374 16.764 22.3374 16.7216L22.3375 16.7217ZM5.18643 17.6744H1.11612C1.11612 17.3799 1.08667 16.643 1.1395 16.4001C1.16215 16.296 1.15826 16.2126 1.16481 16.0969C1.17097 15.9878 1.18249 16.0569 1.20696 15.9748C1.22887 15.9014 1.21617 15.8822 1.25452 15.7761C1.31996 15.5951 1.25826 15.7144 1.36885 15.4799C1.37998 15.4562 1.38111 15.4444 1.39145 15.4203L1.51932 15.187C1.52129 15.1842 1.52434 15.1804 1.52631 15.1775L1.82189 14.7834C1.90022 14.6976 1.97487 14.606 2.07044 14.5394L2.37226 14.3159C2.37537 14.314 2.3796 14.3117 2.38265 14.3099C2.38576 14.3081 2.39004 14.3058 2.39314 14.3039L2.59516 14.194C2.59851 14.1923 2.60284 14.1904 2.60619 14.1886L2.66882 14.1528C2.81496 14.0795 2.81097 14.1059 2.92953 14.0523L3.30438 13.9347C3.36026 13.921 3.3931 13.9303 3.44687 13.913L3.72117 13.8426C3.7807 13.8198 3.8618 13.8228 3.92477 13.7999C4.01596 13.7669 4.05038 13.7727 4.12374 13.7527C4.20154 13.7314 4.15614 13.7294 4.2459 13.7107C4.28066 13.7035 4.3458 13.7018 4.38692 13.6876C4.56319 13.6268 4.50838 13.6721 4.64487 13.6172C4.69755 13.596 4.71848 13.6031 4.78618 13.5924C4.96767 13.5639 4.87486 13.6208 4.93217 13.7567C4.97767 13.8645 5.00238 14.0392 5.02917 14.1524C5.04921 14.2373 5.05664 14.1866 5.07112 14.2747C5.08254 14.3441 5.07856 14.3479 5.10194 14.4081L5.34611 15.3299C5.36078 15.4021 5.34153 15.401 5.36994 15.4702C5.38555 15.5082 5.38481 15.4882 5.39436 15.5279C5.40254 15.5617 5.39806 15.582 5.40392 15.6169C5.41406 15.6772 5.43238 15.6819 5.44779 15.7372C5.46108 15.785 5.45768 15.8238 5.47319 15.876C5.49279 15.942 5.50446 15.9176 5.51381 15.9996C5.52558 16.1029 5.5472 16.0979 5.5634 16.1964C5.59067 16.362 5.67876 16.5631 5.67876 16.7215C5.67876 16.7662 5.66783 16.7463 5.65099 16.7759L5.56827 16.9231C5.55744 16.943 5.56286 16.9358 5.55114 16.9552L5.23656 17.6259C5.22016 17.6614 5.24064 17.6742 5.18638 17.6742L5.18643 17.6744ZM15.116 19.8096C15.116 19.7191 15.1074 19.7202 15.1378 19.6507C15.1745 19.5672 15.1541 19.5811 15.1744 19.4903C15.1954 19.3962 15.2135 19.3969 15.2315 19.2682C15.2418 19.1947 15.2322 19.2459 15.2568 19.195C15.2986 19.1088 15.2646 19.1258 15.2853 19.0428C15.2976 18.9932 15.298 19.0262 15.3172 18.9761C15.3347 18.9304 15.3252 18.9448 15.3322 18.8926C15.3403 18.8306 15.352 18.8078 15.3712 18.7509L15.5596 17.9868C15.5724 17.91 15.591 17.9228 15.6042 17.8507L15.646 17.6954C15.6624 17.6474 15.6598 17.5915 15.6736 17.5424C15.6896 17.4851 15.7091 17.4534 15.7187 17.3904L15.7923 17.0864C15.8391 16.9863 15.8681 16.7341 15.9064 16.642C15.9408 16.5596 15.9218 16.5653 15.9444 16.483C15.9642 16.4112 15.9741 16.4445 15.9871 16.345C16.0048 16.2105 16.0836 16.0095 16.1014 15.8845C16.1133 15.8008 16.1319 15.8096 16.1455 15.748L16.2154 15.4401C16.2265 15.3414 16.2456 15.3706 16.2607 15.2883C16.2675 15.2509 16.2625 15.2391 16.2727 15.2018C16.2961 15.1166 16.3216 15.0721 16.3306 14.9641L16.6941 15.0438C16.7193 15.0533 16.7375 15.0652 16.78 15.0727L16.9643 15.1183C17.0129 15.1328 17.0167 15.1243 17.0669 15.1306C17.1699 15.1436 17.3931 15.2274 17.5292 15.2428C17.6186 15.2529 17.5597 15.2419 17.6193 15.2677C17.6991 15.3024 17.7391 15.2837 17.8103 15.3065L18.1589 15.4011C18.1965 15.4075 18.2281 15.4046 18.262 15.4129C18.3104 15.4249 18.2792 15.4278 18.343 15.4468C18.4299 15.4726 18.4388 15.4477 18.5325 15.4871C18.5874 15.5102 18.551 15.4992 18.6253 15.5093C18.6523 15.5129 18.6896 15.5178 18.7226 15.5269L18.9071 15.5721C18.9887 15.5859 19.0004 15.6094 19.0854 15.6236C19.1263 15.6304 19.2135 15.6683 19.252 15.6868L18.8183 16.1233C18.8158 16.1256 18.8122 16.1288 18.8097 16.1311L18.556 16.3864C18.539 16.4038 18.538 16.4039 18.5231 16.4191L18.2028 16.7391C18.1994 16.7425 18.1899 16.7524 18.1866 16.7558L17.908 17.0354C17.9055 17.0377 17.9019 17.041 17.8994 17.0433C17.897 17.0457 17.8934 17.049 17.891 17.0513L17.8582 17.0842C17.8558 17.0866 17.8525 17.0901 17.8502 17.0926L17.7353 17.2076C17.7328 17.2099 17.7293 17.2132 17.7269 17.2156L17.5712 17.3718C17.5687 17.3741 17.5652 17.3775 17.5628 17.3798L17.4071 17.536C17.4046 17.5384 17.4011 17.5417 17.3987 17.544C17.3962 17.5463 17.3928 17.5497 17.3903 17.5521L17.243 17.7003C17.2405 17.7026 17.237 17.7059 17.2346 17.7083L17.0376 17.9054C17.0353 17.9078 17.0319 17.9113 17.0296 17.9138L16.7093 18.2339C16.707 18.2364 16.7037 18.2399 16.7014 18.2423L16.5452 18.3981C16.5429 18.4006 16.5396 18.4041 16.5373 18.4066L16.3811 18.5624C16.3788 18.5648 16.3755 18.5683 16.3732 18.5708L16.1626 18.7871C16.1389 18.8118 16.1257 18.8211 16.1027 18.8421L15.4292 19.515C15.3689 19.5727 15.1842 19.7913 15.1162 19.8094L15.116 19.8096ZM8.78077 15.6705C8.88939 15.6614 8.77048 15.6468 8.94424 15.6205C9.06492 15.6023 8.9729 15.5857 9.12386 15.5703L9.48103 15.4843C9.57881 15.4419 9.56882 15.474 9.65966 15.4496C9.69758 15.4394 9.70161 15.4257 9.74022 15.4152C9.78128 15.4041 9.80102 15.4103 9.84332 15.4034C9.9057 15.3933 9.92638 15.3688 10.0068 15.3535C10.1647 15.3235 10.0315 15.3642 10.1901 15.307C10.2535 15.2842 10.3005 15.3018 10.3698 15.2733C10.5096 15.2157 10.4563 15.2562 10.5575 15.2312C10.6245 15.2147 10.6533 15.1926 10.7219 15.1822C10.8979 15.1555 10.8217 15.153 10.9046 15.1352C11.0049 15.1136 10.9874 15.1375 11.081 15.0981C11.1157 15.0834 11.4443 15.0287 11.5326 14.9916C11.7325 14.9074 11.691 15.0122 11.7103 15.0875C11.7311 15.1691 11.7402 15.1233 11.7525 15.2424C11.761 15.3252 11.7821 15.33 11.7951 15.3804C11.8142 15.4541 11.8031 15.4698 11.831 15.5416L12.0089 16.2177C12.0161 16.2406 12.0239 16.2879 12.0257 16.2994C12.0424 16.4049 12.0529 16.3786 12.0721 16.4501C12.0907 16.5191 12.0705 16.5338 12.099 16.6038C12.1522 16.7344 12.1154 16.6596 12.1381 16.7618C12.1571 16.8481 12.1661 16.8089 12.1854 16.8952L12.2538 17.2209C12.2702 17.2765 12.2724 17.254 12.2838 17.2895C12.2996 17.3389 12.29 17.3747 12.3136 17.4404C12.3676 17.5908 12.3567 17.6278 12.3753 17.6743C12.4346 17.8236 12.3852 17.7855 12.4327 17.896C12.4845 18.0164 12.4322 17.956 12.4924 18.1155C12.5148 18.1746 12.5113 18.2125 12.5273 18.2777C12.5448 18.3493 12.5622 18.3279 12.5722 18.4298L12.6873 18.8896C12.6991 18.9729 12.7195 18.9656 12.7317 19.0258C12.7386 19.0602 12.7338 19.0809 12.7407 19.1153C12.7479 19.1513 12.7569 19.1554 12.7689 19.1857C12.7993 19.2624 12.7653 19.2539 12.8258 19.4079C12.8564 19.4859 12.8441 19.5196 12.8588 19.572C12.8708 19.6151 12.8762 19.6037 12.8887 19.6406C12.9037 19.6847 12.9053 19.761 12.9167 19.8097C12.8532 19.7927 12.8246 19.7423 12.7813 19.6988C12.7336 19.6509 12.6978 19.6152 12.65 19.5674L8.80185 15.715C8.77176 15.6709 8.79274 15.6934 8.78067 15.6705L8.78077 15.6705ZM12.6541 14.1593V13.0588L12.9735 13.117C13.0385 13.1373 12.9859 13.148 13.1298 13.1577C13.226 13.1641 13.2154 13.181 13.285 13.1994C13.3542 13.2177 13.7573 13.2173 13.8295 13.2293C14.1413 13.2814 13.9984 13.2397 14.3446 13.223C14.4186 13.2195 14.4343 13.2061 14.5246 13.2061C14.8851 13.2061 14.7032 13.1724 14.8708 13.1583C15.0151 13.1462 14.9155 13.1656 15.031 13.1216C15.0845 13.1013 15.1499 13.1093 15.2022 13.0959C15.2855 13.0745 15.2602 13.0588 15.3622 13.0588V14.1922C15.3622 14.2614 15.3278 14.2685 15.3152 14.3423L15.2124 14.7321C15.1955 14.7792 15.2041 14.7721 15.1973 14.832L15.1071 15.1524C15.0864 15.2139 15.0914 15.2621 15.0739 15.3163C15.0309 15.4501 15.0599 15.2995 15.0317 15.4875L14.9387 15.8051C14.9205 15.8629 14.9245 15.9178 14.9052 15.9687L14.8196 16.2937C14.8044 16.4052 14.7791 16.3837 14.7561 16.5422L14.698 16.7961C14.673 16.8804 14.6764 16.7827 14.6517 16.9469L14.5663 17.2721C14.535 17.3457 14.5504 17.3798 14.525 17.4442C14.4731 17.5759 14.5076 17.477 14.4856 17.6019C14.4715 17.6815 14.4517 17.6896 14.4359 17.7658L14.1858 18.7474C14.1576 18.8136 14.1667 18.849 14.1517 18.9103C14.1351 18.9779 14.1135 19.0059 14.103 19.0751C14.097 19.1147 14.1007 19.1235 14.0891 19.1597C14.0772 19.1968 14.0756 19.1712 14.0592 19.2284C14.0391 19.2982 14.0713 19.3921 14.0124 19.3704C13.9428 19.3449 13.9968 19.2935 13.9368 19.15L13.8303 18.731C13.7908 18.6392 13.8177 18.6615 13.7963 18.5679C13.7772 18.4841 13.775 18.5684 13.7492 18.4015C13.746 18.3807 13.7396 18.3538 13.7282 18.324C13.6774 18.1909 13.7009 18.1741 13.6605 18.0796C13.6266 18.0003 13.6512 17.9906 13.6287 17.9143C13.6124 17.8587 13.6102 17.8814 13.5988 17.8457C13.5871 17.8094 13.5898 17.7871 13.5827 17.7468L13.491 17.4279C13.4662 17.3654 13.4818 17.3218 13.4603 17.2616C13.4037 17.1039 13.3801 16.9475 13.322 16.7758C13.2997 16.7099 13.3194 16.6792 13.2911 16.6097C13.271 16.5603 13.2761 16.5983 13.2639 16.5384L13.1999 16.2903C13.1943 16.2532 13.1978 16.2391 13.1879 16.2038C13.1767 16.164 13.1644 16.1616 13.1539 16.1228C13.1328 16.0444 13.1572 16.0408 13.1216 15.9581L13.0197 15.5508C12.9592 15.3739 13.004 15.5098 12.9777 15.3793C12.9704 15.3434 12.9616 15.3393 12.9496 15.309C12.9259 15.2494 12.9363 15.1988 12.9124 15.1326C12.8976 15.0914 12.8996 15.1135 12.8836 15.0629C12.8721 15.0267 12.8741 15.0227 12.8685 14.9795C12.855 14.8748 12.8322 14.8928 12.8205 14.8139C12.7961 14.6505 12.8272 14.7881 12.7808 14.6566C12.76 14.5975 12.7639 14.5399 12.7431 14.4807L12.6539 14.1593L12.6541 14.1593ZM17.5779 14.0443L17.925 13.9483C17.994 13.9194 17.9849 13.9371 18.064 13.9231C18.1393 13.9097 18.1089 13.8979 18.3144 13.8616C18.379 13.8503 18.369 13.8361 18.4223 13.8218C18.4814 13.806 18.5085 13.8231 18.5676 13.8029C18.7522 13.7399 18.7249 13.7732 18.8045 13.7445L19.1696 13.6499C19.2673 13.6402 19.4257 13.5712 19.5638 13.568C19.576 13.6202 19.5731 13.656 19.5846 13.7114C19.5972 13.7721 19.6169 13.7637 19.6288 13.8478L19.6648 13.9761C19.6824 14.0224 19.6817 14.0816 19.693 14.1285C19.712 14.2078 19.7163 14.1669 19.7351 14.2506C19.7536 14.3328 19.7322 14.3245 19.7677 14.3987C19.8116 14.4903 19.7827 14.4436 19.7977 14.5329C19.8103 14.6078 19.8368 14.597 19.8428 14.6685L19.4241 14.5455C19.381 14.532 19.3913 14.5282 19.3688 14.5187L19.0031 14.4248C18.9781 14.4152 18.9999 14.4151 18.9466 14.3992C18.8985 14.3849 18.9081 14.3928 18.8581 14.3893C18.7569 14.382 18.7929 14.3685 18.719 14.3478L18.3518 14.2719C18.2921 14.2594 18.3297 14.2645 18.2807 14.2445C18.2114 14.2162 18.1978 14.2353 18.1271 14.2175C18.0674 14.2023 18.0658 14.1849 17.9872 14.1768C17.8229 14.1598 17.8879 14.1382 17.6908 14.1121C17.6067 14.1009 17.6166 14.1023 17.5779 14.0444V14.0443ZM8.17353 14.6521C8.20336 14.6075 8.21257 14.6006 8.22055 14.5349C8.24113 14.3653 8.23955 14.4757 8.2785 14.2644C8.29396 14.1805 8.30534 14.2031 8.32316 14.1284L8.38781 13.8482C8.39766 13.7632 8.41095 13.7892 8.42858 13.7247C8.44143 13.6775 8.44128 13.6163 8.45251 13.5679L8.70347 13.6124C8.87536 13.6665 8.85886 13.638 8.95035 13.6774C9.03602 13.7144 9.05301 13.6926 9.1405 13.7171C9.23002 13.7421 9.18812 13.7515 9.32273 13.7647C9.41983 13.7742 9.37866 13.7789 9.44868 13.8028C9.50639 13.8226 9.52224 13.8071 9.58064 13.8186C9.62431 13.8272 9.64238 13.8489 9.68793 13.8591C9.73647 13.8699 9.77611 13.8681 9.81678 13.8779C9.89615 13.8972 9.85543 13.9016 9.93859 13.9203C10.0626 13.948 9.93997 13.8982 10.1246 13.9641C10.2125 13.9954 10.163 13.9488 10.3052 14.0133L10.4384 14.0443C10.3183 14.1488 10.341 14.0766 10.1222 14.155C10.0184 14.1922 10.072 14.1464 9.8997 14.2114C9.83643 14.2353 9.80816 14.2155 9.74263 14.2349C9.65617 14.2605 9.72328 14.2612 9.60452 14.2774C9.45981 14.297 9.50383 14.3125 9.30821 14.3422C9.23711 14.353 9.24356 14.3761 9.17246 14.3871L8.67014 14.5085C8.59446 14.5307 8.65261 14.5349 8.53537 14.5543C8.46413 14.566 8.51735 14.5492 8.4592 14.5766C8.40081 14.6041 8.24512 14.652 8.17353 14.652V14.6521ZM20.5321 12.7632C20.5321 12.0314 20.4524 12.2868 20.8768 12.2868C21.0934 12.2868 21.8842 12.3089 22.0629 12.2583C22.124 12.2411 22.0567 12.2445 22.1406 12.2375L22.1358 12.8569C22.1254 12.8992 22.1128 12.8856 22.0979 12.9505C22.0873 12.9971 22.096 13.0222 22.0838 13.0677C22.0718 13.1119 22.0563 13.1179 22.0467 13.162L21.7143 14.4719C21.6923 14.6244 21.6825 14.5613 21.6599 14.6802C21.6562 14.6997 21.6485 14.7621 21.6388 14.7905C21.5681 14.9984 21.6186 14.8884 21.5914 14.9895C21.5795 15.0337 21.5639 15.0396 21.5543 15.0838L21.5014 15.2936C21.492 15.3327 21.4913 15.3662 21.4819 15.4056C21.4595 15.4996 21.4348 15.4383 21.4348 15.6212C21.3693 15.606 21.2831 15.528 21.2397 15.4715C21.1848 15.4 21.1946 15.3532 21.1843 15.297C21.1686 15.2109 21.1588 15.2879 21.1368 15.1146L21.0644 14.8258C21.052 14.7906 21.039 14.7929 21.0289 14.7463C21.0203 14.7074 21.0274 14.6841 21.0179 14.6424C20.9939 14.537 21.0058 14.675 20.9709 14.4594L20.8645 14.0895C20.8559 14.0428 20.8639 14.0353 20.8501 13.989C20.8311 13.9251 20.8282 13.9557 20.8165 13.9077C20.7943 13.816 20.8354 13.886 20.7737 13.7206C20.7369 13.6222 20.7604 13.6028 20.7265 13.5214C20.7103 13.4827 20.7053 13.4812 20.6984 13.4346C20.6896 13.375 20.6992 13.3849 20.6818 13.3363L20.601 13.0557C20.5877 13.0135 20.5887 13.0013 20.5826 12.9591C20.5701 12.8727 20.5825 12.9293 20.5569 12.8699C20.5391 12.8286 20.5321 12.817 20.5321 12.7633L20.5321 12.7632ZM6.58153 15.6212C6.58153 15.4471 6.55991 15.4965 6.53766 15.4187L6.48296 15.2107C6.47104 15.1732 6.47311 15.1603 6.46626 15.1124C6.44874 14.9893 6.4415 15.108 6.41511 14.9008C6.40472 14.8192 6.38547 14.8538 6.36119 14.7083L6.33239 14.6058C6.29393 14.5171 6.3156 14.4754 6.28064 14.3947C6.25504 14.3357 6.26203 14.3767 6.25405 14.3064C6.24652 14.2404 6.25632 14.2504 6.23396 14.1951L6.14755 13.9038C6.1376 13.8598 6.14204 13.8301 6.13066 13.7893C6.11801 13.7439 6.1024 13.7383 6.09359 13.695C6.08344 13.6451 6.09408 13.6293 6.07911 13.5781L5.87497 12.764C5.87596 12.5885 5.87576 12.4131 5.87576 12.2376C5.94622 12.2435 5.93415 12.259 6.02199 12.272C6.19817 12.298 7.15776 12.2981 7.33624 12.27C7.51818 12.2413 7.4842 12.116 7.4842 12.7633C7.4842 12.8102 7.38307 13.1048 7.36963 13.2235C7.35953 13.3129 7.37076 13.2537 7.34491 13.3138C7.31074 13.3933 7.32925 13.4308 7.29523 13.5104C7.24796 13.6211 7.28307 13.5947 7.25116 13.6963C7.21241 13.8197 7.22891 13.7036 7.20443 13.8795C7.19178 13.9703 7.20438 13.8938 7.17327 13.9633C7.14781 14.0201 7.16204 13.9878 7.1548 14.0598C7.14303 14.1762 7.12531 14.1114 7.10172 14.253L7.03836 14.5345C7.02127 14.6287 7.0131 14.5285 6.99119 14.7173C6.97834 14.828 6.9613 14.7396 6.93963 14.8956C6.92324 15.0142 6.89719 15.0207 6.8837 15.086C6.87543 15.1261 6.88094 15.153 6.87164 15.1889C6.8577 15.2427 6.85352 15.2062 6.8354 15.2676C6.82205 15.313 6.83239 15.3371 6.82068 15.3843C6.80241 15.4579 6.72821 15.5176 6.67306 15.5651C6.63732 15.5958 6.62885 15.6086 6.58153 15.6213V15.6212ZM16.4947 13.2888V12.5497C16.5516 12.5344 16.5185 12.5391 16.556 12.5125L17.4401 11.804C17.4425 11.8017 17.4461 11.7984 17.4486 11.7961L17.8357 11.3458C17.97 11.1794 17.9804 11.156 18.0853 10.988C18.1218 10.9296 18.219 10.8005 18.2344 10.7429C18.3266 10.7644 18.2904 10.7691 18.375 10.8815L18.6681 11.2287C18.6705 11.2311 18.6739 11.2345 18.6762 11.2369L18.7706 11.3397C18.7731 11.342 18.7768 11.3451 18.7794 11.3473C18.783 11.3504 18.7937 11.3591 18.7974 11.3621C18.8 11.3643 18.8039 11.3673 18.8065 11.3695C18.8091 11.3716 18.8128 11.3747 18.8154 11.3769C18.8254 11.3853 18.8403 11.3983 18.8504 11.4075L19.09 11.6113C19.1164 11.6302 19.1412 11.647 19.1675 11.6651C19.2005 11.6878 19.2224 11.6969 19.2588 11.7216C19.2883 11.7416 19.2749 11.7339 19.2965 11.7495C19.3211 11.7672 19.3242 11.7671 19.3461 11.782C19.3845 11.8084 19.3996 11.8076 19.3996 11.8763V12.4183C19.2889 12.4208 19.3223 12.4498 19.2188 12.4673L18.8418 12.5499C18.6766 12.6159 18.7405 12.562 18.6382 12.5925C18.5749 12.6113 18.6064 12.6135 18.5571 12.6264C18.5297 12.6336 18.4872 12.6353 18.4566 12.6407C18.3633 12.6571 18.3564 12.6848 18.2647 12.695C18.21 12.7011 18.2132 12.6923 18.1638 12.7091C18.1241 12.7227 18.1237 12.7338 18.0821 12.7423C18.0432 12.7503 18.0196 12.7448 17.9784 12.7535C17.9342 12.7629 17.9181 12.7787 17.8819 12.7883C17.808 12.8078 17.7609 12.7997 17.6903 12.8264C17.6621 12.8371 17.65 12.846 17.6039 12.855C17.4179 12.8914 17.5205 12.8852 17.4275 12.9084C17.3611 12.925 17.4018 12.9052 17.3386 12.9345C17.2455 12.9775 17.0877 13.0004 16.8186 13.1367L16.7115 13.1937C16.7082 13.1955 16.704 13.1977 16.7008 13.1995C16.6362 13.2348 16.5775 13.287 16.4946 13.2888H16.4947ZM8.61666 11.8762C8.61666 11.8184 8.62617 11.8141 8.66009 11.7883L9.19201 11.3844C9.19565 11.3813 9.20614 11.3724 9.20978 11.3693L9.69378 10.8024C9.72687 10.7515 9.71437 10.7586 9.78192 10.7428C9.79561 10.7942 9.79728 10.7766 9.82185 10.8178C9.82436 10.822 9.8314 10.8344 9.83391 10.8386L10.0312 11.1504C10.123 11.3051 10.2548 11.4458 10.3738 11.5794L11.1488 12.2985C11.2157 12.347 11.4635 12.534 11.5216 12.5496V13.3051C11.512 13.3005 11.4923 13.2938 11.4865 13.291L10.8055 12.9706C10.6463 12.9261 10.399 12.8357 10.2629 12.8073L10.0635 12.7606C10.0059 12.7421 9.93195 12.744 9.87498 12.7192C9.81491 12.6932 9.74041 12.7016 9.67133 12.6766L9.39019 12.5967C9.31815 12.5706 9.27802 12.596 9.19644 12.5606C9.06935 12.5054 8.84705 12.4964 8.72317 12.4429C8.67959 12.4242 8.67275 12.4194 8.61666 12.4181V11.8761V11.8762ZM21.6482 11.1535C21.4314 11.1535 21.1159 11.182 20.9153 11.1313L20.6795 11.1046C20.5743 11.098 20.6474 11.0997 20.5689 11.0674L20.301 10.9906C20.207 10.9638 20.3497 11.0119 20.2761 10.9826L20.0293 10.8519C20.0062 10.8401 19.9915 10.835 19.9733 10.8258L19.6446 10.5798C19.6422 10.5775 19.6387 10.574 19.6363 10.5718L19.4146 10.3501C19.3238 10.2531 19.2426 10.1446 19.1789 10.0276C19.1668 10.0053 19.1631 9.99307 19.1521 9.97223C19.1361 9.94168 19.1234 9.92083 19.1063 9.88673C19.0757 9.82593 19.0303 9.77015 19.0112 9.70269C18.9949 9.64494 19.0084 9.6441 18.9815 9.58463C18.9619 9.54146 18.9547 9.54101 18.9445 9.49016C18.926 9.39762 18.9454 9.44966 18.9105 9.37638C18.8693 9.28981 18.8919 9.1201 18.8671 9.00918C18.8542 8.95153 18.8416 8.95419 18.8416 8.88683V7.68779C18.9707 7.68779 19.0678 7.67774 19.203 7.67163L19.5489 7.62359C19.6683 7.61442 19.6264 7.62369 19.7135 7.59121C19.7904 7.56259 19.8049 7.58239 19.8883 7.56899L20.201 7.48774C20.3439 7.42397 20.564 7.37815 20.7163 7.31364L20.9855 7.18878C21.0942 7.14389 21.2653 7.03075 21.3692 7.03075C21.4127 7.03075 21.4022 7.0479 21.4341 7.0644C21.6038 7.15226 21.7815 7.24126 21.9615 7.30852L22.3988 7.46221C22.4884 7.48241 22.5283 7.51454 22.6329 7.52351C22.7345 7.53228 22.6885 7.54879 22.7866 7.56682C22.8668 7.5816 22.8905 7.56268 22.9617 7.58865C23.0611 7.62497 23.1794 7.62817 23.3034 7.64083C23.3567 7.64626 23.4127 7.66636 23.4706 7.6706C23.6023 7.68026 23.7181 7.6877 23.8475 7.6877C23.8475 7.99833 23.8802 8.73156 23.8144 9.00149C23.786 9.11828 23.8119 9.27601 23.7677 9.38185C23.7383 9.45247 23.7485 9.39752 23.7318 9.49371C23.7155 9.58734 23.7154 9.525 23.6914 9.60108C23.6628 9.69165 23.6691 9.71176 23.6197 9.80863L23.5686 9.90526C23.5066 10.0412 23.4118 10.1771 23.3148 10.2919L23.111 10.5149C23.1085 10.5172 23.105 10.5206 23.1025 10.5228L22.9515 10.6509C22.9385 10.663 22.9196 10.6796 22.9075 10.689C22.7883 10.7821 22.4944 10.9631 22.3583 10.9935L22.2474 11.0304C22.1807 11.0592 22.1459 11.0514 22.0846 11.081C21.987 11.1281 21.8854 11.1022 21.7705 11.1279C21.7129 11.1409 21.7155 11.1534 21.6482 11.1534V11.1535ZM4.16884 8.75536V7.6877C4.30346 7.6877 4.91942 7.64221 5.04315 7.59363C5.1304 7.55938 5.19589 7.58451 5.2919 7.54691C5.35611 7.52178 5.46207 7.51745 5.52868 7.48823L5.68068 7.44319C5.71234 7.42924 5.70771 7.42373 5.74922 7.41323L6.31707 7.19311C6.34489 7.17961 6.35361 7.17409 6.38118 7.15872C6.42057 7.13679 6.41028 7.14458 6.44977 7.12881C6.45351 7.12733 6.45804 7.1259 6.46169 7.12432C6.71723 7.01552 6.58862 6.96432 6.95175 7.1529L7.05406 7.19834C7.09065 7.21588 7.04884 7.19528 7.08533 7.21632C7.1389 7.24727 7.08208 7.22081 7.152 7.24815C7.18558 7.26131 7.18671 7.26289 7.21935 7.2793L7.58253 7.4086C7.67066 7.4286 7.59139 7.40441 7.6554 7.43422L7.87382 7.51129C7.89908 7.51814 7.91882 7.51897 7.96048 7.52311C8.06018 7.53302 8.03418 7.54893 8.11424 7.56633C8.18643 7.582 8.22596 7.5651 8.29101 7.58658C8.37983 7.6159 8.33045 7.61561 8.45172 7.62285L9.17467 7.68775C9.17467 7.94797 9.20289 8.80395 9.15276 8.99622C9.12243 9.11251 9.14828 9.26615 9.10924 9.36333C9.08949 9.41241 9.08925 9.39255 9.07462 9.46006C9.06847 9.48844 9.07019 9.49036 9.06349 9.51465L9.01071 9.67534C8.99008 9.77626 8.91982 9.87087 8.87009 9.96169C8.79397 10.1008 8.71785 10.2241 8.60977 10.3418L8.26481 10.67L7.77244 10.9656L7.36731 11.1022C7.32674 11.1092 7.27568 11.1043 7.22812 11.1108C7.20118 11.1145 7.14269 11.1216 7.11403 11.128C6.88089 11.1802 6.60989 11.1535 6.36809 11.1535C6.30142 11.1535 6.31437 11.1454 6.25893 11.1314C6.16237 11.107 6.02549 11.1246 5.94213 11.0871C5.90727 11.0713 5.93017 11.0734 5.88664 11.0604L5.67177 10.9962C5.58157 10.9761 5.62509 10.9901 5.56192 10.9583C5.38806 10.8709 5.20933 10.7862 5.06482 10.651L5.03971 10.6269C4.94832 10.5447 4.85807 10.4752 4.77752 10.3801L4.71661 10.3096C4.71351 10.306 4.7046 10.2956 4.70149 10.2919L4.68657 10.274C4.60297 10.1755 4.53581 10.0609 4.46919 9.94951L4.43236 9.87141C4.36845 9.7496 4.36185 9.7461 4.32842 9.61409L4.22921 9.2699C4.22084 9.20466 4.22015 9.07674 4.20543 9.0145C4.18455 8.9264 4.16884 8.86042 4.16884 8.75541V8.75536ZM10.3071 8.50898V6.81719L11.6664 6.78136C11.7941 6.74756 11.8748 6.7652 11.994 6.74785C12.042 6.74091 12.0984 6.71351 12.1335 6.70676C12.1929 6.69533 12.2419 6.69996 12.2952 6.68798C12.3654 6.67222 12.3623 6.66069 12.4333 6.64546C12.5501 6.62043 12.5206 6.64255 12.6495 6.59899C12.6982 6.58258 12.6855 6.59362 12.734 6.58495C12.8038 6.57243 12.7951 6.55203 12.8671 6.5375L13.0068 6.4967C13.077 6.46619 13.1197 6.4727 13.1832 6.44328L14.1163 6.04656C14.1508 6.03099 14.1491 6.03483 14.1838 6.01561L14.3006 5.9519C14.3048 5.94934 14.3167 5.94185 14.3209 5.93934L15.0832 5.45387C15.106 5.51679 15.2912 5.75563 15.344 5.81708L15.3594 5.83443C15.3723 5.85 15.3748 5.85522 15.3879 5.87173L15.5249 6.01379C15.5273 6.01616 15.5308 6.01951 15.5333 6.02187L15.615 6.10436C15.6174 6.10673 15.6208 6.11022 15.6232 6.11254C15.6523 6.14048 15.6529 6.13856 15.6853 6.16536L16.0483 6.42628C16.075 6.44072 16.0495 6.42525 16.0794 6.44436L16.7206 6.72253C16.826 6.77363 16.8245 6.73273 16.9281 6.76126C17.0309 6.78954 16.9855 6.80304 17.1345 6.80112L17.7092 6.81723V8.50903L17.6441 9.08447C17.6103 9.17618 17.6246 9.1508 17.6066 9.26044C17.5965 9.32179 17.5704 9.34706 17.5547 9.42206C17.519 9.59207 17.4763 9.65129 17.4483 9.7427L17.4079 9.85007C17.4063 9.85338 17.4038 9.85737 17.4022 9.86072L17.2061 10.2558C17.2042 10.2588 17.2016 10.2629 17.1998 10.2659L16.3903 11.2298L16.0913 11.456C16.0697 11.4733 16.0845 11.4634 16.0631 11.4771L15.8913 11.5844C15.8882 11.5863 15.884 11.5886 15.8809 11.5904L15.5008 11.7849C15.4493 11.8105 15.4829 11.7966 15.4186 11.8176L15.1043 11.9301C15.0738 11.9366 15.0617 11.9431 15.0314 11.9557C14.9809 11.9767 15.0105 11.9681 14.9404 11.9797L14.7757 12.0283C14.7305 12.0412 14.6458 12.0333 14.5783 12.0443C14.5163 12.0544 14.4754 12.0898 14.394 12.0898H13.6226C13.5394 12.0898 13.5218 12.0619 13.452 12.047C13.3587 12.027 13.2781 12.0417 13.1819 12.0052C13.1535 11.9944 13.1272 11.9879 13.0904 11.9818L12.926 11.9328C12.7664 11.8934 12.6148 11.8275 12.4597 11.7589C12.4274 11.7447 12.4175 11.7381 12.3829 11.7208L12.1252 11.5844C12.1222 11.5826 12.1182 11.5799 12.1152 11.578L11.7817 11.3534C11.7609 11.3377 11.7515 11.3283 11.7277 11.3088L11.4718 11.0886C11.4693 11.0864 11.4658 11.083 11.4633 11.0807L11.3314 10.95C11.1827 10.7887 11.0684 10.6376 10.9379 10.4568L10.7464 10.1393C10.7397 10.1262 10.7367 10.1174 10.7306 10.1058C10.7289 10.1025 10.7266 10.0983 10.7249 10.0951L10.7062 10.0646C10.6922 10.0394 10.7017 10.0589 10.6898 10.0317L10.5713 9.75601C10.5517 9.6852 10.5465 9.71595 10.5265 9.65302L10.4644 9.43591C10.449 9.35406 10.4267 9.3415 10.4125 9.27433C10.3928 9.1812 10.4124 9.18475 10.3774 9.09586C10.3444 9.01164 10.3611 9.00366 10.3566 8.90324C10.3505 8.76674 10.3073 8.65715 10.3073 8.50903L10.3071 8.50898ZM18.8416 6.55435C18.8416 6.3128 18.8906 6.24903 18.8902 6.02808C18.89 5.92909 18.9511 5.77096 18.9865 5.68098L19.191 5.22863C19.1928 5.22557 19.1956 5.22168 19.1974 5.21862L19.4764 4.85728C19.5378 4.77957 19.5501 4.78431 19.6191 4.72084L19.9259 4.48584C19.952 4.47027 19.931 4.48155 19.9563 4.46697L20.2429 4.31027C20.3091 4.27829 20.2951 4.29948 20.3599 4.27952L20.5191 4.22542C20.5783 4.2093 20.5469 4.216 20.5788 4.20295L21.0902 4.12342H21.6154C21.7093 4.12342 21.7613 4.15205 21.8514 4.16643C21.9909 4.18871 21.9816 4.15323 22.1053 4.20797L22.5375 4.36674C22.6598 4.43563 22.7873 4.49575 22.8982 4.58065L22.9431 4.61785C22.9455 4.62012 22.949 4.62362 22.9514 4.62588C22.9694 4.64259 22.9585 4.63362 22.9767 4.64988L23.3339 5.01511C23.467 5.17945 23.445 5.17265 23.547 5.34393L23.6185 5.46949C23.6259 5.48476 23.6294 5.49802 23.6377 5.51595C23.6522 5.5472 23.6545 5.54266 23.6663 5.56952C23.6892 5.6221 23.6759 5.6352 23.6958 5.68778C23.7256 5.76638 23.7155 5.69024 23.7334 5.79801C23.7497 5.89656 23.771 5.88469 23.7916 6.03542C23.8067 6.14625 23.7985 6.1967 23.8213 6.30136C23.8486 6.42677 23.8401 6.44501 23.8311 6.55435C23.5523 6.48935 23.5176 6.52572 23.2894 6.50507C23.2 6.49699 23.2198 6.46767 23.1247 6.45644C22.9865 6.44013 22.9196 6.40632 22.7813 6.38947C22.6844 6.37764 22.7764 6.39731 22.7077 6.36464L22.4796 6.28077C22.3299 6.22923 22.1922 6.17448 22.0554 6.09766L21.8567 5.98442C21.8227 5.96422 21.8564 5.98265 21.8254 5.96649L21.6861 5.89237C21.683 5.89055 21.679 5.88794 21.6759 5.88612C21.6717 5.8836 21.6601 5.87582 21.6558 5.87335C21.6109 5.84773 21.6298 5.86187 21.5878 5.8429L21.524 5.80821C21.3729 5.75218 21.2047 5.79116 21.0621 5.85285C20.9121 5.9178 20.6215 6.11939 20.5033 6.16418L19.6643 6.44146C19.6262 6.45077 19.6123 6.44914 19.5642 6.45619C19.3785 6.48329 19.5121 6.50626 19.2024 6.50478C19.0698 6.50414 18.954 6.54508 18.8417 6.55445L18.8416 6.55435ZM4.18529 6.55435C4.16993 6.36947 4.20651 6.34581 4.21739 6.19232C4.23324 5.96954 4.23265 5.96791 4.28933 5.75514C4.301 5.71143 4.29952 5.73509 4.31532 5.69902C4.33911 5.64452 4.32517 5.63476 4.34506 5.58095C4.36574 5.52497 4.3461 5.58021 4.36766 5.53788L4.56525 5.16078C4.56712 5.15777 4.56993 5.15388 4.57185 5.15097L4.73173 4.94963C4.74374 4.93475 4.75024 4.9276 4.76215 4.91439L4.78594 4.88892C4.78923 4.88542 4.79874 4.87561 4.80194 4.87207C4.83118 4.83979 4.83187 4.83186 4.86211 4.80086C4.88003 4.78248 4.87747 4.78628 4.89682 4.76987L5.27551 4.47539C5.29653 4.46391 5.30539 4.46106 5.31967 4.45391C5.36453 4.43149 5.33395 4.44672 5.37191 4.42405L5.53297 4.33885C5.53627 4.33713 5.54065 4.33511 5.5439 4.33338C5.63317 4.28548 5.65119 4.29697 5.74489 4.25533L5.89974 4.2132C6.00575 4.16993 6.03898 4.18343 6.1508 4.1688C6.23116 4.1583 6.30595 4.12346 6.40093 4.12346C6.66715 4.12346 6.90945 4.10977 7.16765 4.16096C7.2808 4.18338 7.35042 4.17501 7.47209 4.21763C7.50419 4.22887 7.51562 4.22901 7.53777 4.23404L7.9656 4.41365C7.9687 4.41543 7.97269 4.41804 7.97579 4.41986L8.21799 4.57168C8.22079 4.5737 8.22478 4.57646 8.22754 4.57853C8.2303 4.5806 8.23414 4.58355 8.23685 4.58562L8.30012 4.63727C8.38293 4.70073 8.4691 4.76662 8.53262 4.84807L8.78841 5.16698C8.79033 5.16999 8.79264 5.17428 8.79451 5.17733L8.94592 5.45288C8.94769 5.45609 8.94985 5.46037 8.95153 5.46367L8.99555 5.55099C8.99712 5.55449 8.99934 5.55858 9.00072 5.56223L9.02504 5.6693C9.04626 5.73129 9.04675 5.69276 9.0666 5.77554C9.08934 5.87025 9.1246 5.90982 9.12622 6.01152C9.12957 6.21858 9.17457 6.34606 9.17457 6.5544C9.06546 6.54533 8.9535 6.50468 8.83045 6.50458C8.57078 6.50428 8.60268 6.48733 8.37914 6.44703C8.37801 6.44683 8.34123 6.4387 8.33892 6.43801C8.30425 6.42825 8.31154 6.42865 8.30233 6.42534C8.24389 6.40425 8.11341 6.39401 8.05117 6.36464L7.52517 6.16832C7.47928 6.15295 7.49597 6.15723 7.45855 6.13644L7.13422 5.95185C7.10433 5.93367 7.09641 5.92766 7.07248 5.91509L6.89763 5.82728C6.71782 5.73927 6.50157 5.79013 6.34032 5.88612C6.32791 5.89351 6.32485 5.89528 6.309 5.90405L5.98152 6.08554C5.95045 6.10298 5.9537 6.10219 5.91776 6.12028L5.62785 6.2408C5.57585 6.25914 5.60161 6.25697 5.54882 6.27668C5.52731 6.28476 5.50057 6.28993 5.47462 6.30097L5.24961 6.38785C5.17137 6.40179 5.15797 6.3871 5.0789 6.41411C5.00421 6.43958 4.99628 6.44653 4.90686 6.45545C4.74182 6.47191 4.84965 6.50621 4.54585 6.50478C4.4071 6.50414 4.29514 6.52877 4.18514 6.55445L4.18529 6.55435ZM10.9965 5.68379H10.3071C10.3071 5.29283 10.3353 5.3499 10.3555 5.07518C10.3619 4.98875 10.347 4.94608 10.3702 4.8763L10.4123 4.68851C10.4264 4.62145 10.4488 4.60869 10.4642 4.52689L10.523 4.32293C10.5364 4.27208 10.5265 4.30667 10.5358 4.28647L10.6367 4.04251C10.6383 4.03901 10.6401 4.03467 10.6418 4.03117C10.6434 4.02777 10.6456 4.02358 10.6473 4.02028L10.9038 3.55428C11.0332 3.34008 11.2229 3.10326 11.4082 2.92571L11.6716 2.69658C11.7168 2.66066 11.7557 2.62966 11.8006 2.59571L12.0961 2.39876C12.099 2.39679 12.1027 2.39368 12.1055 2.39171L12.1876 2.34243C12.2129 2.32864 12.2397 2.31459 12.2614 2.30134L12.4045 2.23097C12.5176 2.17248 12.6165 2.12596 12.7396 2.09004C12.8011 2.0721 12.8041 2.05343 12.8696 2.03944C12.9421 2.02391 12.9555 1.99932 13.0323 1.98878L13.4831 1.89792C13.6362 1.85524 14.3639 1.85544 14.5201 1.89442L14.6985 1.92945C14.7216 1.93241 14.7624 1.93581 14.7871 1.9394C14.8705 1.95167 14.8079 1.94207 14.8727 1.96863C14.93 1.99213 15.0047 1.98888 15.0574 2.01376L15.2183 2.06624C15.2593 2.08635 15.2292 2.07674 15.2898 2.09325C15.293 2.09413 15.3286 2.10295 15.3292 2.10315C15.3783 2.11907 15.3415 2.1068 15.375 2.12296C15.4119 2.14075 15.4034 2.1371 15.4437 2.15272L15.6802 2.26098C15.7464 2.28798 15.695 2.26408 15.7448 2.29483L16.4525 2.78567C16.4759 2.8076 16.4803 2.811 16.5038 2.83283L16.6163 2.9338C16.6186 2.93621 16.622 2.93966 16.6244 2.94212L16.6847 3.01313C16.687 3.01559 16.6904 3.01904 16.6927 3.02155L17.2804 3.84599C17.2821 3.84934 17.284 3.85368 17.2858 3.85698L17.4681 4.26587C17.5222 4.37068 17.5951 4.65821 17.613 4.7779C17.6325 4.90843 17.6495 4.83062 17.6598 5.05951C17.6693 5.27022 17.7091 5.28406 17.7091 5.68369H17.4136C17.2985 5.68369 17.2601 5.64195 17.1668 5.6351C17.1092 5.63087 17.0837 5.64126 17.0292 5.62495C16.9659 5.60603 16.9815 5.59332 16.9167 5.57331L16.6185 5.42829C16.488 5.34142 16.3801 5.24607 16.2745 5.13195L16.1402 4.97077C16.1381 4.96801 16.1352 4.96411 16.1332 4.96131C16.1311 4.9585 16.1283 4.9546 16.1263 4.95179L16.0186 4.79648C15.9234 4.64712 16.0515 4.58306 16.2254 4.39606L16.5084 4.00579C16.601 3.80416 16.4902 3.47716 16.3018 3.36358C16.1324 3.26143 16.0915 3.26922 15.8873 3.26922C15.8096 3.26922 15.7025 3.31381 15.6477 3.35791C15.645 3.36003 15.6417 3.36358 15.6391 3.3658C15.6366 3.36802 15.6333 3.37166 15.6308 3.37393L15.5871 3.41226C15.5475 3.44375 15.5583 3.43153 15.5258 3.46598L15.2512 3.76602C15.1018 3.91695 15.1471 3.8967 14.9672 4.05675C14.9497 4.07227 14.9598 4.06384 14.9419 4.08064C14.9283 4.09336 14.9202 4.10119 14.9077 4.11213L14.6144 4.37709C14.5566 4.43371 14.4783 4.47022 14.4125 4.51999C14.3917 4.53576 14.3667 4.55567 14.3469 4.56936C14.3212 4.58705 14.3021 4.59602 14.2764 4.61376L13.8247 4.90079C13.8113 4.90873 13.8094 4.90966 13.7932 4.91853L13.4974 5.08247C13.4879 5.08671 13.4723 5.09287 13.4632 5.09746L13.0891 5.24873C13.0065 5.27702 12.927 5.33541 12.8483 5.3527L12.2153 5.52399C12.1397 5.53547 12.114 5.56444 12.0304 5.56898C11.8735 5.57745 11.7789 5.62323 11.6357 5.63382C11.555 5.63979 11.4963 5.6323 11.416 5.64388C11.2787 5.66359 11.1366 5.68389 10.9964 5.68389L10.9965 5.68379Z" fill="#0F4C8D"/>
</svg>
