<svg width="21" height="20" viewBox="0 0 21 20" fill="none" xmlns="http://www.w3.org/2000/svg">
<path d="M19.7361 3.37104L10.8497 0.400581C10.6211 0.326108 10.3748 0.326108 10.1462 0.400581L1.27834 3.36176H1.25983L1.21354 3.38033L1.158 3.40818L1.09321 3.43602L1.05618 3.45459L1.00064 3.49172L0.972871 3.51028L0.917331 3.54742C0.917331 3.55234 0.915381 3.55706 0.911909 3.56054C0.908437 3.56403 0.903728 3.56598 0.898818 3.56598L0.834021 3.62168C0.834021 3.62414 0.833046 3.6265 0.83131 3.62824C0.829574 3.62998 0.82722 3.63096 0.824765 3.63096L0.759968 3.70522L0.741455 3.73307C0.731788 3.73929 0.723508 3.74745 0.717136 3.75704C0.710764 3.76662 0.706438 3.77742 0.704429 3.78877L0.676659 3.81661L0.648889 3.86303C0.639632 3.88159 0.630376 3.89088 0.630376 3.90016L0.602606 3.95585L0.584092 3.99299L0.556323 4.07653C0.550055 4.08788 0.546863 4.10068 0.547066 4.11366C0.536776 4.13392 0.530489 4.15599 0.528553 4.17864C0.528553 4.18792 0.519296 4.20649 0.519296 4.21577C0.519296 4.22505 0.51004 4.26218 0.51004 4.28075V4.31788C0.501504 4.35435 0.498385 4.39189 0.500783 4.42927V11.8554C0.500783 12.1509 0.617813 12.4342 0.826127 12.6431C1.03444 12.852 1.31698 12.9694 1.61158 12.9694C1.90618 12.9694 2.18871 12.852 2.39703 12.6431C2.60534 12.4342 2.72237 12.1509 2.72237 11.8554V5.9702L4.91619 6.71282C4.23889 8.01396 4.03564 9.51136 4.3415 10.9467C4.64737 12.3821 5.44317 13.6654 6.59164 14.5753C5.02028 15.3084 3.68598 16.4695 2.74089 17.9263C2.66066 18.0488 2.60528 18.186 2.5779 18.33C2.55053 18.4739 2.55171 18.6219 2.58136 18.7654C2.61102 18.9089 2.66857 19.0452 2.75074 19.1664C2.8329 19.2876 2.93807 19.3914 3.06024 19.4719C3.18241 19.5523 3.31918 19.6079 3.46275 19.6353C3.60632 19.6628 3.75388 19.6616 3.89699 19.6319C4.04011 19.6021 4.17598 19.5444 4.29686 19.462C4.41773 19.3796 4.52124 19.2741 4.60147 19.1516C5.23885 18.165 6.11228 17.354 7.14217 16.7926C8.17206 16.2311 9.32569 15.9369 10.4979 15.9369C11.6702 15.9369 12.8238 16.2311 13.8537 16.7926C14.8836 17.354 15.757 18.165 16.3944 19.1516C16.4968 19.3061 16.6358 19.4327 16.799 19.5202C16.9621 19.6077 17.1443 19.6533 17.3293 19.6529C17.5426 19.6533 17.7515 19.592 17.931 19.4765C18.1783 19.3135 18.3512 19.0589 18.4119 18.7684C18.4726 18.478 18.4162 18.1752 18.255 17.9263C17.3099 16.4695 15.9756 15.3084 14.4042 14.5753C15.5527 13.6654 16.3485 12.3821 16.6544 10.9467C16.9602 9.51136 16.757 8.01396 16.0797 6.71282L19.7361 5.4875C19.9583 5.41425 20.1518 5.27251 20.289 5.08249C20.4261 4.89247 20.5 4.66386 20.5 4.42927C20.5 4.19468 20.4261 3.96608 20.289 3.77606C20.1518 3.58604 19.9583 3.4443 19.7361 3.37104ZM10.4979 2.62843L15.876 4.42927L13.9507 5.06978L10.4979 6.23012L7.04522 5.06978L5.11984 4.42927L10.4979 2.62843ZM14.5709 9.62758C14.5702 10.2615 14.4225 10.8866 14.1393 11.4533C13.8561 12.02 13.4452 12.5129 12.9392 12.8928C12.4332 13.2728 11.846 13.5294 11.224 13.6424C10.6019 13.7554 9.96224 13.7217 9.35549 13.5439C8.74873 13.3661 8.19158 13.0491 7.72813 12.618C7.26467 12.1869 6.90764 11.6535 6.6853 11.0601C6.46295 10.4667 6.38139 9.82955 6.44707 9.19907C6.51276 8.56858 6.72388 7.96209 7.06373 7.42758L10.1462 8.45796C10.3748 8.53244 10.6211 8.53244 10.8497 8.45796L13.9321 7.42758C14.3514 8.08413 14.5732 8.84794 14.5709 9.62758Z" fill="#0F4C8D"/>
</svg>
