<svg width="23" height="22" viewBox="0 0 23 22" fill="none" xmlns="http://www.w3.org/2000/svg">
<path d="M11.5 20.9998C9.24653 18.5188 6.19047 16.9118 2.86926 16.4613C2.49123 16.4195 2.14209 16.2391 1.88923 15.955C1.63638 15.6709 1.49772 15.3032 1.50003 14.9229V2.53827C1.50001 2.31606 1.54814 2.09647 1.64109 1.89463C1.73404 1.69279 1.86962 1.51348 2.03849 1.36904C2.20438 1.22723 2.39855 1.12234 2.6081 1.06133C2.81765 1.00032 3.03778 0.984597 3.25387 1.0152C6.42969 1.54228 9.33496 3.125 11.5 5.50749M11.5 20.9998V5.50749M11.5 20.9998C13.7535 18.5188 16.8095 16.9118 20.1307 16.4613C20.5088 16.4195 20.8579 16.2391 21.1108 15.955C21.3636 15.6709 21.5023 15.3032 21.5 14.9229V2.53827C21.5 2.31606 21.4519 2.09647 21.3589 1.89463C21.266 1.69279 21.1304 1.51348 20.9615 1.36904C20.7956 1.22723 20.6014 1.12234 20.3919 1.06133C20.1824 1.00032 19.9622 0.984597 19.7461 1.0152C16.5703 1.54228 13.665 3.125 11.5 5.50749" stroke="#0F4C8D" stroke-width="2" stroke-linecap="round" stroke-linejoin="round"/>
</svg>
