<?xml version="1.0" encoding="UTF-8"?>
<!DOCTYPE svg PUBLIC "-//W3C//DTD SVG 1.1//EN" "http://www.w3.org/Graphics/SVG/1.1/DTD/svg11.dtd">
<!-- Creator: CorelDRAW -->
<svg xmlns="http://www.w3.org/2000/svg" xml:space="preserve" width="8.5in" height="11in" version="1.1" style="shape-rendering:geometricPrecision; text-rendering:geometricPrecision; image-rendering:optimizeQuality; fill-rule:evenodd; clip-rule:evenodd"
viewBox="0 0 8500 11000"
 xmlns:xlink="http://www.w3.org/1999/xlink"
 xmlns:xodm="http://www.corel.com/coreldraw/odm/2003">
 <defs>
  <style type="text/css">
   <![CDATA[
    .fil2 {fill:#001F7D}
    .fil0 {fill:#D00C27}
    .fil1 {fill:#FEFEFE}
   ]]>
  </style>
 </defs>
 <g id="Layer_x0020_1">
  <metadata id="CorelCorpID_0Corel-Layer"/>
  <g id="_2443976985248">
   <polygon class="fil0" points="145.48,5020.83 145.48,6020.84 3737.5,6020.84 3737.5,7946.04 4737.5,7946.04 4737.5,6020.84 8354.52,6020.84 8354.52,5020.83 4737.5,5020.83 4737.5,3053.96 3737.5,3053.96 3745.79,5020.83 "/>
   <polygon class="fil1" points="8354.52,5020.83 8354.52,4687.38 6605.3,4687.31 8354.52,3636.3 8354.52,3053.96 7370.78,3053.96 5073.68,4436.3 5070.95,3053.96 4737.5,3053.96 4737.5,5020.83 "/>
   <path class="fil1" d="M145.48 3651.72c73.25,33.02 151.26,88.94 221.67,130.67 206.39,122.31 444.9,274.47 646.3,387.15 146.12,81.74 287.49,175.6 432.8,258.93l424.43 258.86 -1725.19 0.06 0 333.45 3600.31 0 -8.3 -1966.87 -333.45 0 -2.58 1380.82 -2158.61 -1294.74c-35.55,-21.65 -115.08,-63.04 -137.91,-86.08l-959.46 0 0 597.77z"/>
   <path class="fil1" d="M4737.5 7946.04l333.44 0 2.24 -1339.5 2159.12 1294.88c13.89,8.45 25.82,14.22 37.14,21.04l30.2 23.57 1054.87 0 0 -540.15 -439.26 -262.32c-146.7,-90.59 -289.37,-176.44 -437.59,-262.54l-872.9 -526.69 1749.74 -0.06 0 -333.45 -3617.02 0 0 1925.2z"/>
   <polygon class="fil1" points="145.48,6354.29 1872.13,6357.26 145.48,7390.36 145.48,7946.04 1175.76,7946.04 3403.94,6607.08 3404.05,7946.04 3737.5,7946.04 3737.5,6020.84 145.48,6020.84 "/>
   <path class="fil2" d="M3404.05 3053.96l-2299.11 0c22.83,23.04 102.37,64.44 137.91,86.08l2158.61 1294.74 2.58 -1380.82z"/>
   <polygon class="fil2" points="7370.78,3053.96 5070.95,3053.96 5073.68,4436.3 "/>
   <path class="fil2" d="M5070.95 7946.04l2228.7 0 -30.2 -23.57c-11.32,-6.83 -23.25,-12.59 -37.14,-21.04l-2159.12 -1294.88 -2.24 1339.5z"/>
   <polygon class="fil2" points="1175.76,7946.04 3404.05,7946.04 3403.94,6607.08 "/>
   <path class="fil2" d="M8354.52 7405.9l0 -1051.61 -1749.74 0.06 872.9 526.69c148.21,86.11 290.88,171.95 437.59,262.54l439.26 262.32z"/>
   <polygon class="fil2" points="8354.52,4687.38 8354.52,3636.3 6605.3,4687.31 "/>
   <path class="fil2" d="M145.48 4687.38l1725.19 -0.06 -424.43 -258.86c-145.31,-83.33 -286.68,-177.18 -432.8,-258.93 -201.4,-112.67 -439.91,-264.83 -646.3,-387.15 -70.41,-41.72 -148.43,-97.65 -221.67,-130.67l0 1035.66z"/>
   <polygon class="fil2" points="145.48,7390.36 1872.13,6357.26 145.48,6354.29 "/>
  </g>
 </g>
</svg>
