<svg width="17" height="11" viewBox="0 0 17 11" fill="none" xmlns="http://www.w3.org/2000/svg">
<path d="M13.7063 4.1525C13.4683 2.98218 12.8191 1.92834 11.8696 1.17098C10.92 0.413623 9.72903 -0.000269667 8.5 1.31819e-07C6.45292 1.31819e-07 4.675 1.1275 3.78958 2.7775C2.7485 2.8867 1.78571 3.36546 1.08622 4.12178C0.386729 4.87811 -0.000121622 5.85865 2.86824e-08 6.875C2.86824e-08 9.15063 1.90542 11 4.25 11H13.4583C15.4133 11 17 9.46 17 7.5625C17 5.7475 15.5479 4.27625 13.7063 4.1525ZM13.4583 9.625H4.25C2.68458 9.625 1.41667 8.39437 1.41667 6.875C1.41667 5.46562 2.50042 4.29 3.93833 4.14562L4.69625 4.07L5.05042 3.41688C5.37616 2.80141 5.87057 2.28512 6.47921 1.92486C7.08785 1.56459 7.78711 1.37433 8.5 1.375C10.3558 1.375 11.9567 2.65375 12.3179 4.42063L12.5304 5.45188L13.6142 5.5275C14.1466 5.56226 14.6458 5.79149 15.0112 6.16907C15.3765 6.54664 15.581 7.04452 15.5833 7.5625C15.5833 8.69687 14.6271 9.625 13.4583 9.625ZM5.66667 6.1875H7.47292V8.25H9.52708V6.1875H11.3333L8.5 3.4375L5.66667 6.1875Z" fill="#9DB6D0"/>
</svg>
