<?xml version="1.0" encoding="UTF-8"?>
<!DOCTYPE svg PUBLIC "-//W3C//DTD SVG 1.1//EN" "http://www.w3.org/Graphics/SVG/1.1/DTD/svg11.dtd">
<!-- Creator: CorelDRAW -->
<svg xmlns="http://www.w3.org/2000/svg" xml:space="preserve" width="8.5in" height="11in" version="1.1" style="shape-rendering:geometricPrecision; text-rendering:geometricPrecision; image-rendering:optimizeQuality; fill-rule:evenodd; clip-rule:evenodd"
viewBox="0 0 8500 11000"
 xmlns:xlink="http://www.w3.org/1999/xlink"
 xmlns:xodm="http://www.corel.com/coreldraw/odm/2003">
 <defs>
  <style type="text/css">
   <![CDATA[
    .fil0 {fill:#3C3B6E}
    .fil2 {fill:#B22234}
    .fil1 {fill:#FEFEFE}
   ]]>
  </style>
 </defs>
 <g id="Layer_x0020_1">
  <metadata id="CorelCorpID_0Corel-Layer"/>
  <g id="_2443992121008">
   <polygon class="fil0" points="205.33,5664.7 3441.07,5664.25 3441.79,5336.19 3441.2,5008.5 3441.12,4680.87 3441.64,4353.18 3441.93,4025.56 3441.28,3697.86 3441.07,3370.23 205.33,3370.23 "/>
   <polygon class="fil1" points="205.33,7302.14 8294.67,7302.14 8294.67,6974.44 205.33,6974.44 "/>
   <polygon class="fil1" points="205.33,6646.82 8294.67,6646.82 8294.67,6319.13 205.33,6319.13 "/>
   <polygon class="fil2" points="205.33,7629.77 8294.67,7629.77 8294.67,7302.14 205.33,7302.14 "/>
   <polygon class="fil2" points="205.33,6319.13 8294.67,6319.13 8294.67,5991.5 205.33,5991.5 "/>
   <polygon class="fil2" points="205.33,6974.44 8294.67,6974.44 8294.67,6646.82 205.33,6646.82 "/>
   <polygon class="fil1" points="205.33,5991.5 8294.67,5991.5 8294.67,5663.81 3441.07,5664.25 205.33,5664.7 "/>
   <polygon class="fil2" points="3441.07,5664.25 8294.67,5663.81 8294.67,5336.19 3441.79,5336.19 "/>
   <polygon class="fil1" points="3441.79,5336.19 8294.67,5336.19 8294.67,5008.5 3441.2,5008.5 "/>
   <polygon class="fil1" points="3441.12,4680.87 8294.67,4680.87 8294.67,4353.18 3441.64,4353.18 "/>
   <polygon class="fil1" points="3441.93,4025.56 8294.67,4025.56 8294.67,3697.86 3441.28,3697.86 "/>
   <polygon class="fil2" points="3441.28,3697.86 8294.67,3697.86 8294.67,3370.23 3441.07,3370.23 "/>
   <polygon class="fil2" points="3441.2,5008.5 8294.67,5008.5 8294.67,4680.87 3441.12,4680.87 "/>
   <polygon class="fil2" points="3441.64,4353.18 8294.67,4353.18 8294.67,4025.56 3441.93,4025.56 "/>
   <path class="fil1" d="M2602.06 4476.88l-89.06 -0.22c4.35,5.71 1.76,2.79 7.13,7.87 18.13,17.11 44.09,29.91 62.85,48.54l-26.73 87.23c25.22,-12.35 51.17,-37.63 75.87,-51.67 25.63,13.89 49.87,38.1 74.87,51.84l-26.53 -87.15 51.73 -39c3.3,-2.35 6.69,-4.62 9.76,-7.4l7.11 -7.38c0.58,-0.62 1.62,-1.78 2.35,-2.74l-88.39 -0.24 -29.05 -84.22 -31.93 84.53z"/>
   <path class="fil1" d="M984.58 4018.1l-90.06 -0.16c4.6,6.14 1.41,2.56 7.06,7.9 0.39,0.37 9.45,7.72 9.72,7.92l54.62 41.25 -27.43 86.55c27.06,-14.98 48.01,-36.23 75.77,-51.64 26.24,13.92 52.26,41.06 75.1,51.78l-26.82 -86.69 52.42 -39.36c2.88,-2.03 7.32,-5.19 9.78,-7.42l9.57 -10.26 -89.8 -0.07 -28.46 -84.44 -31.48 84.63z"/>
   <path class="fil1" d="M984.2 4476.88l-89.06 -0.22c14.28,18.77 49.84,36.4 69.98,56.41l-26.73 87.23c25.22,-12.35 51.17,-37.63 75.87,-51.67 25.63,13.89 49.87,38.1 74.87,51.84l-26.53 -87.15c21.17,-19.3 58.67,-40.45 70.96,-56.52l-88.38 -0.24 -29.06 -84.22 -31.93 84.53z"/>
   <path class="fil1" d="M2062.78 4476.88l-89.06 -0.22c4.35,5.71 1.76,2.79 7.13,7.87 18.13,17.11 44.09,29.91 62.85,48.54l-26.74 87.23c25.22,-12.35 51.17,-37.63 75.88,-51.67 25.63,13.89 49.87,38.1 74.87,51.84l-26.53 -87.15c12.24,-11.16 21.27,-16.69 34.67,-26.75 8.01,-6.02 10.59,-7.65 17.06,-12.25l19.23 -17.52 -88.38 -0.24 -29.05 -84.22 -31.93 84.53z"/>
   <path class="fil1" d="M444.91 4476.88l-89.06 -0.22c14.28,18.77 49.84,36.4 69.98,56.41l-26.73 87.23c25.22,-12.35 51.17,-37.63 75.88,-51.67 25.63,13.89 49.87,38.1 74.87,51.84l-26.53 -87.15c12.24,-11.16 21.27,-16.69 34.67,-26.75 8.01,-6.02 10.59,-7.65 17.06,-12.25l19.23 -17.52 -88.38 -0.24 -29.05 -84.22 -31.93 84.53z"/>
   <path class="fil1" d="M3141.35 4476.88l-89.06 -0.22c4.35,5.71 1.76,2.79 7.13,7.87 18.13,17.11 44.1,29.91 62.85,48.54l-26.73 87.23c25.22,-12.35 51.17,-37.63 75.87,-51.67 25.63,13.89 49.87,38.1 74.87,51.84l-26.53 -87.15 68.61 -53.78c0.58,-0.62 1.62,-1.78 2.35,-2.74l-88.38 -0.24 -29.06 -84.22 -31.93 84.53z"/>
   <path class="fil1" d="M445.29 4018.1l-90.05 -0.16c4.59,6.14 1.41,2.56 7.06,7.9l64.34 49.17 -27.43 86.55c27.05,-14.98 48.01,-36.23 75.77,-51.64 26.24,13.92 52.25,41.06 75.1,51.78l-26.82 -86.69c23.96,-21.72 59.69,-41 71.76,-57.04l-89.8 -0.07 -28.46 -84.44 -31.48 84.63z"/>
   <path class="fil1" d="M2602.63 3559.06l-91.02 0.32c18.57,20.71 52.61,36.84 72.33,56.52l-27.65 86.8c24.76,-11.99 50.08,-35.79 75.84,-51.5 27.68,15.7 48.61,37.3 75.22,51.68l-27.13 -86.86c19.47,-18.52 56.34,-37.29 72.76,-55.52l-91.02 -1.69 -27.94 -84.26 -31.4 84.52z"/>
   <path class="fil1" d="M2063.33 3559.06l-91.01 0.32c18.57,20.71 52.61,36.84 72.33,56.52l-27.65 86.8c24.76,-11.99 50.08,-35.79 75.84,-51.5 27.68,15.7 48.61,37.3 75.21,51.68l-27.13 -86.86c19.47,-18.52 56.34,-37.29 72.76,-55.52l-91.02 -1.69 -27.94 -84.26 -31.4 84.52z"/>
   <path class="fil1" d="M984.76 3559.06l-91.02 0.32c18.57,20.71 52.61,36.84 72.33,56.52l-27.65 86.8c24.76,-11.99 50.07,-35.79 75.84,-51.5 27.68,15.7 48.61,37.3 75.22,51.68l-27.13 -86.86c19.47,-18.52 56.34,-37.29 72.76,-55.52l-91.02 -1.69 -27.94 -84.26 -31.4 84.52z"/>
   <path class="fil1" d="M1524.05 3559.06l-91.02 0.32c18.57,20.71 52.61,36.84 72.33,56.52l-27.65 86.8c24.76,-11.99 50.08,-35.79 75.84,-51.5 27.68,15.7 48.61,37.3 75.22,51.68l-27.13 -86.86c19.47,-18.52 56.34,-37.29 72.76,-55.52l-91.02 -1.69 -27.94 -84.26 -31.4 84.52z"/>
   <path class="fil1" d="M3141.91 3559.06l-91.02 0.32c18.57,20.71 52.61,36.84 72.33,56.52l-27.65 86.8c24.76,-11.99 50.08,-35.79 75.84,-51.5 27.68,15.7 48.61,37.3 75.22,51.68l-27.13 -86.86c19.47,-18.52 56.34,-37.29 72.76,-55.52l-91.02 -1.69 -27.94 -84.26 -31.4 84.52z"/>
   <path class="fil1" d="M445.47 3559.06l-91.01 0.32c18.57,20.71 52.61,36.84 72.33,56.52l-27.65 86.8c24.76,-11.99 50.08,-35.79 75.84,-51.5 27.68,15.7 48.61,37.3 75.21,51.68l-27.13 -86.86c19.46,-18.52 56.34,-37.29 72.76,-55.52l-91.02 -1.69 -27.94 -84.26 -31.4 84.52z"/>
   <path class="fil1" d="M2063.16 4018.1l-90.05 -0.16c11.87,15.87 50.9,37.47 71.41,57.07l-27.43 86.55c27.05,-14.98 48.01,-36.23 75.77,-51.64 26.24,13.92 52.26,41.06 75.1,51.78l-26.82 -86.69c23.96,-21.72 59.69,-41 71.76,-57.04l-89.8 -0.07 -28.46 -84.44 -31.48 84.63z"/>
   <path class="fil1" d="M1523.87 4018.1l-90.05 -0.16c11.87,15.87 50.9,37.47 71.4,57.07l-27.43 86.55c27.06,-14.98 48.01,-36.23 75.77,-51.64 26.24,13.92 52.26,41.06 75.1,51.78l-26.82 -86.69c22.26,-20.19 51.88,-37.43 62.2,-46.78l9.57 -10.26 -89.8 -0.07 -28.46 -84.44 -31.48 84.63z"/>
   <path class="fil1" d="M2333.15 5164.51l-91.63 0.3c17.41,19.78 52.76,37.96 72.81,56.45l-27.64 86.91c25.44,-11.56 50.69,-39.42 75.81,-51.44 26.56,15.69 50.02,38.69 75.24,51.6l-27.17 -86.96 73.1 -55.55 -91.7 -1.48 -27.56 -84.37 -31.26 84.56z"/>
   <path class="fil1" d="M715.28 5164.51l-91.63 0.3c17.41,19.78 52.76,37.96 72.81,56.45l-27.64 86.91c25.44,-11.56 50.69,-39.42 75.81,-51.44 26.56,15.69 50.02,38.69 75.24,51.6l-27.17 -86.96 73.1 -55.55 -91.7 -1.48 -27.56 -84.37 -31.26 84.56z"/>
   <path class="fil1" d="M2872.43 5164.51l-91.63 0.3c17.41,19.78 52.76,37.96 72.81,56.45l-27.64 86.91c25.43,-11.56 50.69,-39.42 75.81,-51.44 26.56,15.69 50.01,38.69 75.24,51.6l-27.17 -86.96 73.1 -55.55 -91.7 -1.48 -27.55 -84.37 -31.26 84.56z"/>
   <path class="fil1" d="M1254.57 5164.51l-91.63 0.3c17.41,19.78 52.76,37.96 72.81,56.45l-27.64 86.91c25.44,-11.56 50.69,-39.42 75.81,-51.44 26.56,15.69 50.01,38.69 75.24,51.6l-27.17 -86.96 73.1 -55.55 -91.7 -1.48 -27.56 -84.37 -31.26 84.56z"/>
   <path class="fil1" d="M1793.85 5164.51l-91.63 0.3c17.41,19.78 52.76,37.96 72.81,56.45l-27.64 86.91c25.43,-11.56 50.69,-39.42 75.81,-51.44 26.56,15.69 50.01,38.69 75.24,51.6l-27.17 -86.96 73.1 -55.55 -91.7 -1.48 -27.55 -84.37 -31.26 84.56z"/>
   <path class="fil1" d="M1523.49 4476.88l-89.06 -0.22 33.48 28.29c14.53,10.19 24.36,16.06 36.5,28.12l-26.73 87.23c25.22,-12.35 51.17,-37.63 75.87,-51.67 25.63,13.89 49.87,38.1 74.87,51.84l-26.53 -87.15 68.61 -53.78c0.58,-0.62 1.62,-1.78 2.35,-2.74l-88.38 -0.24 -29.06 -84.22 -31.93 84.53z"/>
   <path class="fil1" d="M2063.54 4934.89l-91.36 0.39c18.08,22.35 52.47,36.09 71.71,57.03l-26.79 86.7c24.77,-14.69 51.94,-39.1 75.75,-51.6 22.91,11.66 51.89,37.31 74.59,51.85l-26.2 -86.78c19.77,-20.09 56.96,-36.55 72.27,-57.17l-92.54 -0.06 -26.35 -85.43 -31.08 85.06z"/>
   <path class="fil1" d="M1524.25 4934.89l-91.36 0.39c18.08,22.35 52.47,36.09 71.71,57.03l-26.79 86.7c24.77,-14.69 51.94,-39.1 75.74,-51.6 22.91,11.66 51.89,37.31 74.59,51.85l-26.2 -86.78c19.77,-20.09 56.96,-36.55 72.27,-57.17l-92.54 -0.06 -26.35 -85.43 -31.08 85.06z"/>
   <path class="fil1" d="M984.96 4934.89l-91.36 0.39c18.08,22.35 52.48,36.09 71.71,57.03l-26.79 86.7c24.77,-14.69 51.94,-39.1 75.74,-51.6 22.91,11.66 51.89,37.31 74.59,51.85l-26.2 -86.78c19.77,-20.09 56.96,-36.55 72.27,-57.17l-92.54 -0.06 -26.35 -85.43 -31.08 85.06z"/>
   <path class="fil1" d="M3142.12 4934.89l-91.36 0.39c18.08,22.35 52.47,36.09 71.71,57.03l-26.79 86.7c24.77,-14.69 51.94,-39.1 75.74,-51.6 22.91,11.66 51.89,37.31 74.59,51.85l-26.2 -86.78c19.77,-20.09 56.96,-36.55 72.27,-57.17l-92.54 -0.06 -26.35 -85.43 -31.08 85.06z"/>
   <path class="fil1" d="M445.67 4934.89l-91.36 0.39c18.08,22.35 52.47,36.09 71.71,57.03l-26.79 86.7c24.77,-14.69 51.94,-39.1 75.75,-51.6 22.91,11.66 51.89,37.31 74.59,51.85l-26.2 -86.78c19.77,-20.09 56.96,-36.55 72.27,-57.17l-92.54 -0.06 -26.35 -85.43 -31.08 85.06z"/>
   <path class="fil1" d="M2602.83 4934.89l-91.36 0.39c18.08,22.35 52.47,36.09 71.71,57.03l-26.79 86.7c24.77,-14.69 51.94,-39.1 75.74,-51.6 22.91,11.66 51.89,37.31 74.59,51.85l-26.2 -86.78c19.77,-20.09 56.96,-36.55 72.27,-57.17l-92.54 -0.06 -26.35 -85.43 -31.08 85.06z"/>
   <path class="fil1" d="M1793.71 3788.08l-91.79 0.43c11.09,11.86 57.91,46.35 72.65,52.15l-27.05 90.86c28.05,-13.17 50.04,-38.7 75.68,-50.94 23.5,10.28 48.77,38.31 74.92,50.88l-28.01 -90.12c17.49,-6.82 62.23,-40.63 74.37,-52.61l-92.89 -0.33 -26.84 -85.03 -31.04 84.7z"/>
   <path class="fil1" d="M2333 3788.08l-91.79 0.43c11.09,11.86 57.91,46.35 72.65,52.15l-27.05 90.86c28.05,-13.17 50.04,-38.7 75.68,-50.94 23.5,10.28 48.77,38.31 74.92,50.88l-28.01 -90.12c17.49,-6.82 62.23,-40.63 74.37,-52.61l-92.89 -0.33 -26.84 -85.03 -31.04 84.7z"/>
   <path class="fil1" d="M1254.43 3788.08l-91.79 0.43c11.09,11.86 57.91,46.35 72.65,52.15l-27.06 90.86c28.05,-13.17 50.05,-38.7 75.69,-50.94 23.5,10.28 48.77,38.31 74.91,50.88l-28.01 -90.12c17.49,-6.82 62.23,-40.63 74.37,-52.61l-92.89 -0.33 -26.84 -85.03 -31.04 84.7z"/>
   <path class="fil1" d="M715.13 3788.08l-91.79 0.43c11.09,11.86 57.91,46.35 72.65,52.15l-27.05 90.86c28.05,-13.17 50.04,-38.7 75.68,-50.94 23.5,10.28 48.77,38.31 74.92,50.88l-28.01 -90.12c17.48,-6.82 62.23,-40.63 74.37,-52.61l-92.89 -0.33 -26.84 -85.03 -31.04 84.7z"/>
   <path class="fil1" d="M2872.29 3788.08l-91.79 0.43c11.09,11.86 57.91,46.35 72.65,52.15l-27.06 90.86c28.05,-13.17 50.05,-38.7 75.69,-50.94 23.5,10.28 48.77,38.31 74.91,50.88l-28.01 -90.12c17.49,-6.82 62.23,-40.63 74.37,-52.61l-92.89 -0.33 -26.84 -85.03 -31.04 84.7z"/>
   <path class="fil1" d="M3141.74 4018.1l-90.05 -0.16c4.59,6.14 1.41,2.56 7.06,7.9l64.34 49.17 -27.44 86.55c27.06,-14.98 48.01,-36.23 75.77,-51.64 26.24,13.92 52.26,41.06 75.1,51.78l-26.82 -86.69c10.15,-9.21 22.74,-18.85 34.98,-27.4l36.78 -29.64 -89.8 -0.07 -28.46 -84.44 -31.48 84.63z"/>
   <path class="fil1" d="M984.84 5393.57l-91.69 0.41c11.43,11.87 57.06,46.07 72.3,52.2l-26.77 91.61c17.4,-12.11 58.3,-43.19 75.59,-51.7 25.44,11.78 48.02,38.59 74.82,50.76l-27.86 -89.97c15.56,-5.97 65.02,-42.68 74.15,-52.77l-92.83 -0.21 -26.67 -85.13 -31.05 84.78z"/>
   <path class="fil1" d="M2063.41 5393.57l-91.68 0.41c11.43,11.87 57.06,46.07 72.29,52.2l-26.77 91.61c17.4,-12.11 58.3,-43.19 75.59,-51.7 25.44,11.78 48.02,38.59 74.82,50.76l-27.86 -89.97c15.56,-5.97 65.02,-42.68 74.15,-52.77l-92.82 -0.21 -26.67 -85.13 -31.05 84.78z"/>
   <path class="fil1" d="M2602.7 5393.57l-91.69 0.41c11.43,11.87 57.06,46.07 72.3,52.2l-26.77 91.61c17.4,-12.11 58.3,-43.19 75.59,-51.7 25.44,11.78 48.02,38.59 74.82,50.76l-27.86 -89.97c15.56,-5.97 65.02,-42.68 74.15,-52.77l-92.83 -0.21 -26.67 -85.13 -31.05 84.78z"/>
   <path class="fil1" d="M445.55 5393.57l-91.69 0.41c11.43,11.87 57.06,46.07 72.29,52.2l-26.77 91.61c17.4,-12.11 58.3,-43.19 75.59,-51.7 25.44,11.78 48.02,38.59 74.82,50.76l-27.86 -89.97c15.56,-5.97 65.02,-42.68 74.15,-52.77l-92.82 -0.21 -26.67 -85.13 -31.05 84.78z"/>
   <path class="fil1" d="M3141.99 5393.57l-91.69 0.41c11.43,11.87 57.06,46.07 72.3,52.2l-26.77 91.61c17.4,-12.11 58.3,-43.19 75.59,-51.7 25.45,11.78 48.02,38.59 74.83,50.76l-27.87 -89.97c15.56,-5.97 65.02,-42.68 74.15,-52.77l-92.82 -0.21 -26.67 -85.13 -31.05 84.78z"/>
   <path class="fil1" d="M1524.13 5393.57l-91.68 0.41c11.43,11.87 57.06,46.07 72.29,52.2l-26.77 91.61c17.4,-12.11 58.3,-43.19 75.59,-51.7 25.45,11.78 48.02,38.59 74.83,50.76l-27.87 -89.97c15.56,-5.97 65.02,-42.68 74.15,-52.77l-92.83 -0.21 -26.67 -85.13 -31.05 84.78z"/>
   <path class="fil1" d="M1254.5 4246.83l-92.17 0.41c15.25,14.16 55.39,44.69 73.21,52.02l-27.11 91.22c25.91,-13.35 52.8,-41.36 75.49,-51.2 26.07,13.52 47.88,35.66 75.08,51.3l-28.1 -90.59c17.1,-6.92 61.74,-40.11 74.6,-52.29l-93.03 -0.65 -27.01 -84.79 -30.96 84.58z"/>
   <path class="fil1" d="M2872.37 4246.83l-92.17 0.41c15.25,14.16 55.39,44.69 73.21,52.02l-27.11 91.22c25.91,-13.35 52.8,-41.36 75.49,-51.2 26.07,13.52 47.88,35.66 75.08,51.3l-28.1 -90.59c17.1,-6.92 61.74,-40.11 74.6,-52.29l-93.03 -0.65 -27.01 -84.79 -30.96 84.58z"/>
   <path class="fil1" d="M715.21 4246.83l-92.17 0.41c15.24,14.16 55.39,44.69 73.21,52.02l-27.11 91.22c25.91,-13.35 52.8,-41.36 75.48,-51.2 26.07,13.52 47.88,35.66 75.08,51.3l-28.1 -90.59c17.1,-6.92 61.73,-40.11 74.6,-52.29l-93.03 -0.65 -27.01 -84.79 -30.96 84.58z"/>
   <path class="fil1" d="M2333.08 4246.83l-92.17 0.41c15.25,14.16 55.39,44.69 73.21,52.02l-27.11 91.22c25.91,-13.35 52.8,-41.36 75.48,-51.2 26.07,13.52 47.88,35.66 75.08,51.3l-28.1 -90.59c17.1,-6.92 61.73,-40.11 74.6,-52.29l-93.02 -0.65 -27.01 -84.79 -30.96 84.58z"/>
   <path class="fil1" d="M1793.79 4246.83l-92.17 0.41c15.24,14.16 55.39,44.69 73.21,52.02l-27.11 91.22c25.9,-13.35 52.8,-41.36 75.48,-51.2 26.07,13.52 47.88,35.66 75.08,51.3l-28.1 -90.59c17.1,-6.92 61.74,-40.11 74.6,-52.29l-93.03 -0.65 -27 -84.79 -30.96 84.58z"/>
   <path class="fil1" d="M715.27 4705.59l-92.37 0.43c23.83,19.28 47.06,34.07 71.65,54.57l-25.44 88.75c27.64,-14.98 47.98,-37.13 75.52,-51.35 23.96,11.43 50.09,36.31 75.22,51.48 -6.88,-27.87 -23.73,-61.2 -24.96,-88.88 25.87,-20.82 47.97,-34.07 71.66,-53.92l-93.17 -0.98 -27.09 -84.56 -31.01 84.46z"/>
   <path class="fil1" d="M1793.85 4705.59l-92.37 0.43c23.83,19.28 47.05,34.07 71.65,54.57l-25.44 88.75c27.64,-14.98 47.98,-37.13 75.52,-51.35 23.96,11.43 50.09,36.31 75.22,51.48 -6.88,-27.87 -23.73,-61.2 -24.96,-88.88 25.86,-20.82 47.97,-34.07 71.65,-53.92l-93.17 -0.98 -27.09 -84.56 -31 84.46z"/>
   <path class="fil1" d="M2333.13 4705.59l-92.37 0.43c23.83,19.28 47.06,34.07 71.65,54.57l-25.44 88.75c27.64,-14.98 47.98,-37.13 75.52,-51.35 23.96,11.43 50.09,36.31 75.22,51.48 -6.88,-27.87 -23.73,-61.2 -24.96,-88.88 25.87,-20.82 47.97,-34.07 71.66,-53.92l-93.17 -0.98 -27.09 -84.56 -31.01 84.46z"/>
   <path class="fil1" d="M2872.43 4705.59l-92.38 0.43c23.83,19.28 47.06,34.07 71.65,54.57l-25.44 88.75c27.64,-14.98 47.98,-37.13 75.52,-51.35 23.96,11.43 50.09,36.31 75.21,51.48 -6.87,-27.87 -23.73,-61.2 -24.96,-88.88 25.87,-20.82 47.97,-34.07 71.66,-53.92l-93.17 -0.98 -27.09 -84.56 -31 84.46z"/>
   <path class="fil1" d="M1254.56 4705.59l-92.38 0.43c23.83,19.28 47.06,34.07 71.65,54.57l-25.44 88.75c27.64,-14.98 47.98,-37.13 75.52,-51.35 23.96,11.43 50.09,36.31 75.21,51.48 -6.87,-27.87 -23.73,-61.2 -24.96,-88.88 25.86,-20.82 47.97,-34.07 71.65,-53.92l-93.17 -0.98 -27.09 -84.56 -31 84.46z"/>
   <path class="fil1" d="M2602.45 4018.1l-90.06 -0.16c4.6,6.14 1.41,2.56 7.06,7.9 0.39,0.37 9.44,7.72 9.72,7.92l54.62 41.25 -27.43 86.55c27.06,-14.98 48.01,-36.23 75.77,-51.64 26.24,13.92 52.26,41.06 75.1,51.78l-26.82 -86.69c22.26,-20.19 51.88,-37.43 62.2,-46.78 0.78,-0.7 1.67,-1.56 2.41,-2.28 0.77,-0.76 1.7,-1.8 2.39,-2.51l-85.03 -5.54 -28.46 -84.44 -31.48 84.63z"/>
  </g>
 </g>
</svg>
