<svg width="18" height="16" viewBox="0 0 18 16" fill="none" xmlns="http://www.w3.org/2000/svg">
<path d="M1.8 16C1.305 16 0.8814 15.8043 0.5292 15.413C0.1764 15.021 0 14.55 0 14V2C0 1.45 0.1764 0.979333 0.5292 0.588C0.8814 0.196 1.305 0 1.8 0H12.6C13.095 0 13.5189 0.196 13.8717 0.588C14.2239 0.979333 14.4 1.45 14.4 2V6.5L17.235 3.35C17.385 3.18333 17.55 3.14167 17.73 3.225C17.91 3.30833 18 3.46667 18 3.7V12.3C18 12.5333 17.91 12.6917 17.73 12.775C17.55 12.8583 17.385 12.8167 17.235 12.65L14.4 9.5V14C14.4 14.55 14.2239 15.021 13.8717 15.413C13.5189 15.8043 13.095 16 12.6 16H1.8ZM1.8 14H12.6V2H1.8V14ZM3.6225 12H10.7775C10.9725 12 11.1114 11.9083 11.1942 11.725C11.2764 11.5417 11.2575 11.3667 11.1375 11.2L8.955 8.025C8.865 7.89167 8.745 7.825 8.595 7.825C8.445 7.825 8.325 7.89167 8.235 8.025L6.525 10.5L5.49 9C5.4 8.86667 5.28 8.8 5.13 8.8C4.98 8.8 4.86 8.86667 4.77 9L3.2625 11.2C3.1425 11.3667 3.1236 11.5417 3.2058 11.725C3.2886 11.9083 3.4275 12 3.6225 12ZM1.8 14V2V14Z" fill="#9DB6D0"/>
</svg>
