<svg width="47" height="41" viewBox="0 0 47 41" fill="none" xmlns="http://www.w3.org/2000/svg">
<g filter="url(#filter0_d_2044_5365)">
<path d="M0 36.4167L21.0833 0L42.1667 36.4167H0ZM21.0833 30.6667C21.6264 30.6667 22.0819 30.4827 22.4499 30.1147C22.8179 29.7467 23.0013 29.2918 23 28.75C23 28.2069 22.816 27.7514 22.448 27.3834C22.08 27.0154 21.6251 26.8321 21.0833 26.8333C20.5403 26.8333 20.0848 27.0173 19.7168 27.3853C19.3488 27.7533 19.1654 28.2082 19.1667 28.75C19.1667 29.2931 19.3507 29.7486 19.7187 30.1166C20.0867 30.4846 20.5416 30.6679 21.0833 30.6667ZM19.1667 24.9167H23V15.3333H19.1667V24.9167Z" fill="#0F4C8D"/>
<path d="M21.0833 31.1667C21.7526 31.1667 22.3373 30.9344 22.8035 30.4682M21.0833 31.1667V30.6667L21.0845 31.1667C21.0841 31.1667 21.0837 31.1667 21.0833 31.1667ZM21.0833 31.1667C20.4151 31.168 19.8311 30.9361 19.3651 30.4701C18.8989 30.0039 18.6667 29.4192 18.6667 28.75H19.1667L22.8035 30.4682M22.8035 30.4682C23.2695 30.0022 23.5013 29.4182 23.5 28.75M22.8035 30.4682L21.0833 26.3333C21.7515 26.332 22.3356 26.5639 22.8016 27.0299C23.2678 27.4961 23.5 28.0808 23.5 28.75M23.5 28.75H23L23.5 28.7488C23.5 28.7492 23.5 28.7496 23.5 28.75ZM18.6667 24.9167V25.4167H19.1667H23H23.5V24.9167V15.3333V14.8333H23H19.1667H18.6667V15.3333V24.9167ZM0.867224 35.9167L21.0833 0.997931L41.2994 35.9167H0.867224Z" stroke="#F9CD34"/>
</g>
<defs>
<filter id="filter0_d_2044_5365" x="0" y="0" width="46.167" height="40.4166" filterUnits="userSpaceOnUse" color-interpolation-filters="sRGB">
<feFlood flood-opacity="0" result="BackgroundImageFix"/>
<feColorMatrix in="SourceAlpha" type="matrix" values="0 0 0 0 0 0 0 0 0 0 0 0 0 0 0 0 0 0 127 0" result="hardAlpha"/>
<feOffset dx="2" dy="2"/>
<feGaussianBlur stdDeviation="1"/>
<feComposite in2="hardAlpha" operator="out"/>
<feColorMatrix type="matrix" values="0 0 0 0 0 0 0 0 0 0 0 0 0 0 0 0 0 0 0.25 0"/>
<feBlend mode="normal" in2="BackgroundImageFix" result="effect1_dropShadow_2044_5365"/>
<feBlend mode="normal" in="SourceGraphic" in2="effect1_dropShadow_2044_5365" result="shape"/>
</filter>
</defs>
</svg>
